<svg width="62" height="18" viewBox="0 0 62 18" fill="none" xmlns="http://www.w3.org/2000/svg">
<rect y="1.04834" width="62" height="15.9032" rx="4" fill="#11131D"/>
<g clip-path="url(#clip0_139_5343)">
<path d="M14.4446 3.78955C14.6787 3.72871 14.9685 3.71289 15.2327 3.82666L17.2268 4.68604C17.5368 4.81945 17.7735 5.09078 17.801 5.45166C17.8268 5.79116 17.6589 6.09287 17.428 6.30811H17.427L15.5627 8.04248L17.6946 9.50635C18.0198 9.72986 18.2258 10.0688 18.2551 10.4458C18.2845 10.8239 18.1321 11.1919 17.8381 11.4653L15.2522 13.8716C14.6705 14.4125 13.7563 14.3817 13.2317 13.7935L11.4875 11.8364L9.52271 13.6665C9.28806 13.8849 8.9862 14.0201 8.67017 14.0083C8.34187 13.996 8.03955 13.8236 7.86646 13.5171L6.86157 11.7378C6.7107 11.4705 6.72303 11.1712 6.78931 10.937C6.85777 10.6954 6.99872 10.4614 7.19458 10.2788L8.78052 8.80127L8.01392 7.94189C7.79416 7.69531 7.80466 7.38705 7.86353 7.1792C7.92491 6.96278 8.05749 6.76296 8.22583 6.60596L9.75024 5.18506C9.91965 5.02707 10.1272 4.9102 10.3391 4.85498C10.5361 4.80371 10.8243 4.78638 11.0735 4.95752H11.0745L12.1292 5.68213L13.7629 4.16064L13.9182 4.03467C14.0807 3.91953 14.2634 3.83666 14.4446 3.78955ZM10.6526 8.7915L11.6321 9.83447L13.3157 8.26514L12.136 7.40869L10.6526 8.7915Z" fill="#3B3F51" stroke="#5258A5"/>
<mask id="path-3-inside-1_139_5343" fill="white">
<path d="M14.2757 14.0001C14.2569 14.0001 14.2384 13.9998 14.2196 13.9987C13.9098 13.9843 13.6273 13.8506 13.4241 13.6228L11.5214 11.489C11.5152 11.4821 11.5094 11.4756 11.5036 11.4684C11.4889 11.4838 11.4736 11.4989 11.4578 11.5137L9.34577 13.4798C9.12305 13.6873 8.84875 13.7833 8.59358 13.7439C8.37872 13.7106 8.20007 13.5854 8.09076 13.3916L7.08647 11.6128C6.90064 11.2835 7.02293 10.791 7.37068 10.4668L9.12579 8.83204C9.13057 8.82758 9.13569 8.82312 9.14047 8.81867L8.2069 7.77147C7.98589 7.52347 8.06958 7.10329 8.40195 6.79356L9.92682 5.37248C10.0652 5.24351 10.2346 5.1485 10.404 5.10425C10.6045 5.05212 10.7904 5.0751 10.9274 5.16908L12.154 6.01185C12.1632 6.00259 12.1725 5.99367 12.182 5.98475L13.9392 4.34827C14.2733 4.03682 14.7853 3.91402 15.13 4.06254L17.1245 4.92212C17.3493 5.01884 17.4996 5.19789 17.5365 5.41296C17.5782 5.65478 17.474 5.91238 17.2509 6.12024L15.1532 8.07331L17.5474 9.71871C17.8118 9.90051 17.9758 10.1742 17.9977 10.4699C18.0195 10.769 17.9003 11.0561 17.6619 11.278L15.076 13.6835C14.8553 13.8886 14.5732 14.0001 14.276 14.0001H14.2757ZM11.7974 10.862C11.7988 10.8753 11.7991 10.8887 11.7984 10.9024C11.7943 10.9745 11.8052 11.0787 11.8821 11.1648L13.7848 13.299C13.9009 13.429 14.0632 13.5055 14.2422 13.5137C14.429 13.5227 14.6084 13.4565 14.7467 13.3275L17.3326 10.922C17.461 10.8026 17.5256 10.6548 17.5146 10.5063C17.5037 10.3564 17.4183 10.2195 17.2738 10.1204L14.8594 8.46091C14.7846 8.40946 14.6866 8.38236 14.5756 8.38236C14.5752 8.38236 14.5749 8.38236 14.5745 8.38236C14.5339 8.38236 14.4953 8.37207 14.4611 8.35424C14.4338 8.38202 14.3993 8.40363 14.3597 8.41563C14.2483 8.44993 14.1465 8.5079 14.0652 8.58371L11.9948 10.5114C11.9009 10.5989 11.8353 10.7097 11.8093 10.8239C11.8063 10.8373 11.8022 10.8499 11.7974 10.8623V10.862ZM9.7427 9.03304C9.73041 9.03853 9.71743 9.04299 9.7041 9.04608C9.61871 9.06735 9.53023 9.11777 9.45508 9.18808L7.69997 10.8229C7.51141 10.9985 7.44275 11.2581 7.50731 11.373L8.51194 13.1519C8.54781 13.2153 8.60041 13.253 8.66771 13.2637C8.77429 13.2801 8.90477 13.228 9.01682 13.1234L11.1289 11.1573C11.2262 11.0667 11.2942 10.9522 11.3205 10.8349C11.3236 10.8215 11.3277 10.8084 11.3328 10.7961C11.3315 10.7831 11.3311 10.7697 11.3318 10.7563C11.3356 10.6894 11.3256 10.5944 11.258 10.522L9.89813 9.07318C9.86773 9.04059 9.81751 9.03476 9.78096 9.03579C9.76798 9.03579 9.755 9.03545 9.74236 9.03373L9.7427 9.03304ZM10.2879 8.77922L11.6102 10.1883C11.6136 10.1917 11.617 10.1955 11.6201 10.1993C11.6348 10.1838 11.6502 10.1691 11.6659 10.1543L13.7209 8.24104L12.1161 7.07551C12.1072 7.08443 12.098 7.09335 12.0888 7.10192L10.3012 8.76653C10.2968 8.77065 10.2923 8.77476 10.2875 8.77888L10.2879 8.77922ZM9.64569 8.56759C9.65662 8.56759 9.66755 8.56827 9.67814 8.56964C9.69044 8.56416 9.70308 8.5597 9.7164 8.55661C9.80385 8.53466 9.89471 8.48286 9.97226 8.41049L11.7598 6.74588C11.8411 6.67008 11.8787 6.60079 11.8961 6.55585C11.9029 6.53836 11.9115 6.5219 11.9217 6.5068C11.9176 6.4924 11.9146 6.47765 11.9132 6.46221C11.9108 6.4382 11.9023 6.42757 11.8893 6.41865L10.6548 5.57006C10.6479 5.5656 10.6056 5.55325 10.5236 5.5752C10.4324 5.59955 10.335 5.65546 10.2568 5.72852L8.73193 7.1496C8.59051 7.28131 8.55977 7.41508 8.5707 7.44973L9.54151 8.53843C9.56542 8.56518 9.61392 8.56793 9.64091 8.56759C9.64296 8.56759 9.64467 8.56759 9.64672 8.56759H9.64569ZM12.3538 6.57472C12.3583 6.58947 12.361 6.60456 12.3624 6.62034C12.3648 6.64675 12.3743 6.6639 12.3955 6.67899L14.0341 7.86922C14.0967 7.9145 14.1872 7.93954 14.2893 7.93988C14.33 7.93988 14.3686 7.95017 14.4024 7.96801C14.4297 7.94023 14.4642 7.91862 14.5035 7.90661C14.6179 7.87163 14.7228 7.81126 14.8072 7.73305L16.922 5.7642C17.0214 5.67193 17.0726 5.57143 17.0596 5.49597C17.0484 5.43114 16.9848 5.39101 16.9336 5.36905L14.939 4.50948C14.7898 4.44534 14.4779 4.50948 14.2681 4.70465L12.511 6.34113C12.4324 6.41454 12.3959 6.48177 12.3788 6.52567C12.372 6.54316 12.3634 6.55963 12.3532 6.57472H12.3538Z"/>
</mask>
<path d="M14.2757 14.0001C14.2569 14.0001 14.2384 13.9998 14.2196 13.9987C13.9098 13.9843 13.6273 13.8506 13.4241 13.6228L11.5214 11.489C11.5152 11.4821 11.5094 11.4756 11.5036 11.4684C11.4889 11.4838 11.4736 11.4989 11.4578 11.5137L9.34577 13.4798C9.12305 13.6873 8.84875 13.7833 8.59358 13.7439C8.37872 13.7106 8.20007 13.5854 8.09076 13.3916L7.08647 11.6128C6.90064 11.2835 7.02293 10.791 7.37068 10.4668L9.12579 8.83204C9.13057 8.82758 9.13569 8.82312 9.14047 8.81867L8.2069 7.77147C7.98589 7.52347 8.06958 7.10329 8.40195 6.79356L9.92682 5.37248C10.0652 5.24351 10.2346 5.1485 10.404 5.10425C10.6045 5.05212 10.7904 5.0751 10.9274 5.16908L12.154 6.01185C12.1632 6.00259 12.1725 5.99367 12.182 5.98475L13.9392 4.34827C14.2733 4.03682 14.7853 3.91402 15.13 4.06254L17.1245 4.92212C17.3493 5.01884 17.4996 5.19789 17.5365 5.41296C17.5782 5.65478 17.474 5.91238 17.2509 6.12024L15.1532 8.07331L17.5474 9.71871C17.8118 9.90051 17.9758 10.1742 17.9977 10.4699C18.0195 10.769 17.9003 11.0561 17.6619 11.278L15.076 13.6835C14.8553 13.8886 14.5732 14.0001 14.276 14.0001H14.2757ZM11.7974 10.862C11.7988 10.8753 11.7991 10.8887 11.7984 10.9024C11.7943 10.9745 11.8052 11.0787 11.8821 11.1648L13.7848 13.299C13.9009 13.429 14.0632 13.5055 14.2422 13.5137C14.429 13.5227 14.6084 13.4565 14.7467 13.3275L17.3326 10.922C17.461 10.8026 17.5256 10.6548 17.5146 10.5063C17.5037 10.3564 17.4183 10.2195 17.2738 10.1204L14.8594 8.46091C14.7846 8.40946 14.6866 8.38236 14.5756 8.38236C14.5752 8.38236 14.5749 8.38236 14.5745 8.38236C14.5339 8.38236 14.4953 8.37207 14.4611 8.35424C14.4338 8.38202 14.3993 8.40363 14.3597 8.41563C14.2483 8.44993 14.1465 8.5079 14.0652 8.58371L11.9948 10.5114C11.9009 10.5989 11.8353 10.7097 11.8093 10.8239C11.8063 10.8373 11.8022 10.8499 11.7974 10.8623V10.862ZM9.7427 9.03304C9.73041 9.03853 9.71743 9.04299 9.7041 9.04608C9.61871 9.06735 9.53023 9.11777 9.45508 9.18808L7.69997 10.8229C7.51141 10.9985 7.44275 11.2581 7.50731 11.373L8.51194 13.1519C8.54781 13.2153 8.60041 13.253 8.66771 13.2637C8.77429 13.2801 8.90477 13.228 9.01682 13.1234L11.1289 11.1573C11.2262 11.0667 11.2942 10.9522 11.3205 10.8349C11.3236 10.8215 11.3277 10.8084 11.3328 10.7961C11.3315 10.7831 11.3311 10.7697 11.3318 10.7563C11.3356 10.6894 11.3256 10.5944 11.258 10.522L9.89813 9.07318C9.86773 9.04059 9.81751 9.03476 9.78096 9.03579C9.76798 9.03579 9.755 9.03545 9.74236 9.03373L9.7427 9.03304ZM10.2879 8.77922L11.6102 10.1883C11.6136 10.1917 11.617 10.1955 11.6201 10.1993C11.6348 10.1838 11.6502 10.1691 11.6659 10.1543L13.7209 8.24104L12.1161 7.07551C12.1072 7.08443 12.098 7.09335 12.0888 7.10192L10.3012 8.76653C10.2968 8.77065 10.2923 8.77476 10.2875 8.77888L10.2879 8.77922ZM9.64569 8.56759C9.65662 8.56759 9.66755 8.56827 9.67814 8.56964C9.69044 8.56416 9.70308 8.5597 9.7164 8.55661C9.80385 8.53466 9.89471 8.48286 9.97226 8.41049L11.7598 6.74588C11.8411 6.67008 11.8787 6.60079 11.8961 6.55585C11.9029 6.53836 11.9115 6.5219 11.9217 6.5068C11.9176 6.4924 11.9146 6.47765 11.9132 6.46221C11.9108 6.4382 11.9023 6.42757 11.8893 6.41865L10.6548 5.57006C10.6479 5.5656 10.6056 5.55325 10.5236 5.5752C10.4324 5.59955 10.335 5.65546 10.2568 5.72852L8.73193 7.1496C8.59051 7.28131 8.55977 7.41508 8.5707 7.44973L9.54151 8.53843C9.56542 8.56518 9.61392 8.56793 9.64091 8.56759C9.64296 8.56759 9.64467 8.56759 9.64672 8.56759H9.64569ZM12.3538 6.57472C12.3583 6.58947 12.361 6.60456 12.3624 6.62034C12.3648 6.64675 12.3743 6.6639 12.3955 6.67899L14.0341 7.86922C14.0967 7.9145 14.1872 7.93954 14.2893 7.93988C14.33 7.93988 14.3686 7.95017 14.4024 7.96801C14.4297 7.94023 14.4642 7.91862 14.5035 7.90661C14.6179 7.87163 14.7228 7.81126 14.8072 7.73305L16.922 5.7642C17.0214 5.67193 17.0726 5.57143 17.0596 5.49597C17.0484 5.43114 16.9848 5.39101 16.9336 5.36905L14.939 4.50948C14.7898 4.44534 14.4779 4.50948 14.2681 4.70465L12.511 6.34113C12.4324 6.41454 12.3959 6.48177 12.3788 6.52567C12.372 6.54316 12.3634 6.55963 12.3532 6.57472H12.3538Z" fill="#3B3F51" stroke="#5258A5" stroke-width="2" mask="url(#path-3-inside-1_139_5343)"/>
<path d="M9.45786 8.52339C9.40047 8.52339 9.32054 8.5107 9.26656 8.44999L8.29336 7.35855C8.2189 7.27519 8.2715 7.05636 8.46553 6.87559L9.9904 5.45452C10.1216 5.33207 10.2951 5.25317 10.4324 5.25317C10.482 5.25317 10.5236 5.26381 10.5527 5.2837L11.7872 6.1323C11.8364 6.16626 11.8637 6.21531 11.8685 6.27808C11.8774 6.39881 11.8043 6.54391 11.6731 6.66602L9.88553 8.33062C9.75607 8.45136 9.59586 8.52339 9.45717 8.52339H9.45786Z" fill="url(#paint0_linear_139_5343)"/>
<path d="M10.4328 5.14317V5.36406C10.4635 5.36406 10.4833 5.37024 10.4909 5.37538L11.7254 6.22398C11.7404 6.23427 11.7565 6.25005 11.7592 6.28675C11.764 6.35123 11.7247 6.4682 11.5986 6.58551L9.81109 8.25011C9.70314 8.35096 9.56753 8.41339 9.45754 8.41339C9.42269 8.41339 9.37521 8.40687 9.34823 8.37668L8.37503 7.28524C8.37263 7.28249 8.36375 7.25574 8.37981 7.19914C8.40269 7.11888 8.46111 7.03038 8.54002 6.95664L10.0649 5.53556C10.1923 5.41688 10.3412 5.36372 10.4324 5.36372V5.14282M10.4328 5.14317C10.2719 5.14317 10.0731 5.22754 9.91595 5.37401L8.39108 6.79508C8.16563 7.00535 8.08365 7.28901 8.21174 7.43273L9.18494 8.52418C9.25087 8.59827 9.34823 8.63428 9.45822 8.63428C9.61809 8.63428 9.80494 8.55813 9.96139 8.41201L11.7489 6.7474C12.0133 6.50113 12.056 6.18316 11.8504 6.04184L10.6159 5.19324C10.5667 5.15929 10.5035 5.14351 10.4335 5.14351L10.4328 5.14317Z" fill="white"/>
<path d="M14.0984 13.4698C13.8719 13.4698 13.6574 13.3751 13.5105 13.2102L11.6078 11.076C11.5142 10.9714 11.4743 10.8283 11.4947 10.6736C11.5159 10.5128 11.5993 10.3577 11.7291 10.2366L13.7995 8.30894C13.9587 8.16076 14.1831 8.07227 14.3997 8.07227C14.5373 8.07227 14.6613 8.1076 14.758 8.17414L17.1724 9.8336C17.3503 9.95606 17.4562 10.1286 17.4702 10.3193C17.4843 10.509 17.4047 10.6949 17.2462 10.842L14.6603 13.2475C14.5062 13.3909 14.3064 13.4698 14.098 13.4698H14.0984Z" fill="url(#paint1_linear_139_5343)"/>
<path d="M14.4001 8.18247C14.5152 8.18247 14.618 8.21094 14.6966 8.26513L17.1109 9.92459C17.2609 10.0275 17.3497 10.1705 17.3613 10.3273C17.3726 10.483 17.3057 10.637 17.1724 10.7608L14.5866 13.1663C14.453 13.2909 14.2798 13.3591 14.0991 13.3591C13.9037 13.3591 13.7193 13.2778 13.5929 13.1362L11.6902 11.002C11.5348 10.8277 11.586 10.5204 11.8043 10.317L13.8747 8.3893C14.0141 8.2593 14.2105 8.18178 14.4001 8.18178M14.3997 7.96191C14.1626 7.96191 13.9106 8.05521 13.7247 8.22809L11.6543 10.1558C11.3479 10.4408 11.2868 10.8819 11.5259 11.1498L13.4286 13.284C13.6031 13.4799 13.8491 13.5804 14.0984 13.5804C14.3246 13.5804 14.5534 13.4977 14.7355 13.3286L17.3214 10.9231C17.7043 10.567 17.6572 10.0326 17.2349 9.74246L14.8206 8.083C14.7013 8.00102 14.5538 7.96191 14.4001 7.96191H14.3997Z" fill="white"/>
<path d="M14.1145 7.89558C13.983 7.89558 13.8679 7.86231 13.7814 7.79954L12.1428 6.60931C12.0885 6.56987 12.0588 6.51533 12.0547 6.44707C12.0475 6.32736 12.1189 6.18536 12.246 6.06702L14.0031 4.43054C14.1692 4.27584 14.4137 4.17603 14.6266 4.17603C14.699 4.17603 14.7628 4.18769 14.8158 4.21067L16.8104 5.07024C16.9268 5.12032 16.9976 5.19887 17.0143 5.29628C17.0351 5.41805 16.9702 5.55937 16.8363 5.68422L14.7215 7.65308C14.5586 7.80503 14.3318 7.89558 14.1148 7.89558H14.1145Z" fill="url(#paint2_linear_139_5343)"/>
<path d="M14.6262 4.28657C14.6829 4.28657 14.7335 4.29549 14.7721 4.31195L16.7666 5.17153C16.823 5.19588 16.8927 5.24047 16.9056 5.3149C16.92 5.39791 16.866 5.50561 16.7612 5.60303L14.6463 7.57188C14.5032 7.70531 14.3041 7.78489 14.1145 7.78489C14.0079 7.78489 13.9123 7.75813 13.8456 7.70977L12.207 6.51954C12.1797 6.49964 12.1664 6.47495 12.1643 6.43996C12.1602 6.37273 12.1992 6.26057 12.3204 6.14738L14.0776 4.5109C14.2221 4.37644 14.4424 4.28588 14.6262 4.28588M14.6262 4.06567C14.3925 4.06567 14.1189 4.17166 13.928 4.34968L12.1708 5.98616C11.9109 6.22833 11.8665 6.54526 12.0779 6.69893L13.7165 7.88916C13.8248 7.96805 13.9649 8.00613 14.1141 8.00613C14.3481 8.00613 14.6047 7.91214 14.7956 7.73412L16.9104 5.76527C17.2233 5.47371 17.1926 5.11493 16.853 4.96881L14.8592 4.10924C14.7908 4.07974 14.7112 4.06567 14.6265 4.06567H14.6262Z" fill="white"/>
<path d="M8.53204 13.222C8.39779 13.222 8.28746 13.1575 8.22153 13.0402L7.2169 11.2613C7.11443 11.0802 7.21417 10.754 7.4345 10.5489L9.18961 8.91414C9.31634 8.79615 9.47416 8.72583 9.61216 8.72583C9.67228 8.72583 9.75699 8.73955 9.81848 8.80506L11.1784 10.2539C11.2549 10.3352 11.2928 10.446 11.2887 10.5736C11.2826 10.754 11.1931 10.9375 11.0431 11.0775L8.93102 13.0436C8.80736 13.1588 8.6656 13.222 8.53204 13.222Z" fill="url(#paint3_linear_139_5343)"/>
<path d="M9.61222 8.61533V8.83623C9.65082 8.83623 9.70411 8.84412 9.73861 8.88082L11.0985 10.3297C11.1692 10.4048 11.1812 10.5019 11.1788 10.5701C11.1736 10.719 11.0951 10.8785 10.9683 10.9965L8.85627 12.9626C8.75311 13.0586 8.63799 13.1118 8.5321 13.1118C8.46651 13.1118 8.37599 13.0898 8.31724 12.9859L7.31261 11.2071C7.27982 11.1491 7.27743 11.0579 7.30612 10.957C7.33994 10.838 7.41406 10.7186 7.50937 10.6298L9.26448 8.99504C9.3714 8.89557 9.50154 8.83589 9.61222 8.83589V8.61499M9.61222 8.61533C9.45133 8.61533 9.26755 8.69079 9.11486 8.83314L7.35975 10.4679C7.10014 10.7097 6.99151 11.0863 7.12132 11.3158L8.12594 13.0946C8.21476 13.2521 8.36472 13.3324 8.5321 13.3324C8.6865 13.3324 8.85593 13.2641 9.00555 13.1245L11.1176 11.1584C11.4302 10.8675 11.4896 10.4247 11.2584 10.1781L9.89847 8.72921C9.8264 8.65238 9.7246 8.61533 9.61222 8.61533Z" fill="white"/>
</g>
<path d="M33.28 5.98L31.45 13H29.38L28.26 8.38L27.1 13H25.03L23.25 5.98H25.08L26.09 11.09L27.34 5.98H29.22L30.42 11.09L31.44 5.98H33.28ZM40.2176 5.98V13H38.5076V10.11H35.8476V13H34.1376V5.98H35.8476V8.73H38.5076V5.98H40.2176ZM43.162 5.98V13H41.452V5.98H43.162ZM49.4513 5.98V7.35H47.5913V13H45.8813V7.35H44.0213V5.98H49.4513ZM52.0195 7.35V8.77H54.3095V10.09H52.0195V11.63H54.6095V13H50.3095V5.98H54.6095V7.35H52.0195Z" fill="url(#paint4_linear_139_5343)"/>
<defs>
<linearGradient id="paint0_linear_139_5343" x1="8.26099" y1="6.88828" x2="11.8692" y2="6.88828" gradientUnits="userSpaceOnUse">
<stop stop-color="#B5EFFF"/>
<stop offset="1" stop-color="#FDB8FF"/>
</linearGradient>
<linearGradient id="paint1_linear_139_5343" x1="11.4895" y1="10.771" x2="17.4718" y2="10.771" gradientUnits="userSpaceOnUse">
<stop stop-color="#B5EFFF"/>
<stop offset="1" stop-color="#FDB8FF"/>
</linearGradient>
<linearGradient id="paint2_linear_139_5343" x1="12.0542" y1="6.0358" x2="17.0181" y2="6.0358" gradientUnits="userSpaceOnUse">
<stop stop-color="#B5EFFF"/>
<stop offset="1" stop-color="#FDB8FF"/>
</linearGradient>
<linearGradient id="paint3_linear_139_5343" x1="7.17651" y1="10.9739" x2="11.289" y2="10.9739" gradientUnits="userSpaceOnUse">
<stop stop-color="#B5EFFF"/>
<stop offset="1" stop-color="#FDB8FF"/>
</linearGradient>
<linearGradient id="paint4_linear_139_5343" x1="23" y1="9" x2="56" y2="9" gradientUnits="userSpaceOnUse">
<stop stop-color="#FDB8FF"/>
<stop offset="0.466346" stop-color="#D4B8FF"/>
<stop offset="1" stop-color="white"/>
</linearGradient>
<clipPath id="clip0_139_5343">
<rect width="13" height="12.0004" fill="white" transform="translate(6 2.99976)"/>
</clipPath>
</defs>
</svg>
