<svg width="42" height="14" viewBox="0 0 42 14" fill="none" xmlns="http://www.w3.org/2000/svg">
<g clip-path="url(#clip0_8_5436)">
<rect width="42" height="14" rx="4" fill="#63EAA8"/>
<g clip-path="url(#clip1_8_5436)">
<path d="M6.78366 2C6.78366 4.63529 5.21825 7.00392 3 7.00392C5.21123 7.00392 6.78366 9.36471 6.78366 12.0078C6.78366 9.37255 8.34907 7.00392 10.5673 7.00392C8.35609 7.00392 6.78366 4.64314 6.78366 2Z" fill="#000F33"/>
<path d="M12.1117 2C12.1117 3.31765 11.3255 4.50196 10.2234 4.50196C11.3325 4.50196 12.1117 5.68627 12.1117 7.00392C12.1117 5.68627 12.8979 4.50196 14 4.50196C12.8909 4.50196 12.1117 3.31765 12.1117 2Z" fill="#000F33"/>
<path d="M11.2482 7.00391C11.2482 8.32155 10.462 9.50587 9.35986 9.50587C10.469 9.50587 11.2482 10.6902 11.2482 12.0078C11.2482 10.6902 12.0344 9.50587 13.1365 9.50587C12.0274 9.50587 11.2482 8.32155 11.2482 7.00391Z" fill="#000F33"/>
</g>
<path d="M21.28 6.2C21.1533 5.96667 20.97 5.79 20.73 5.67C20.4967 5.54333 20.22 5.48 19.9 5.48C19.3467 5.48 18.9033 5.66333 18.57 6.03C18.2367 6.39 18.07 6.87333 18.07 7.48C18.07 8.12667 18.2433 8.63333 18.59 9C18.9433 9.36 19.4267 9.54 20.04 9.54C20.46 9.54 20.8133 9.43333 21.1 9.22C21.3933 9.00667 21.6067 8.7 21.74 8.3H19.57V7.04H23.29V8.63C23.1633 9.05667 22.9467 9.45333 22.64 9.82C22.34 10.1867 21.9567 10.4833 21.49 10.71C21.0233 10.9367 20.4967 11.05 19.91 11.05C19.2167 11.05 18.5967 10.9 18.05 10.6C17.51 10.2933 17.0867 9.87 16.78 9.33C16.48 8.79 16.33 8.17333 16.33 7.48C16.33 6.78667 16.48 6.17 16.78 5.63C17.0867 5.08333 17.51 4.66 18.05 4.36C18.59 4.05333 19.2067 3.9 19.9 3.9C20.74 3.9 21.4467 4.10333 22.02 4.51C22.6 4.91667 22.9833 5.48 23.17 6.2H21.28ZM28.8072 3.98V5.35H25.9472V6.83H28.0872V8.16H25.9472V11H24.2372V3.98H28.8072ZM29.4159 7.48C29.4159 6.78667 29.5659 6.17 29.8659 5.63C30.1659 5.08333 30.5826 4.66 31.1159 4.36C31.6559 4.05333 32.2659 3.9 32.9459 3.9C33.7793 3.9 34.4926 4.12 35.0859 4.56C35.6793 5 36.0759 5.6 36.2759 6.36H34.3959C34.2559 6.06667 34.0559 5.84333 33.7959 5.69C33.5426 5.53667 33.2526 5.46 32.9259 5.46C32.3993 5.46 31.9726 5.64333 31.6459 6.01C31.3193 6.37667 31.1559 6.86667 31.1559 7.48C31.1559 8.09333 31.3193 8.58333 31.6459 8.95C31.9726 9.31667 32.3993 9.5 32.9259 9.5C33.2526 9.5 33.5426 9.42333 33.7959 9.27C34.0559 9.11667 34.2559 8.89333 34.3959 8.6H36.2759C36.0759 9.36 35.6793 9.96 35.0859 10.4C34.4926 10.8333 33.7793 11.05 32.9459 11.05C32.2659 11.05 31.6559 10.9 31.1159 10.6C30.5826 10.2933 30.1659 9.87 29.8659 9.33C29.5659 8.79 29.4159 8.17333 29.4159 7.48Z" fill="#000F33"/>
</g>
<defs>
<clipPath id="clip0_8_5436">
<rect width="42" height="14" rx="4" fill="white"/>
</clipPath>
<clipPath id="clip1_8_5436">
<rect width="11" height="10" fill="white" transform="translate(3 2)"/>
</clipPath>
</defs>
</svg>
