<svg width="39" height="14" viewBox="0 0 39 14" fill="none" xmlns="http://www.w3.org/2000/svg">
<g clip-path="url(#clip0_8_5424)">
<rect width="39" height="14" rx="4" fill="#F9CD67"/>
<g clip-path="url(#clip1_8_5424)">
<path d="M6.78366 2C6.78366 4.63529 5.21825 7.00392 3 7.00392C5.21123 7.00392 6.78366 9.36471 6.78366 12.0078C6.78366 9.37255 8.34907 7.00392 10.5673 7.00392C8.35609 7.00392 6.78366 4.64314 6.78366 2Z" fill="#000F33"/>
<path d="M12.1117 2C12.1117 3.31765 11.3255 4.50196 10.2234 4.50196C11.3325 4.50196 12.1117 5.68627 12.1117 7.00392C12.1117 5.68627 12.8979 4.50196 14 4.50196C12.8909 4.50196 12.1117 3.31765 12.1117 2Z" fill="#000F33"/>
<path d="M11.2482 7.00391C11.2482 8.32155 10.462 9.50587 9.35986 9.50587C10.469 9.50587 11.2482 10.6902 11.2482 12.0078C11.2482 10.6902 12.0344 9.50587 13.1365 9.50587C12.0274 9.50587 11.2482 8.32155 11.2482 7.00391Z" fill="#000F33"/>
</g>
<path d="M21.97 6.24C21.97 6.64667 21.8767 7.02 21.69 7.36C21.5033 7.69333 21.2167 7.96333 20.83 8.17C20.4433 8.37667 19.9633 8.48 19.39 8.48H18.33V11H16.62V3.98H19.39C19.95 3.98 20.4233 4.07667 20.81 4.27C21.1967 4.46333 21.4867 4.73 21.68 5.07C21.8733 5.41 21.97 5.8 21.97 6.24ZM19.26 7.12C19.5867 7.12 19.83 7.04333 19.99 6.89C20.15 6.73667 20.23 6.52 20.23 6.24C20.23 5.96 20.15 5.74333 19.99 5.59C19.83 5.43667 19.5867 5.36 19.26 5.36H18.33V7.12H19.26ZM27.4302 3.98V5.35H24.5702V6.83H26.7102V8.16H24.5702V11H22.8602V3.98H27.4302ZM28.039 7.48C28.039 6.78667 28.189 6.17 28.489 5.63C28.789 5.08333 29.2057 4.66 29.739 4.36C30.279 4.05333 30.889 3.9 31.569 3.9C32.4023 3.9 33.1157 4.12 33.709 4.56C34.3023 5 34.699 5.6 34.899 6.36H33.019C32.879 6.06667 32.679 5.84333 32.419 5.69C32.1657 5.53667 31.8757 5.46 31.549 5.46C31.0223 5.46 30.5957 5.64333 30.269 6.01C29.9423 6.37667 29.779 6.86667 29.779 7.48C29.779 8.09333 29.9423 8.58333 30.269 8.95C30.5957 9.31667 31.0223 9.5 31.549 9.5C31.8757 9.5 32.1657 9.42333 32.419 9.27C32.679 9.11667 32.879 8.89333 33.019 8.6H34.899C34.699 9.36 34.3023 9.96 33.709 10.4C33.1157 10.8333 32.4023 11.05 31.569 11.05C30.889 11.05 30.279 10.9 29.739 10.6C29.2057 10.2933 28.789 9.87 28.489 9.33C28.189 8.79 28.039 8.17333 28.039 7.48Z" fill="#000F33"/>
</g>
<defs>
<clipPath id="clip0_8_5424">
<rect width="39" height="14" rx="4" fill="white"/>
</clipPath>
<clipPath id="clip1_8_5424">
<rect width="11" height="10" fill="white" transform="translate(3 2)"/>
</clipPath>
</defs>
</svg>
