<svg width="46" height="14" viewBox="0 0 46 14" fill="none" xmlns="http://www.w3.org/2000/svg">
<g clip-path="url(#clip0_8_5448)">
<rect width="46" height="14" rx="4" fill="#FF565E"/>
<g clip-path="url(#clip1_8_5448)">
<path d="M6.78366 2C6.78366 4.63529 5.21825 7.00392 3 7.00392C5.21123 7.00392 6.78366 9.36471 6.78366 12.0078C6.78366 9.37255 8.34907 7.00392 10.5673 7.00392C8.35609 7.00392 6.78366 4.64314 6.78366 2Z" fill="#000F33"/>
<path d="M12.1117 2C12.1117 3.31765 11.3255 4.50196 10.2234 4.50196C11.3325 4.50196 12.1117 5.68627 12.1117 7.00392C12.1117 5.68627 12.8979 4.50196 14 4.50196C12.8909 4.50196 12.1117 3.31765 12.1117 2Z" fill="#000F33"/>
<path d="M11.2482 7.00391C11.2482 8.32155 10.462 9.50587 9.35986 9.50587C10.469 9.50587 11.2482 10.6902 11.2482 12.0078C11.2482 10.6902 12.0344 9.50587 13.1365 9.50587C12.0274 9.50587 11.2482 8.32155 11.2482 7.00391Z" fill="#000F33"/>
</g>
<path d="M18.33 9.68H20.57V11H16.62V3.98H18.33V9.68ZM23.0956 3.98V11H21.3856V3.98H23.0956ZM28.9048 3.98V5.35H26.0448V6.83H28.1848V8.16H26.0448V11H24.3348V3.98H28.9048ZM31.5136 5.35V6.77H33.8036V8.09H31.5136V9.63H34.1036V11H29.8036V3.98H34.1036V5.35H31.5136ZM35.0838 9.7V8.32L38.2438 3.8H40.1538V8.22H40.9738V9.7H40.1538V11H38.4438V9.7H35.0838ZM38.5638 5.68L36.8838 8.22H38.5638V5.68Z" fill="#000F33"/>
</g>
<defs>
<clipPath id="clip0_8_5448">
<rect width="46" height="14" rx="4" fill="white"/>
</clipPath>
<clipPath id="clip1_8_5448">
<rect width="11" height="10" fill="white" transform="translate(3 2)"/>
</clipPath>
</defs>
</svg>
