<svg width="42" height="14" viewBox="0 0 42 14" fill="none" xmlns="http://www.w3.org/2000/svg">
<g clip-path="url(#clip0_8_5430)">
<rect width="42" height="14" rx="4" fill="url(#paint0_linear_8_5430)"/>
<g clip-path="url(#clip1_8_5430)">
<path d="M6.78366 2C6.78366 4.63529 5.21825 7.00392 3 7.00392C5.21123 7.00392 6.78366 9.36471 6.78366 12.0078C6.78366 9.37255 8.34907 7.00392 10.5673 7.00392C8.35609 7.00392 6.78366 4.64314 6.78366 2Z" fill="#000F33"/>
<path d="M12.1117 2C12.1117 3.31765 11.3255 4.50196 10.2234 4.50196C11.3325 4.50196 12.1117 5.68627 12.1117 7.00392C12.1117 5.68627 12.8979 4.50196 14 4.50196C12.8909 4.50196 12.1117 3.31765 12.1117 2Z" fill="#000F33"/>
<path d="M11.2482 7.00391C11.2482 8.32155 10.462 9.50587 9.35986 9.50587C10.469 9.50587 11.2482 10.6902 11.2482 12.0078C11.2482 10.6902 12.0344 9.50587 13.1365 9.50587C12.0274 9.50587 11.2482 8.32155 11.2482 7.00391Z" fill="#000F33"/>
</g>
<path d="M24.57 3.98V11H22.86V6.79L21.29 11H19.91L18.33 6.78V11H16.62V3.98H18.64L20.61 8.84L22.56 3.98H24.57ZM30.3697 3.98V5.35H27.5097V6.83H29.6497V8.16H27.5097V11H25.7997V3.98H30.3697ZM30.9784 7.48C30.9784 6.78667 31.1284 6.17 31.4284 5.63C31.7284 5.08333 32.1451 4.66 32.6784 4.36C33.2184 4.05333 33.8284 3.9 34.5084 3.9C35.3418 3.9 36.0551 4.12 36.6484 4.56C37.2418 5 37.6384 5.6 37.8384 6.36H35.9584C35.8184 6.06667 35.6184 5.84333 35.3584 5.69C35.1051 5.53667 34.8151 5.46 34.4884 5.46C33.9618 5.46 33.5351 5.64333 33.2084 6.01C32.8818 6.37667 32.7184 6.86667 32.7184 7.48C32.7184 8.09333 32.8818 8.58333 33.2084 8.95C33.5351 9.31667 33.9618 9.5 34.4884 9.5C34.8151 9.5 35.1051 9.42333 35.3584 9.27C35.6184 9.11667 35.8184 8.89333 35.9584 8.6H37.8384C37.6384 9.36 37.2418 9.96 36.6484 10.4C36.0551 10.8333 35.3418 11.05 34.5084 11.05C33.8284 11.05 33.2184 10.9 32.6784 10.6C32.1451 10.2933 31.7284 9.87 31.4284 9.33C31.1284 8.79 30.9784 8.17333 30.9784 7.48Z" fill="#000F33"/>
</g>
<defs>
<linearGradient id="paint0_linear_8_5430" x1="0" y1="7" x2="42" y2="7" gradientUnits="userSpaceOnUse">
<stop stop-color="#B5EFFF"/>
<stop offset="0.346154" stop-color="#FDB8FF"/>
<stop offset="0.725962" stop-color="#D4B8FF"/>
<stop offset="1" stop-color="white"/>
</linearGradient>
<clipPath id="clip0_8_5430">
<rect width="42" height="14" rx="4" fill="white"/>
</clipPath>
<clipPath id="clip1_8_5430">
<rect width="11" height="10" fill="white" transform="translate(3 2)"/>
</clipPath>
</defs>
</svg>
