<svg width="33" height="14" viewBox="0 0 33 14" fill="none" xmlns="http://www.w3.org/2000/svg">
<g clip-path="url(#clip0_8_5442)">
<rect width="33" height="14" rx="4" fill="#9EBBFF"/>
<g clip-path="url(#clip1_8_5442)">
<path d="M6.78366 2C6.78366 4.63529 5.21825 7.00392 3 7.00392C5.21123 7.00392 6.78366 9.36471 6.78366 12.0078C6.78366 9.37255 8.34907 7.00392 10.5673 7.00392C8.35609 7.00392 6.78366 4.64314 6.78366 2Z" fill="#000F33"/>
<path d="M12.1117 2C12.1117 3.31765 11.3255 4.50196 10.2234 4.50196C11.3325 4.50196 12.1117 5.68627 12.1117 7.00392C12.1117 5.68627 12.8979 4.50196 14 4.50196C12.8909 4.50196 12.1117 3.31765 12.1117 2Z" fill="#000F33"/>
<path d="M11.2482 7.00391C11.2482 8.32155 10.462 9.50587 9.35986 9.50587C10.469 9.50587 11.2482 10.6902 11.2482 12.0078C11.2482 10.6902 12.0344 9.50587 13.1365 9.50587C12.0274 9.50587 11.2482 8.32155 11.2482 7.00391Z" fill="#000F33"/>
</g>
<path d="M21.19 3.98V5.35H18.33V6.83H20.47V8.16H18.33V11H16.62V3.98H21.19ZM21.7987 7.48C21.7987 6.78667 21.9488 6.17 22.2488 5.63C22.5488 5.08333 22.9654 4.66 23.4988 4.36C24.0388 4.05333 24.6488 3.9 25.3288 3.9C26.1621 3.9 26.8754 4.12 27.4688 4.56C28.0621 5 28.4588 5.6 28.6588 6.36H26.7788C26.6388 6.06667 26.4388 5.84333 26.1788 5.69C25.9254 5.53667 25.6354 5.46 25.3088 5.46C24.7821 5.46 24.3554 5.64333 24.0288 6.01C23.7021 6.37667 23.5388 6.86667 23.5388 7.48C23.5388 8.09333 23.7021 8.58333 24.0288 8.95C24.3554 9.31667 24.7821 9.5 25.3088 9.5C25.6354 9.5 25.9254 9.42333 26.1788 9.27C26.4388 9.11667 26.6388 8.89333 26.7788 8.6H28.6588C28.4588 9.36 28.0621 9.96 27.4688 10.4C26.8754 10.8333 26.1621 11.05 25.3288 11.05C24.6488 11.05 24.0388 10.9 23.4988 10.6C22.9654 10.2933 22.5488 9.87 22.2488 9.33C21.9488 8.79 21.7987 8.17333 21.7987 7.48Z" fill="#000F33"/>
</g>
<defs>
<clipPath id="clip0_8_5442">
<rect width="33" height="14" rx="4" fill="white"/>
</clipPath>
<clipPath id="clip1_8_5442">
<rect width="11" height="10" fill="white" transform="translate(3 2)"/>
</clipPath>
</defs>
</svg>
