<svg width="13" height="12" viewBox="0 0 13 12" fill="none" xmlns="http://www.w3.org/2000/svg">
<path d="M4.32419 0C4.32419 3.01176 2.53514 5.71877 0 5.71877C2.52712 5.71877 4.32419 8.41681 4.32419 11.4375C4.32419 8.42577 6.11323 5.71877 8.64837 5.71877C6.12125 5.71877 4.32419 3.02073 4.32419 0Z" fill="#F9CD67"/>
<path d="M10.4135 0C10.4135 1.50588 9.51492 2.85938 8.25537 2.85938C9.52294 2.85938 10.4135 4.21289 10.4135 5.71877C10.4135 4.21289 11.312 2.85938 12.5715 2.85938C11.304 2.85938 10.4135 1.50588 10.4135 0Z" fill="#F9CD67"/>
<path d="M9.42664 5.71875C9.42664 7.22463 8.5281 8.57813 7.26855 8.57813C8.53613 8.57813 9.42664 9.93164 9.42664 11.4375C9.42664 9.93164 10.3252 8.57813 11.5847 8.57813C10.3171 8.57813 9.42664 7.22463 9.42664 5.71875Z" fill="#F9CD67"/>
</svg>
