<svg width="24" height="22" viewBox="0 0 24 22" fill="none" xmlns="http://www.w3.org/2000/svg">
<path d="M8.05861 0C8.05861 5.61276 4.72453 10.6576 0 10.6576C4.70957 10.6576 8.05861 15.6857 8.05861 21.3151C8.05861 15.7024 11.3927 10.6576 16.1172 10.6576C11.4076 10.6576 8.05861 5.62946 8.05861 0Z" fill="url(#paint0_linear_87_8130)"/>
<path d="M19.4066 0C19.4066 2.80638 17.7321 5.32878 15.3848 5.32878C17.747 5.32878 19.4066 7.85118 19.4066 10.6576C19.4066 7.85118 21.0811 5.32878 23.4284 5.32878C21.0662 5.32878 19.4066 2.80638 19.4066 0Z" fill="url(#paint1_linear_87_8130)"/>
<path d="M17.5675 10.6576C17.5675 13.464 15.893 15.9864 13.5457 15.9864C15.9079 15.9864 17.5675 18.5088 17.5675 21.3152C17.5675 18.5088 19.242 15.9864 21.5893 15.9864C19.227 15.9864 17.5675 13.464 17.5675 10.6576Z" fill="url(#paint2_linear_87_8130)"/>
<path d="M17.5654 13.3359C17.7561 13.8192 17.9982 14.2687 18.2871 14.668C18.6804 15.2114 19.1663 15.6673 19.7266 15.9873C19.1693 16.3072 18.6857 16.7634 18.293 17.3047C18.0037 17.7035 17.76 18.1519 17.5684 18.6348C17.3778 18.1524 17.136 17.7042 16.8477 17.3057C16.4541 16.7617 15.9681 16.3045 15.4072 15.9844C15.9647 15.6645 16.449 15.2093 16.8418 14.668C17.1314 14.2688 17.3737 13.8193 17.5654 13.3359ZM8.05859 3.77051C8.46006 5.24481 9.09132 6.59906 9.91699 7.73438C10.8758 9.05266 12.1048 10.0832 13.5332 10.6562C12.1002 11.2303 10.8701 12.2662 9.91113 13.5879C9.0882 14.7222 8.45789 16.0732 8.05762 17.543C7.65614 16.0694 7.0255 14.7159 6.2002 13.5811C5.24092 12.262 4.01139 11.2301 2.58203 10.6572C4.01548 10.0832 5.24687 9.04955 6.20605 7.72754C7.02928 6.5929 7.65832 5.24082 8.05859 3.77051ZM19.4043 2.67773C19.595 3.16125 19.8379 3.61034 20.127 4.00977C20.5202 4.55321 21.0052 5.01006 21.5654 5.33008C21.0083 5.64997 20.5254 6.10633 20.1328 6.64746C19.8434 7.04637 19.5989 7.4945 19.4072 7.97754C19.2166 7.49499 18.9751 7.04618 18.6865 6.64746C18.293 6.1037 17.8078 5.64621 17.2471 5.32617C17.8041 5.00632 18.2881 4.55177 18.6807 4.01074C18.9704 3.61142 19.2125 3.16134 19.4043 2.67773Z" stroke="white" stroke-opacity="0.3"/>
<defs>
<linearGradient id="paint0_linear_87_8130" x1="8" y1="2" x2="21" y2="22" gradientUnits="userSpaceOnUse">
<stop offset="0.100962" stop-color="#53D1FF"/>
<stop offset="0.331731" stop-color="#FF51EE"/>
<stop offset="0.673077" stop-color="#FFED47"/>
<stop offset="0.879808" stop-color="#53D1FF"/>
</linearGradient>
<linearGradient id="paint1_linear_87_8130" x1="8" y1="2" x2="21" y2="22" gradientUnits="userSpaceOnUse">
<stop offset="0.100962" stop-color="#53D1FF"/>
<stop offset="0.331731" stop-color="#FF51EE"/>
<stop offset="0.673077" stop-color="#FFED47"/>
<stop offset="0.879808" stop-color="#53D1FF"/>
</linearGradient>
<linearGradient id="paint2_linear_87_8130" x1="8" y1="2" x2="21" y2="22" gradientUnits="userSpaceOnUse">
<stop offset="0.100962" stop-color="#53D1FF"/>
<stop offset="0.331731" stop-color="#FF51EE"/>
<stop offset="0.673077" stop-color="#FFED47"/>
<stop offset="0.879808" stop-color="#53D1FF"/>
</linearGradient>
</defs>
</svg>
