<svg width="19" height="18" viewBox="0 0 19 18" fill="none" xmlns="http://www.w3.org/2000/svg">
<path d="M2.6301 11.9046C2.65985 11.7467 2.81252 11.6419 2.97036 11.6717C3.08938 11.6937 3.18124 11.7868 3.20323 11.9046L3.3145 12.4919C3.47751 13.351 4.14898 14.0237 5.00803 14.1855L5.5954 14.2967C5.75324 14.3265 5.85804 14.4791 5.82828 14.637C5.80629 14.756 5.71314 14.8479 5.5954 14.8699L5.00803 14.9811C4.14898 15.1441 3.47622 15.8156 3.3145 16.6747L3.20323 17.262C3.17348 17.4199 3.02081 17.5247 2.86298 17.4949C2.74395 17.4729 2.65209 17.3798 2.6301 17.262L2.51883 16.6747C2.35582 15.8156 1.68436 15.1428 0.825298 14.9811L0.237929 14.8699C0.0800899 14.8401 -0.0247048 14.6874 0.00505173 14.5296C0.0270457 14.4106 0.120197 14.3187 0.237929 14.2967L0.825298 14.1855C1.68436 14.0224 2.35711 13.351 2.51883 12.4919L2.6301 11.9046Z" fill="#E3E3E3"/>
<path d="M9.63873 0.646095C9.71841 0.216301 10.1325 -0.0671802 10.5623 0.0138144C10.8837 0.0739071 11.1345 0.324729 11.1946 0.646095L11.4964 2.23986C11.9379 4.57172 13.7616 6.39671 16.0935 6.83695L17.6872 7.13873C18.117 7.21841 18.4005 7.63253 18.3195 8.06232C18.2594 8.38369 18.0086 8.63451 17.6872 8.6946L16.0935 8.99638C13.7616 9.43793 11.9366 11.2616 11.4964 13.5935L11.1946 15.1872C11.1149 15.617 10.7008 15.9005 10.271 15.8195C9.94964 15.7594 9.69882 15.5086 9.63873 15.1872L9.33696 13.5935C8.8954 11.2616 7.07172 9.43662 4.73986 8.99638L3.14609 8.6946C2.7163 8.61492 2.43282 8.2008 2.51381 7.77101C2.57391 7.44964 2.82473 7.19882 3.14609 7.13873L4.73986 6.83695C7.07172 6.3954 8.89671 4.57172 9.33696 2.23986L9.63873 0.646095Z" fill="#E3E3E3"/>
</svg>
