<svg width="10" height="10" viewBox="0 0 10 10" fill="none" xmlns="http://www.w3.org/2000/svg">
<circle cx="5" cy="5" r="5" fill="#000F33"/>
<g clip-path="url(#clip0_117_5697)">
<path d="M6.35108 5.98279L5.1137 9.00568L3.7168 5.98279H6.35108Z" fill="#F6A627"/>
<path d="M6.57206 4.63021C6.63279 4.79985 6.59678 4.97793 6.6102 5.15373C6.62573 5.19525 6.79909 5.21406 6.81957 5.34997C6.84323 5.50729 6.7892 5.68926 6.61196 5.74375C5.89699 5.76191 5.17883 5.73986 4.46633 5.73045C4.14291 5.72623 3.67227 5.76937 3.37215 5.73175C3.15184 5.70418 3.09005 5.33862 3.24964 5.19687C3.28318 5.16703 3.34355 5.15925 3.35662 5.11708C3.39616 4.98766 3.33755 4.7739 3.39969 4.62988L3.53104 4.66297H6.45873L6.57206 4.62988V4.63021Z" fill="#41AA42"/>
<path d="M6.8316 4.17771C6.8316 4.15273 6.82772 4.12841 6.82066 4.10538C6.8196 4.09986 6.81889 4.09402 6.81783 4.08851C6.8143 4.07034 6.79064 4.0298 6.76487 4.00547C6.72427 3.95974 6.66813 3.92633 6.60351 3.91205C6.61128 3.88935 6.62082 3.86697 6.62258 3.84329C6.62752 3.78555 6.61976 3.60845 6.60351 3.55688C6.57774 3.47514 6.51631 3.55039 6.4584 3.5465H3.53071C3.48163 3.55201 3.4548 3.5293 3.4262 3.49719C3.40678 3.49687 3.36759 3.69992 3.36477 3.73203C3.35947 3.79236 3.36088 3.85756 3.369 3.91984C3.25249 3.95682 3.16846 4.05834 3.16846 4.17836C3.16846 4.1816 3.16881 4.18485 3.16916 4.18809C3.16916 4.31394 3.25637 4.45147 3.39054 4.46931L6.58092 4.48521C6.73451 4.45958 6.8083 4.36 6.82419 4.23869C6.82878 4.21923 6.8316 4.19912 6.8316 4.17868V4.17771Z" fill="#30A2D3"/>
<path d="M6.87462 3.03763C6.87462 2.88907 6.76199 2.76484 6.61123 2.7324C6.61617 2.69283 6.62676 2.64742 6.62535 2.61368C6.61582 2.3636 6.47635 1.98766 6.29876 1.79628C6.27581 1.77163 6.154 1.64513 6.14482 1.63799C6.13422 1.62956 5.94921 1.52641 5.91108 1.50436C5.36699 1.19199 4.85539 1.19005 4.25834 1.37623C4.24245 1.3811 4.24634 1.40607 4.23433 1.40672C4.03343 1.42035 3.71814 1.7353 3.60621 1.89749C3.50523 2.0441 3.39013 2.31689 3.36824 2.48848C3.35906 2.56081 3.37601 2.67142 3.364 2.73791C3.22525 2.77781 3.12427 2.89685 3.12427 3.0373C3.12427 3.21051 3.27715 3.35096 3.46569 3.35096H6.58122L6.57627 3.34837C6.74434 3.3289 6.87462 3.19721 6.87462 3.03763Z" fill="#D0366A"/>
</g>
<defs>
<clipPath id="clip0_117_5697">
<rect width="3.75" height="8.125" fill="white" transform="translate(3.125 1.25)"/>
</clipPath>
</defs>
</svg>
