<svg width="17" height="16" viewBox="0 0 17 16" fill="none" xmlns="http://www.w3.org/2000/svg">
<path d="M7.52417 0.943704C7.83357 0.765072 8.21477 0.765072 8.52417 0.943704L13.5863 3.86635C13.8957 4.04499 14.0863 4.37511 14.0863 4.73238V10.5777C14.0863 10.9349 13.8957 11.2651 13.5863 11.4437L8.52417 14.3664C8.21477 14.545 7.83357 14.545 7.52417 14.3664L2.46199 11.4437C2.15259 11.2651 1.96199 10.9349 1.96199 10.5777V4.73238C1.96199 4.37511 2.15259 4.04499 2.46199 3.86635L7.52417 0.943704Z" fill="#BC1919"/>
<g filter="url(#filter0_d_78_7816)">
<mask id="path-2-outside-1_78_7816" maskUnits="userSpaceOnUse" x="3.02417" y="3.65503" width="10" height="9" fill="black">
<rect fill="white" x="3.02417" y="3.65503" width="10" height="9"/>
<path d="M6.09058 4.19995C6.73511 4.19995 7.05737 4.31453 7.05737 4.5437C7.05737 4.64396 7.02336 4.75675 6.95532 4.88208C6.88729 5.00382 6.85327 5.14526 6.85327 5.3064C6.85327 5.46753 6.91235 5.72892 7.03052 6.09058C7.52466 7.59806 7.86841 8.58634 8.06177 9.05542C8.25513 9.5245 8.36971 9.75903 8.40552 9.75903C8.50936 9.75903 8.86743 8.81372 9.47974 6.9231C9.71606 6.19263 9.83423 5.6394 9.83423 5.26343C9.83423 5.17391 9.78052 5.03784 9.6731 4.85522C9.56925 4.67261 9.51733 4.55802 9.51733 4.51147C9.51733 4.39331 9.58179 4.31274 9.71069 4.26978C9.84318 4.22323 10.1064 4.19995 10.5002 4.19995H10.8762C11.2808 4.19995 11.5404 4.23218 11.655 4.29663C11.7732 4.3575 11.8323 4.44344 11.8323 4.55444C11.8323 4.66545 11.7159 4.81226 11.4832 4.99487C11.2504 5.17749 11.0785 5.38338 10.9675 5.61255C10.946 5.65552 10.613 6.54891 9.96851 8.29272C9.32756 10.033 8.91935 11.0445 8.7439 11.3274C8.57202 11.6103 8.29272 11.7517 7.90601 11.7517C7.684 11.7517 7.46916 11.5154 7.26147 11.0427C7.14331 10.7778 6.78166 9.8575 6.17651 8.28198L5.64478 6.89087C5.55526 6.65812 5.455 6.39315 5.34399 6.09595C5.23299 5.79517 5.15422 5.59285 5.10767 5.48901C5.01815 5.29565 4.84448 5.12378 4.58667 4.97339C4.32886 4.81942 4.19995 4.6744 4.19995 4.53833C4.19995 4.39868 4.2286 4.31453 4.28589 4.28589C4.39689 4.2286 4.94116 4.19995 5.9187 4.19995H6.09058Z"/>
</mask>
<path d="M6.09058 4.19995C6.73511 4.19995 7.05737 4.31453 7.05737 4.5437C7.05737 4.64396 7.02336 4.75675 6.95532 4.88208C6.88729 5.00382 6.85327 5.14526 6.85327 5.3064C6.85327 5.46753 6.91235 5.72892 7.03052 6.09058C7.52466 7.59806 7.86841 8.58634 8.06177 9.05542C8.25513 9.5245 8.36971 9.75903 8.40552 9.75903C8.50936 9.75903 8.86743 8.81372 9.47974 6.9231C9.71606 6.19263 9.83423 5.6394 9.83423 5.26343C9.83423 5.17391 9.78052 5.03784 9.6731 4.85522C9.56925 4.67261 9.51733 4.55802 9.51733 4.51147C9.51733 4.39331 9.58179 4.31274 9.71069 4.26978C9.84318 4.22323 10.1064 4.19995 10.5002 4.19995H10.8762C11.2808 4.19995 11.5404 4.23218 11.655 4.29663C11.7732 4.3575 11.8323 4.44344 11.8323 4.55444C11.8323 4.66545 11.7159 4.81226 11.4832 4.99487C11.2504 5.17749 11.0785 5.38338 10.9675 5.61255C10.946 5.65552 10.613 6.54891 9.96851 8.29272C9.32756 10.033 8.91935 11.0445 8.7439 11.3274C8.57202 11.6103 8.29272 11.7517 7.90601 11.7517C7.684 11.7517 7.46916 11.5154 7.26147 11.0427C7.14331 10.7778 6.78166 9.8575 6.17651 8.28198L5.64478 6.89087C5.55526 6.65812 5.455 6.39315 5.34399 6.09595C5.23299 5.79517 5.15422 5.59285 5.10767 5.48901C5.01815 5.29565 4.84448 5.12378 4.58667 4.97339C4.32886 4.81942 4.19995 4.6744 4.19995 4.53833C4.19995 4.39868 4.2286 4.31453 4.28589 4.28589C4.39689 4.2286 4.94116 4.19995 5.9187 4.19995H6.09058Z" fill="#FF5F5F"/>
<path d="M6.95532 4.88208L7.12992 4.97965L7.13109 4.9775L6.95532 4.88208ZM7.03052 6.09058L6.84041 6.15269L6.84047 6.15287L7.03052 6.09058ZM8.06177 9.05542L7.87686 9.13164L8.06177 9.05542ZM9.47974 6.9231L9.67001 6.98472L9.67002 6.98466L9.47974 6.9231ZM9.6731 4.85522L9.49922 4.9541L9.50071 4.95663L9.6731 4.85522ZM9.71069 4.26978L9.77395 4.45954L9.77699 4.45847L9.71069 4.26978ZM11.655 4.29663L11.5569 4.47106L11.5634 4.47443L11.655 4.29663ZM10.9675 5.61255L11.1464 5.702L11.1475 5.69973L10.9675 5.61255ZM9.96851 8.29272L9.78091 8.22339L9.78083 8.2236L9.96851 8.29272ZM8.7439 11.3274L8.57393 11.222L8.57297 11.2235L8.7439 11.3274ZM7.26147 11.0427L7.44458 10.9623L7.44413 10.9613L7.26147 11.0427ZM6.17651 8.28198L5.9897 8.35339L5.98981 8.35369L6.17651 8.28198ZM5.64478 6.89087L5.83159 6.81946L5.83144 6.81907L5.64478 6.89087ZM5.34399 6.09595L5.15636 6.16519L5.15664 6.16592L5.34399 6.09595ZM5.10767 5.48901L5.29018 5.4072L5.28916 5.40499L5.10767 5.48901ZM4.58667 4.97339L4.48412 5.14511L4.4859 5.14614L4.58667 4.97339ZM4.28589 4.28589L4.37534 4.46479L4.37762 4.46361L4.28589 4.28589ZM6.09058 4.19995V4.39995C6.40649 4.39995 6.62045 4.42874 6.74867 4.47433C6.8118 4.49678 6.84018 4.51851 6.85104 4.5301C6.85765 4.53715 6.85737 4.53878 6.85737 4.5437H7.05737H7.25737C7.25737 4.43404 7.21681 4.33541 7.14286 4.25652C7.07315 4.18217 6.98068 4.13229 6.88268 4.09745C6.68863 4.02845 6.41919 3.99995 6.09058 3.99995V4.19995ZM7.05737 4.5437H6.85737C6.85737 4.59953 6.838 4.679 6.77955 4.78666L6.95532 4.88208L7.13109 4.9775C7.20872 4.83451 7.25737 4.6884 7.25737 4.5437H7.05737ZM6.95532 4.88208L6.78073 4.78452C6.6936 4.94043 6.65327 5.11647 6.65327 5.3064H6.85327H7.05327C7.05327 5.17406 7.08097 5.06722 7.12991 4.97964L6.95532 4.88208ZM6.85327 5.3064H6.65327C6.65327 5.50249 6.72218 5.79084 6.84041 6.15269L7.03052 6.09058L7.22063 6.02846C7.10253 5.667 7.05327 5.43257 7.05327 5.3064H6.85327ZM7.03052 6.09058L6.84047 6.15287C7.33415 7.65896 7.68017 8.65448 7.87686 9.13164L8.06177 9.05542L8.24667 8.9792C8.05665 8.5182 7.71517 7.53717 7.22057 6.02828L7.03052 6.09058ZM8.06177 9.05542L7.87686 9.13164C7.97395 9.36718 8.05287 9.5478 8.11302 9.67092C8.14268 9.73162 8.17041 9.78384 8.19553 9.82301C8.20759 9.84182 8.2236 9.86487 8.24315 9.88553C8.25289 9.89581 8.26851 9.91089 8.28981 9.92457C8.30944 9.93718 8.34999 9.95903 8.40552 9.95903V9.75903V9.55903C8.45656 9.55903 8.49203 9.57906 8.50595 9.588C8.52155 9.59801 8.53085 9.60759 8.53365 9.61055C8.53932 9.61655 8.53899 9.61761 8.53225 9.6071C8.51977 9.58764 8.50006 9.55191 8.47243 9.49534C8.41799 9.38392 8.34294 9.21274 8.24667 8.9792L8.06177 9.05542ZM8.40552 9.75903V9.95903C8.48495 9.95903 8.53877 9.91668 8.55935 9.89875C8.58478 9.87659 8.60478 9.85122 8.61958 9.83033C8.64985 9.78759 8.68031 9.7319 8.71076 9.66959C8.77265 9.54294 8.84888 9.35877 8.93898 9.12089C9.11981 8.64353 9.36361 7.93078 9.67001 6.98472L9.47974 6.9231L9.28947 6.86147C8.98356 7.80604 8.74217 8.51126 8.56492 8.9792C8.47599 9.21398 8.40497 9.3843 8.35137 9.49398C8.32408 9.54983 8.30475 9.58277 8.29317 9.59912C8.28704 9.60777 8.2881 9.60455 8.29658 9.59716C8.30021 9.594 8.33907 9.55903 8.40552 9.55903V9.75903ZM9.47974 6.9231L9.67002 6.98466C9.90754 6.25053 10.0342 5.67238 10.0342 5.26343H9.83423H9.63423C9.63423 5.60643 9.52459 6.13472 9.28945 6.86153L9.47974 6.9231ZM9.83423 5.26343H10.0342C10.0342 5.18261 10.011 5.09928 9.97998 5.0208C9.94803 4.93988 9.90235 4.85049 9.84548 4.75382L9.6731 4.85522L9.50071 4.95663C9.55127 5.04258 9.58615 5.11253 9.60791 5.16767C9.63065 5.22526 9.63423 5.25473 9.63423 5.26343H9.83423ZM9.6731 4.85522L9.84695 4.75636C9.79634 4.66736 9.76078 4.59906 9.73845 4.54978C9.72725 4.52507 9.72077 4.50817 9.71743 4.4978C9.71301 4.48407 9.71733 4.49177 9.71733 4.51147H9.51733H9.31733C9.31733 4.55445 9.32815 4.59393 9.33671 4.62048C9.34635 4.6504 9.35934 4.68229 9.3741 4.71487C9.40369 4.78017 9.44601 4.86047 9.49924 4.95408L9.6731 4.85522ZM9.51733 4.51147H9.71733C9.71733 4.50018 9.71886 4.49409 9.71966 4.4916C9.72037 4.48943 9.72101 4.48842 9.72185 4.48737C9.72346 4.48535 9.73468 4.4726 9.77394 4.45951L9.71069 4.26978L9.64745 4.08004C9.5578 4.10992 9.47234 4.15894 9.4095 4.23749C9.34485 4.3183 9.31733 4.41392 9.31733 4.51147H9.51733ZM9.71069 4.26978L9.77699 4.45847C9.81927 4.44361 9.89824 4.42785 10.0251 4.41663C10.1487 4.40569 10.3066 4.39995 10.5002 4.39995V4.19995V3.99995C10.3 3.99995 10.1294 4.00585 9.98983 4.01818C9.85347 4.03024 9.7346 4.04939 9.6444 4.08108L9.71069 4.26978ZM10.5002 4.19995V4.39995H10.8762V4.19995V3.99995H10.5002V4.19995ZM10.8762 4.19995V4.39995C11.0742 4.39995 11.2313 4.40789 11.3498 4.4226C11.4742 4.43805 11.5352 4.45871 11.557 4.47095L11.655 4.29663L11.7531 4.12232C11.6603 4.0701 11.5342 4.04242 11.399 4.02564C11.2579 4.00813 11.0828 3.99995 10.8762 3.99995V4.19995ZM11.655 4.29663L11.5634 4.47443C11.6309 4.50918 11.6323 4.53465 11.6323 4.55444H11.8323H12.0323C12.0323 4.35223 11.9155 4.20583 11.7466 4.11884L11.655 4.29663ZM11.8323 4.55444H11.6323C11.6323 4.54297 11.636 4.56336 11.5883 4.62356C11.5438 4.67971 11.47 4.75102 11.3597 4.83753L11.4832 4.99487L11.6066 5.15222C11.7291 5.05611 11.8299 4.96271 11.9017 4.87204C11.9704 4.78544 12.0323 4.67692 12.0323 4.55444H11.8323ZM11.4832 4.99487L11.3597 4.83753C11.1069 5.03589 10.9138 5.26471 10.7875 5.52536L10.9675 5.61255L11.1475 5.69973C11.2433 5.50205 11.3939 5.31909 11.6066 5.15222L11.4832 4.99487ZM10.9675 5.61255L10.7886 5.52311C10.7807 5.53906 10.7689 5.56929 10.7585 5.59605C10.7457 5.62883 10.7282 5.67471 10.706 5.73342C10.6615 5.85095 10.5975 6.02153 10.5143 6.24497C10.3477 6.69193 10.1032 7.35144 9.78091 8.22339L9.96851 8.29272L10.1561 8.36206C10.4784 7.4902 10.7227 6.8311 10.8891 6.38467C10.9723 6.16142 11.0359 5.9916 11.08 5.87504C11.1021 5.8167 11.1192 5.77212 11.1313 5.741C11.1457 5.70387 11.149 5.69677 11.1464 5.70199L10.9675 5.61255ZM9.96851 8.29272L9.78083 8.2236C9.46065 9.09292 9.19916 9.7787 8.99617 10.2817C8.79055 10.7913 8.65089 11.0979 8.57393 11.222L8.7439 11.3274L8.91386 11.4328C9.01236 11.274 9.16452 10.9334 9.36711 10.4314C9.57232 9.92288 9.83541 9.23276 10.1562 8.36185L9.96851 8.29272ZM8.7439 11.3274L8.57297 11.2235C8.44403 11.4358 8.23674 11.5517 7.90601 11.5517V11.7517V11.9517C8.34871 11.9517 8.70001 11.7848 8.91482 11.4312L8.7439 11.3274ZM7.90601 11.7517V11.5517C7.8724 11.5517 7.81283 11.535 7.72636 11.4399C7.63966 11.3446 7.54439 11.1894 7.44458 10.9623L7.26147 11.0427L7.07837 11.1232C7.18624 11.3687 7.30224 11.568 7.43038 11.709C7.55875 11.8502 7.7176 11.9517 7.90601 11.9517V11.7517ZM7.26147 11.0427L7.44413 10.9613C7.32871 10.7024 6.96951 9.78879 6.36322 8.21027L6.17651 8.28198L5.98981 8.35369C6.5938 9.92622 6.95791 10.8531 7.07881 11.1242L7.26147 11.0427ZM6.17651 8.28198L6.36333 8.21057L5.83159 6.81946L5.64478 6.89087L5.45796 6.96228L5.9897 8.35339L6.17651 8.28198ZM5.64478 6.89087L5.83144 6.81907C5.74221 6.58707 5.64219 6.32272 5.53135 6.02597L5.34399 6.09595L5.15664 6.16592C5.26781 6.46358 5.3683 6.72918 5.45811 6.96267L5.64478 6.89087ZM5.34399 6.09595L5.53162 6.0267C5.4209 5.72668 5.33991 5.51817 5.29017 5.4072L5.10767 5.48901L4.92516 5.57082C4.96852 5.66754 5.04508 5.86365 5.15636 6.16519L5.34399 6.09595ZM5.10767 5.48901L5.28916 5.40499C5.17681 5.16231 4.9669 4.96365 4.68744 4.80063L4.58667 4.97339L4.4859 5.14614C4.72207 5.28391 4.85949 5.429 4.92617 5.57304L5.10767 5.48901ZM4.58667 4.97339L4.68922 4.80168C4.56935 4.73009 4.4917 4.66756 4.44611 4.61627C4.40047 4.56492 4.39995 4.54004 4.39995 4.53833H4.19995H3.99995C3.99995 4.67268 4.06389 4.78835 4.14715 4.88202C4.23047 4.97575 4.34617 5.06271 4.48412 5.1451L4.58667 4.97339ZM4.19995 4.53833H4.39995C4.39995 4.4794 4.40635 4.4479 4.41077 4.43494C4.41482 4.42304 4.40949 4.44769 4.37533 4.46477L4.28589 4.28589L4.19645 4.107C4.10499 4.15273 4.0567 4.23378 4.03211 4.30603C4.00787 4.37722 3.99995 4.45762 3.99995 4.53833H4.19995ZM4.28589 4.28589L4.37762 4.46361C4.37016 4.46746 4.39154 4.45772 4.47639 4.44659C4.55093 4.43682 4.65411 4.4282 4.78786 4.42116C5.05478 4.40711 5.43116 4.39995 5.9187 4.39995V4.19995V3.99995C5.4287 3.99995 5.04418 4.00711 4.76683 4.02171C4.62844 4.029 4.51364 4.03828 4.42437 4.04999C4.3454 4.06035 4.25712 4.07567 4.19416 4.10816L4.28589 4.28589ZM5.9187 4.19995V4.39995H6.09058V4.19995V3.99995H5.9187V4.19995Z" fill="#FF5F5F" mask="url(#path-2-outside-1_78_7816)"/>
</g>
<defs>
<filter id="filter0_d_78_7816" x="0" y="0" width="16.0322" height="15.9517" filterUnits="userSpaceOnUse" color-interpolation-filters="sRGB">
<feFlood flood-opacity="0" result="BackgroundImageFix"/>
<feColorMatrix in="SourceAlpha" type="matrix" values="0 0 0 0 0 0 0 0 0 0 0 0 0 0 0 0 0 0 127 0" result="hardAlpha"/>
<feOffset/>
<feGaussianBlur stdDeviation="2"/>
<feComposite in2="hardAlpha" operator="out"/>
<feColorMatrix type="matrix" values="0 0 0 0 0 0 0 0 0 0 0 0 0 0 0 0 0 0 0.8 0"/>
<feBlend mode="normal" in2="BackgroundImageFix" result="effect1_dropShadow_78_7816"/>
<feBlend mode="normal" in="SourceGraphic" in2="effect1_dropShadow_78_7816" result="shape"/>
</filter>
</defs>
</svg>
