<svg width="24" height="17" viewBox="0 0 24 17" fill="none" xmlns="http://www.w3.org/2000/svg" xmlns:xlink="http://www.w3.org/1999/xlink">
<g filter="url(#filter0_i_78_7806)">
<path d="M11.675 1.07603C11.9845 0.897396 12.3656 0.897396 12.675 1.07603L17.7372 3.99868C18.0466 4.17731 18.2372 4.50744 18.2372 4.8647V10.71C18.2372 11.0673 18.0466 11.3974 17.7372 11.576L12.675 14.4987C12.3656 14.6773 11.9844 14.6773 11.675 14.4987L6.61287 11.576C6.30347 11.3974 6.11287 11.0673 6.11287 10.71V4.8647C6.11287 4.50744 6.30347 4.17731 6.61287 3.99868L11.675 1.07603Z" fill="url(#paint0_radial_78_7806)"/>
<path d="M11.675 1.07603C11.9845 0.897396 12.3656 0.897396 12.675 1.07603L17.7372 3.99868C18.0466 4.17731 18.2372 4.50744 18.2372 4.8647V10.71C18.2372 11.0673 18.0466 11.3974 17.7372 11.576L12.675 14.4987C12.3656 14.6773 11.9844 14.6773 11.675 14.4987L6.61287 11.576C6.30347 11.3974 6.11287 11.0673 6.11287 10.71V4.8647C6.11287 4.50744 6.30347 4.17731 6.61287 3.99868L11.675 1.07603Z" fill="url(#pattern0_78_7806)" fill-opacity="0.2"/>
</g>
<g filter="url(#filter1_di_78_7806)">
<mask id="path-3-outside-1_78_7806" maskUnits="userSpaceOnUse" x="3.17505" y="3.78735" width="17" height="9" fill="black">
<rect fill="white" x="3.17505" y="3.78735" width="17" height="9"/>
<path d="M9.99878 5.27222C9.99878 5.51213 9.96476 5.66968 9.89673 5.74487C9.82869 5.81649 9.72485 5.85229 9.58521 5.85229L9.48853 5.80396L9.37573 5.72876L9.24683 5.65356C9.1215 5.58195 8.8798 5.48348 8.52173 5.35815C8.16724 5.23283 7.83602 5.17017 7.52808 5.17017C7.22013 5.17017 6.99455 5.28117 6.85132 5.50317C6.71167 5.72518 6.64185 6.18172 6.64185 6.8728C6.64185 7.06974 6.70272 7.22729 6.82446 7.34546C6.94621 7.46362 7.1145 7.52271 7.32935 7.52271C7.54419 7.52271 7.78052 7.44751 8.03833 7.29712C8.29972 7.14673 8.48413 7.07153 8.59155 7.07153C8.70256 7.07153 8.79924 7.14494 8.88159 7.29175C8.96395 7.43498 9.00513 7.60685 9.00513 7.80737C9.00513 8.34806 8.94604 8.68107 8.82788 8.8064L8.68286 8.88696C8.4716 8.88696 8.3033 8.83862 8.17798 8.74194C7.90226 8.53068 7.69995 8.42505 7.57104 8.42505C7.16284 8.42505 6.88892 8.51099 6.74927 8.68286C6.68123 8.7688 6.64722 9.06421 6.64722 9.56909C6.64722 10.0704 6.74927 10.4517 6.95337 10.7131C7.06079 10.8528 7.29712 10.9226 7.66235 10.9226C8.02759 10.9226 8.49308 10.7991 9.05884 10.552C9.62817 10.3014 9.95402 10.176 10.0364 10.176C10.1903 10.176 10.2673 10.321 10.2673 10.6111V10.8044C10.2673 10.9047 10.2315 11.0444 10.1599 11.2234C10.0883 11.4024 9.97729 11.5421 9.8269 11.6423C9.67651 11.7426 9.42944 11.7927 9.08569 11.7927H5.19165C4.59725 11.7927 4.30005 11.7157 4.30005 11.5618V11.3899C4.30005 11.2681 4.40926 11.1464 4.62769 11.0247C4.84969 10.9029 4.9786 10.7722 5.0144 10.6326C5.05379 10.4893 5.07349 9.66577 5.07349 8.16187C5.07349 6.65796 5.04842 5.80575 4.99829 5.60522C4.94816 5.4047 4.82284 5.2203 4.62231 5.052C4.42179 4.88371 4.32153 4.7172 4.32153 4.55249C4.32153 4.43433 4.45044 4.36808 4.70825 4.35376C4.96606 4.33586 5.81291 4.3269 7.24878 4.3269L8.64526 4.32153H8.87085C9.2325 4.32153 9.48674 4.37345 9.63354 4.47729C9.87703 4.64917 9.99878 4.91414 9.99878 5.27222ZM15.7791 6.8728C15.9044 6.8728 16.0404 6.77612 16.1873 6.58276C16.6671 5.95256 16.907 5.52466 16.907 5.29907C16.907 5.163 16.8891 5.06453 16.8533 5.00366C16.7279 4.78524 16.6653 4.63485 16.6653 4.55249C16.6653 4.47013 16.71 4.41284 16.7996 4.38062C16.8891 4.34839 17.1827 4.33228 17.6804 4.33228C18.615 4.33228 19.0823 4.40389 19.0823 4.54712C19.0823 4.69035 19.0554 4.79598 19.0017 4.86401C18.948 4.93205 18.7904 5.03052 18.5291 5.15942C18.2712 5.28833 18.0295 5.4978 17.804 5.78784C16.9231 6.90861 16.4827 7.5979 16.4827 7.85571C16.4827 7.913 16.5525 8.04549 16.6921 8.25317C17.4083 9.32023 17.9561 10.0829 18.3357 10.5413C18.4789 10.7131 18.6401 10.8528 18.8191 10.9602C19.1306 11.1464 19.2864 11.3075 19.2864 11.4436C19.2864 11.5797 19.2201 11.662 19.0876 11.6907C18.794 11.7551 18.3124 11.7874 17.6428 11.7874C16.9732 11.7874 16.5865 11.7641 16.4827 11.7175C16.3824 11.6674 16.3323 11.5886 16.3323 11.4812C16.3323 11.3702 16.3484 11.2735 16.3806 11.1912L16.4397 11.0676L16.4934 10.9333C16.4934 10.7042 16.2499 10.2083 15.7629 9.44556C15.566 9.13761 15.4353 8.98364 15.3708 8.98364C15.2491 8.98364 15.0665 9.15731 14.823 9.50464C14.4148 10.0883 14.2107 10.4589 14.2107 10.6165C14.2107 10.774 14.2358 10.9172 14.2859 11.0461L14.3611 11.1965C14.4291 11.3362 14.4631 11.4293 14.4631 11.4758C14.4631 11.6047 14.3575 11.6871 14.1462 11.7229C13.935 11.7587 13.5214 11.7766 12.9055 11.7766C12.2896 11.7766 11.9817 11.6817 11.9817 11.4919C11.9817 11.406 12.2073 11.1876 12.6584 10.8367C12.8303 10.7006 13.0828 10.4141 13.4158 9.97729C14.2286 8.90308 14.635 8.27287 14.635 8.08667C14.635 7.84676 14.148 7.07511 13.1741 5.77173C12.97 5.49959 12.7319 5.27222 12.4597 5.0896C12.1912 4.9034 12.0569 4.75301 12.0569 4.63843C12.0569 4.50236 12.1571 4.41821 12.3577 4.38599C12.7157 4.32869 13.328 4.30005 14.1946 4.30005H14.4309C14.5956 4.30005 14.7245 4.32869 14.8176 4.38599C14.9143 4.4397 14.9626 4.55965 14.9626 4.74585C14.9626 4.7924 14.934 4.86938 14.8767 4.97681C14.8194 5.08065 14.7908 5.18449 14.7908 5.28833C14.7908 5.39217 14.9447 5.68221 15.2527 6.15845C15.5606 6.63468 15.7361 6.8728 15.7791 6.8728Z"/>
</mask>
<path d="M9.99878 5.27222C9.99878 5.51213 9.96476 5.66968 9.89673 5.74487C9.82869 5.81649 9.72485 5.85229 9.58521 5.85229L9.48853 5.80396L9.37573 5.72876L9.24683 5.65356C9.1215 5.58195 8.8798 5.48348 8.52173 5.35815C8.16724 5.23283 7.83602 5.17017 7.52808 5.17017C7.22013 5.17017 6.99455 5.28117 6.85132 5.50317C6.71167 5.72518 6.64185 6.18172 6.64185 6.8728C6.64185 7.06974 6.70272 7.22729 6.82446 7.34546C6.94621 7.46362 7.1145 7.52271 7.32935 7.52271C7.54419 7.52271 7.78052 7.44751 8.03833 7.29712C8.29972 7.14673 8.48413 7.07153 8.59155 7.07153C8.70256 7.07153 8.79924 7.14494 8.88159 7.29175C8.96395 7.43498 9.00513 7.60685 9.00513 7.80737C9.00513 8.34806 8.94604 8.68107 8.82788 8.8064L8.68286 8.88696C8.4716 8.88696 8.3033 8.83862 8.17798 8.74194C7.90226 8.53068 7.69995 8.42505 7.57104 8.42505C7.16284 8.42505 6.88892 8.51099 6.74927 8.68286C6.68123 8.7688 6.64722 9.06421 6.64722 9.56909C6.64722 10.0704 6.74927 10.4517 6.95337 10.7131C7.06079 10.8528 7.29712 10.9226 7.66235 10.9226C8.02759 10.9226 8.49308 10.7991 9.05884 10.552C9.62817 10.3014 9.95402 10.176 10.0364 10.176C10.1903 10.176 10.2673 10.321 10.2673 10.6111V10.8044C10.2673 10.9047 10.2315 11.0444 10.1599 11.2234C10.0883 11.4024 9.97729 11.5421 9.8269 11.6423C9.67651 11.7426 9.42944 11.7927 9.08569 11.7927H5.19165C4.59725 11.7927 4.30005 11.7157 4.30005 11.5618V11.3899C4.30005 11.2681 4.40926 11.1464 4.62769 11.0247C4.84969 10.9029 4.9786 10.7722 5.0144 10.6326C5.05379 10.4893 5.07349 9.66577 5.07349 8.16187C5.07349 6.65796 5.04842 5.80575 4.99829 5.60522C4.94816 5.4047 4.82284 5.2203 4.62231 5.052C4.42179 4.88371 4.32153 4.7172 4.32153 4.55249C4.32153 4.43433 4.45044 4.36808 4.70825 4.35376C4.96606 4.33586 5.81291 4.3269 7.24878 4.3269L8.64526 4.32153H8.87085C9.2325 4.32153 9.48674 4.37345 9.63354 4.47729C9.87703 4.64917 9.99878 4.91414 9.99878 5.27222ZM15.7791 6.8728C15.9044 6.8728 16.0404 6.77612 16.1873 6.58276C16.6671 5.95256 16.907 5.52466 16.907 5.29907C16.907 5.163 16.8891 5.06453 16.8533 5.00366C16.7279 4.78524 16.6653 4.63485 16.6653 4.55249C16.6653 4.47013 16.71 4.41284 16.7996 4.38062C16.8891 4.34839 17.1827 4.33228 17.6804 4.33228C18.615 4.33228 19.0823 4.40389 19.0823 4.54712C19.0823 4.69035 19.0554 4.79598 19.0017 4.86401C18.948 4.93205 18.7904 5.03052 18.5291 5.15942C18.2712 5.28833 18.0295 5.4978 17.804 5.78784C16.9231 6.90861 16.4827 7.5979 16.4827 7.85571C16.4827 7.913 16.5525 8.04549 16.6921 8.25317C17.4083 9.32023 17.9561 10.0829 18.3357 10.5413C18.4789 10.7131 18.6401 10.8528 18.8191 10.9602C19.1306 11.1464 19.2864 11.3075 19.2864 11.4436C19.2864 11.5797 19.2201 11.662 19.0876 11.6907C18.794 11.7551 18.3124 11.7874 17.6428 11.7874C16.9732 11.7874 16.5865 11.7641 16.4827 11.7175C16.3824 11.6674 16.3323 11.5886 16.3323 11.4812C16.3323 11.3702 16.3484 11.2735 16.3806 11.1912L16.4397 11.0676L16.4934 10.9333C16.4934 10.7042 16.2499 10.2083 15.7629 9.44556C15.566 9.13761 15.4353 8.98364 15.3708 8.98364C15.2491 8.98364 15.0665 9.15731 14.823 9.50464C14.4148 10.0883 14.2107 10.4589 14.2107 10.6165C14.2107 10.774 14.2358 10.9172 14.2859 11.0461L14.3611 11.1965C14.4291 11.3362 14.4631 11.4293 14.4631 11.4758C14.4631 11.6047 14.3575 11.6871 14.1462 11.7229C13.935 11.7587 13.5214 11.7766 12.9055 11.7766C12.2896 11.7766 11.9817 11.6817 11.9817 11.4919C11.9817 11.406 12.2073 11.1876 12.6584 10.8367C12.8303 10.7006 13.0828 10.4141 13.4158 9.97729C14.2286 8.90308 14.635 8.27287 14.635 8.08667C14.635 7.84676 14.148 7.07511 13.1741 5.77173C12.97 5.49959 12.7319 5.27222 12.4597 5.0896C12.1912 4.9034 12.0569 4.75301 12.0569 4.63843C12.0569 4.50236 12.1571 4.41821 12.3577 4.38599C12.7157 4.32869 13.328 4.30005 14.1946 4.30005H14.4309C14.5956 4.30005 14.7245 4.32869 14.8176 4.38599C14.9143 4.4397 14.9626 4.55965 14.9626 4.74585C14.9626 4.7924 14.934 4.86938 14.8767 4.97681C14.8194 5.08065 14.7908 5.18449 14.7908 5.28833C14.7908 5.39217 14.9447 5.68221 15.2527 6.15845C15.5606 6.63468 15.7361 6.8728 15.7791 6.8728Z" fill="url(#paint1_linear_78_7806)"/>
<path d="M9.89673 5.74487L10.1143 5.95156L10.1192 5.94615L9.89673 5.74487ZM9.58521 5.85229L9.45104 6.12062L9.51438 6.1523H9.58521V5.85229ZM9.48853 5.80396L9.32212 6.05357L9.33766 6.06393L9.35436 6.07228L9.48853 5.80396ZM9.37573 5.72876L9.54214 5.47914L9.53466 5.47416L9.52689 5.46963L9.37573 5.72876ZM9.24683 5.65356L9.39799 5.39442L9.39567 5.39309L9.24683 5.65356ZM8.52173 5.35815L8.42173 5.641L8.42262 5.64131L8.52173 5.35815ZM6.85132 5.50317L6.59921 5.34053L6.59738 5.34344L6.85132 5.50317ZM8.03833 7.29712L7.88872 7.03708L7.88717 7.03799L8.03833 7.29712ZM8.88159 7.29175L8.61993 7.43853L8.62152 7.44129L8.88159 7.29175ZM8.82788 8.8064L8.97357 9.06864L9.01424 9.04605L9.04616 9.0122L8.82788 8.8064ZM8.68286 8.88696V9.18696H8.7606L8.82855 9.14921L8.68286 8.88696ZM8.17798 8.74194L8.36122 8.50441L8.36044 8.50381L8.17798 8.74194ZM6.74927 8.68286L6.51641 8.49367L6.51405 8.49665L6.74927 8.68286ZM6.95337 10.7131L7.19116 10.5302L7.18983 10.5285L6.95337 10.7131ZM9.05884 10.552L9.1789 10.8269L9.17972 10.8266L9.05884 10.552ZM4.62769 11.0247L4.48343 10.7616L4.48163 10.7626L4.62769 11.0247ZM5.0144 10.6326L4.7251 10.553L4.72381 10.5581L5.0144 10.6326ZM4.70825 4.35376L4.72489 4.65333L4.72904 4.65304L4.70825 4.35376ZM7.24878 4.3269V4.62691L7.24993 4.6269L7.24878 4.3269ZM8.64526 4.32153V4.02153L8.64411 4.02154L8.64526 4.32153ZM9.63354 4.47729L9.46031 4.72222L9.46054 4.72239L9.63354 4.47729ZM9.99878 5.27222H9.69878C9.69878 5.38014 9.69094 5.45645 9.68002 5.507C9.6682 5.56178 9.65804 5.56153 9.67427 5.5436L9.89673 5.74487L10.1192 5.94615C10.2034 5.85302 10.2443 5.7364 10.2665 5.63363C10.2896 5.52662 10.2988 5.4042 10.2988 5.27222H9.99878ZM9.89673 5.74487L9.67923 5.53825C9.68193 5.5354 9.68162 5.53783 9.67002 5.54183C9.65679 5.54639 9.63035 5.55229 9.58521 5.55229V5.85229V6.1523C9.77241 6.1523 9.96944 6.10391 10.1142 5.9515L9.89673 5.74487ZM9.58521 5.85229L9.71937 5.58397L9.62269 5.53563L9.48853 5.80396L9.35436 6.07228L9.45104 6.12062L9.58521 5.85229ZM9.48853 5.80396L9.65494 5.55434L9.54214 5.47914L9.37573 5.72876L9.20932 5.97837L9.32212 6.05357L9.48853 5.80396ZM9.37573 5.72876L9.52689 5.46963L9.39799 5.39443L9.24683 5.65356L9.09566 5.9127L9.22457 5.98789L9.37573 5.72876ZM9.24683 5.65356L9.39567 5.39309C9.24339 5.30608 8.9771 5.19969 8.62083 5.075L8.52173 5.35815L8.42262 5.64131C8.7825 5.76727 8.99961 5.85782 9.09798 5.91404L9.24683 5.65356ZM8.52173 5.35815L8.62172 5.07531C8.24197 4.94105 7.87667 4.87017 7.52808 4.87017V5.17017V5.47017C7.79537 5.47017 8.0925 5.5246 8.42173 5.641L8.52173 5.35815ZM7.52808 5.17017V4.87017C7.13791 4.87017 6.80759 5.01758 6.59923 5.34054L6.85132 5.50317L7.10341 5.66581C7.1815 5.54476 7.30235 5.47017 7.52808 5.47017V5.17017ZM6.85132 5.50317L6.59738 5.34344C6.49494 5.50629 6.43477 5.72408 6.39766 5.96673C6.35963 6.21541 6.34185 6.51874 6.34185 6.8728H6.64185H6.94185C6.94185 6.53578 6.95897 6.2653 6.99077 6.05744C7.02348 5.84354 7.06805 5.72206 7.10526 5.66291L6.85132 5.50317ZM6.64185 6.8728H6.34185C6.34185 7.13669 6.42613 7.37691 6.61552 7.56073L6.82446 7.34546L7.03341 7.13018C6.97931 7.07768 6.94185 7.0028 6.94185 6.8728H6.64185ZM6.82446 7.34546L6.61552 7.56073C6.80712 7.7467 7.05824 7.82271 7.32935 7.82271V7.52271V7.2227C7.17077 7.2227 7.08529 7.18055 7.03341 7.13018L6.82446 7.34546ZM7.32935 7.52271V7.82271C7.61405 7.82271 7.90283 7.72347 8.18949 7.55625L8.03833 7.29712L7.88717 7.03799C7.65821 7.17155 7.47433 7.2227 7.32935 7.2227V7.52271ZM8.03833 7.29712L8.18794 7.55715C8.31223 7.48564 8.41085 7.43635 8.48596 7.40572C8.5676 7.37243 8.59698 7.37153 8.59155 7.37153V7.07153V6.77153C8.4787 6.77153 8.36217 6.80823 8.25941 6.85014C8.1501 6.89471 8.02582 6.95821 7.88872 7.03709L8.03833 7.29712ZM8.59155 7.07153V7.37153C8.58552 7.37153 8.57855 7.37041 8.57215 7.36815C8.56603 7.36599 8.56394 7.36403 8.5659 7.36552C8.57139 7.36968 8.59163 7.38804 8.61995 7.43852L8.88159 7.29175L9.14323 7.14497C9.03762 6.95671 8.86072 6.77153 8.59155 6.77153V7.07153ZM8.88159 7.29175L8.62152 7.44129C8.67266 7.53022 8.70513 7.64815 8.70513 7.80737H9.00513H9.30513C9.30513 7.56555 9.25524 7.33973 9.14166 7.14221L8.88159 7.29175ZM9.00513 7.80737H8.70513C8.70513 8.06923 8.69064 8.26813 8.66543 8.41024C8.63791 8.56535 8.6054 8.60505 8.6096 8.60059L8.82788 8.8064L9.04616 9.0122C9.16852 8.88242 9.22464 8.69295 9.2562 8.51505C9.29007 8.32416 9.30513 8.08621 9.30513 7.80737H9.00513ZM8.82788 8.8064L8.68219 8.54415L8.53717 8.62472L8.68286 8.88696L8.82855 9.14921L8.97357 9.06864L8.82788 8.8064ZM8.68286 8.88696V8.58696C8.5158 8.58696 8.41888 8.54889 8.36122 8.50441L8.17798 8.74194L7.99474 8.97948C8.18773 9.12835 8.4274 9.18696 8.68286 9.18696V8.88696ZM8.17798 8.74194L8.36044 8.50381C8.21517 8.3925 8.08049 8.30213 7.95831 8.23834C7.8426 8.17792 7.70799 8.12505 7.57104 8.12505V8.42505V8.72505C7.563 8.72505 7.59401 8.72499 7.68061 8.77021C7.76074 8.81204 7.86507 8.88012 7.99551 8.98007L8.17798 8.74194ZM7.57104 8.42505V8.12505C7.14356 8.12505 6.74633 8.21073 6.51643 8.49368L6.74927 8.68286L6.9821 8.87204C7.0315 8.81124 7.18212 8.72505 7.57104 8.72505V8.42505ZM6.74927 8.68286L6.51405 8.49665C6.45878 8.56646 6.43103 8.64844 6.41482 8.70904C6.39688 8.77607 6.38413 8.85263 6.3747 8.93455C6.35579 9.09879 6.34722 9.3119 6.34722 9.56909H6.64722H6.94722C6.94722 9.3214 6.95566 9.13436 6.97076 9.00319C6.97833 8.93741 6.98685 8.89245 6.99442 8.86414C7.00372 8.8294 7.00573 8.84223 6.98448 8.86907L6.74927 8.68286ZM6.64722 9.56909H6.34722C6.34722 10.1047 6.45528 10.5627 6.71691 10.8978L6.95337 10.7131L7.18983 10.5285C7.04326 10.3408 6.94722 10.0361 6.94722 9.56909H6.64722ZM6.95337 10.7131L6.71558 10.896C6.82056 11.0325 6.97084 11.112 7.12618 11.1579C7.28177 11.2039 7.46341 11.2226 7.66235 11.2226V10.9226V10.6226C7.49606 10.6226 7.37692 10.6064 7.29619 10.5825C7.21519 10.5586 7.1936 10.5334 7.19116 10.5302L6.95337 10.7131ZM7.66235 10.9226V11.2226C8.08797 11.2226 8.59788 11.0807 9.1789 10.8269L9.05884 10.552L8.93878 10.2771C8.38828 10.5175 7.96721 10.6226 7.66235 10.6226V10.9226ZM9.05884 10.552L9.17972 10.8266C9.46282 10.7019 9.68158 10.6102 9.83792 10.55C9.91641 10.5198 9.97541 10.4991 10.017 10.4863C10.0708 10.4698 10.0665 10.476 10.0364 10.476V10.176V9.87603C9.96504 9.87603 9.88912 9.89793 9.84091 9.91274C9.78045 9.9313 9.70696 9.95754 9.62253 9.99002C9.45303 10.0552 9.22419 10.1514 8.93796 10.2774L9.05884 10.552ZM10.0364 10.176V10.476C10.0259 10.476 10.0028 10.4729 9.97789 10.4573C9.95402 10.4423 9.94497 10.4261 9.94462 10.4255C9.94461 10.4254 9.94641 10.4289 9.94901 10.437C9.9516 10.4452 9.95464 10.4569 9.95749 10.473C9.96328 10.5058 9.96733 10.551 9.96733 10.6111H10.2673H10.5673C10.5673 10.4493 10.5475 10.2815 10.4746 10.1441C10.4357 10.071 10.3786 10.0004 10.297 9.94915C10.2143 9.89726 10.1238 9.87603 10.0364 9.87603V10.176ZM10.2673 10.6111H9.96733V10.8044H10.2673H10.5673V10.6111H10.2673ZM10.2673 10.8044H9.96733C9.96733 10.8457 9.94944 10.9418 9.88137 11.112L10.1599 11.2234L10.4385 11.3348C10.5136 11.1469 10.5673 10.9637 10.5673 10.8044H10.2673ZM10.1599 11.2234L9.88137 11.112C9.83071 11.2386 9.75695 11.3284 9.66049 11.3927L9.8269 11.6423L9.99331 11.8919C10.1976 11.7557 10.3459 11.5662 10.4385 11.3348L10.1599 11.2234ZM9.8269 11.6423L9.66049 11.3927C9.58691 11.4418 9.41544 11.4927 9.08569 11.4927V11.7927V12.0927C9.44345 12.0927 9.76612 12.0434 9.99331 11.8919L9.8269 11.6423ZM9.08569 11.7927V11.4927H5.19165V11.7927V12.0927H9.08569V11.7927ZM5.19165 11.7927V11.4927C4.90086 11.4927 4.70889 11.4732 4.59818 11.4446C4.54152 11.4299 4.5307 11.4188 4.53986 11.4259C4.55779 11.4399 4.60005 11.487 4.60005 11.5618H4.30005H4.00005C4.00005 11.7136 4.07945 11.828 4.17169 11.8997C4.25514 11.9645 4.35577 12.0016 4.44772 12.0254C4.63421 12.0737 4.88804 12.0927 5.19165 12.0927V11.7927ZM4.30005 11.5618H4.60005V11.3899H4.30005H4.00005V11.5618H4.30005ZM4.30005 11.3899H4.60005C4.60005 11.4252 4.58285 11.4326 4.60527 11.4076C4.62925 11.3809 4.67985 11.339 4.77374 11.2867L4.62769 11.0247L4.48163 10.7626C4.35709 10.832 4.24388 10.9119 4.15864 11.0069C4.07185 11.1037 4.00005 11.2328 4.00005 11.3899H4.30005ZM4.62769 11.0247L4.77194 11.2877C5.01537 11.1542 5.23754 10.9702 5.305 10.7071L5.0144 10.6326L4.72381 10.5581C4.71965 10.5743 4.68401 10.6516 4.48344 10.7616L4.62769 11.0247ZM5.0144 10.6326L5.30367 10.7121C5.32333 10.6406 5.33275 10.5295 5.33969 10.4159C5.34741 10.2897 5.35367 10.1221 5.35863 9.91464C5.36856 9.49928 5.37349 8.91461 5.37349 8.16187H5.07349H4.77349C4.77349 8.91303 4.76856 9.4921 4.7588 9.9003C4.75391 10.1047 4.74787 10.2638 4.74081 10.3793C4.73728 10.4371 4.73363 10.4816 4.73005 10.5142C4.726 10.551 4.72336 10.5595 4.72514 10.553L5.0144 10.6326ZM5.07349 8.16187H5.37349C5.37349 7.40882 5.36722 6.8164 5.35456 6.38596C5.34823 6.17092 5.34025 5.99394 5.33043 5.85643C5.32111 5.72606 5.30898 5.61103 5.28933 5.53246L4.99829 5.60522L4.70725 5.67799C4.71267 5.69968 4.72246 5.76637 4.73195 5.89918C4.74093 6.02486 4.74861 6.19253 4.75482 6.40359C4.76722 6.82536 4.77349 7.411 4.77349 8.16187H5.07349ZM4.99829 5.60522L5.28933 5.53246C5.2202 5.25591 5.05116 5.02027 4.81518 4.82221L4.62231 5.052L4.42945 5.28179C4.59451 5.42032 4.67613 5.5535 4.70725 5.67799L4.99829 5.60522ZM4.62231 5.052L4.81518 4.82221C4.64285 4.67758 4.62153 4.58725 4.62153 4.55249H4.32153H4.02153C4.02153 4.84716 4.20074 5.08984 4.42945 5.28179L4.62231 5.052ZM4.32153 4.55249H4.62153C4.62153 4.58115 4.61253 4.61551 4.59158 4.64548C4.58227 4.65881 4.5729 4.6679 4.56606 4.6735C4.56269 4.67627 4.55995 4.67817 4.55813 4.67934C4.55722 4.67993 4.55651 4.68035 4.55605 4.68062C4.55581 4.68075 4.55563 4.68085 4.55551 4.68092C4.5554 4.68098 4.55533 4.68101 4.55533 4.68101C4.55533 4.68101 4.55539 4.68098 4.55551 4.68093C4.55563 4.68087 4.5558 4.68079 4.55604 4.68068C4.55652 4.68046 4.55723 4.68014 4.55818 4.67975C4.56012 4.67895 4.56293 4.67788 4.56675 4.67662C4.5745 4.67406 4.58547 4.67101 4.60025 4.66793C4.63024 4.66168 4.67114 4.65628 4.72489 4.6533L4.70825 4.35376L4.69161 4.05422C4.54848 4.06217 4.40162 4.08542 4.28109 4.14736C4.14378 4.21792 4.02153 4.3534 4.02153 4.55249H4.32153ZM4.70825 4.35376L4.72904 4.65304C4.97365 4.63605 5.80685 4.6269 7.24878 4.6269V4.3269V4.0269C5.81897 4.0269 4.95848 4.03566 4.68747 4.05448L4.70825 4.35376ZM7.24878 4.3269L7.24993 4.6269L8.64642 4.62153L8.64526 4.32153L8.64411 4.02154L7.24763 4.02691L7.24878 4.3269ZM8.64526 4.32153V4.62153H8.87085V4.32153V4.02153H8.64526V4.32153ZM8.87085 4.32153V4.62153C9.22247 4.62153 9.39444 4.67563 9.46031 4.72222L9.63354 4.47729L9.80678 4.23237C9.57903 4.07127 9.24254 4.02153 8.87085 4.02153V4.32153ZM9.63354 4.47729L9.46054 4.72239C9.60776 4.82631 9.69878 4.98931 9.69878 5.27222H9.99878H10.2988C10.2988 4.83898 10.1463 4.47203 9.80655 4.2322L9.63354 4.47729ZM16.1873 6.58276L15.9486 6.40103L15.9483 6.40135L16.1873 6.58276ZM16.8533 5.00366L16.593 5.15297L16.5947 5.15577L16.8533 5.00366ZM18.5291 5.15942L18.3964 4.89036L18.3949 4.8911L18.5291 5.15942ZM17.804 5.78784L18.0398 5.97322L18.0408 5.97202L17.804 5.78784ZM16.6921 8.25317L16.9412 8.08599L16.9411 8.08577L16.6921 8.25317ZM18.3357 10.5413L18.1046 10.7326L18.1052 10.7333L18.3357 10.5413ZM18.8191 10.9602L18.6647 11.2175L18.6652 11.2177L18.8191 10.9602ZM19.0876 11.6907L19.0242 11.3974L19.0233 11.3977L19.0876 11.6907ZM16.4827 11.7175L16.3484 11.9861L16.3599 11.9913L16.4827 11.7175ZM16.3806 11.1912L16.11 11.0617L16.1052 11.0716L16.1012 11.0818L16.3806 11.1912ZM16.4397 11.0676L16.7103 11.1971L16.7146 11.1882L16.7182 11.179L16.4397 11.0676ZM16.4934 10.9333L16.772 11.0448L16.7934 10.9911V10.9333H16.4934ZM15.7629 9.44556L16.0158 9.28411L16.0157 9.28392L15.7629 9.44556ZM14.823 9.50464L14.5773 9.33243L14.5772 9.3327L14.823 9.50464ZM14.2859 11.0461L14.0063 11.1549L14.0113 11.1679L14.0176 11.1803L14.2859 11.0461ZM14.3611 11.1965L14.6308 11.0651L14.6294 11.0624L14.3611 11.1965ZM12.6584 10.8367L12.8426 11.0735L12.8447 11.0719L12.6584 10.8367ZM13.4158 9.97729L13.6544 10.1592L13.655 10.1583L13.4158 9.97729ZM13.1741 5.77173L13.4144 5.59215L13.4141 5.59173L13.1741 5.77173ZM12.4597 5.0896L12.2888 5.33617L12.2926 5.33871L12.4597 5.0896ZM12.3577 4.38599L12.3103 4.08975L12.3101 4.08979L12.3577 4.38599ZM14.8176 4.38599L14.6602 4.64174L14.6719 4.64823L14.8176 4.38599ZM14.8767 4.97681L15.1394 5.12174L15.1414 5.11798L14.8767 4.97681ZM15.2527 6.15845L15.0008 6.32134L15.2527 6.15845ZM15.7791 6.8728V7.1728C16.057 7.1728 16.2716 6.9678 16.4262 6.76418L16.1873 6.58276L15.9483 6.40135C15.8857 6.48377 15.8361 6.53104 15.8013 6.55574C15.7674 6.57983 15.7618 6.5728 15.7791 6.5728V6.8728ZM16.1873 6.58276L16.4259 6.76449C16.6699 6.44413 16.8591 6.16712 16.9887 5.9359C17.1108 5.71823 17.207 5.49568 17.207 5.29907H16.907H16.607C16.607 5.32806 16.5832 5.43224 16.4654 5.64247C16.3551 5.83915 16.1845 6.09119 15.9486 6.40103L16.1873 6.58276ZM16.907 5.29907H17.207C17.207 5.15076 17.19 4.98438 17.1119 4.85156L16.8533 5.00366L16.5947 5.15577C16.5889 5.14598 16.5933 5.14899 16.5984 5.17683C16.6032 5.20335 16.607 5.2431 16.607 5.29907H16.907ZM16.8533 5.00366L17.1135 4.85436C17.0541 4.75088 17.0138 4.67075 16.9892 4.61167C16.9611 4.5443 16.9653 4.53171 16.9653 4.55249H16.6653H16.3653C16.3653 4.65563 16.4008 4.75941 16.4354 4.84244C16.4734 4.93375 16.5271 5.03802 16.5931 5.15296L16.8533 5.00366ZM16.6653 4.55249H16.9653C16.9653 4.5689 16.9595 4.60142 16.9353 4.63245C16.9136 4.66019 16.8935 4.66563 16.9012 4.66288L16.7996 4.38062L16.6979 4.09835C16.6161 4.12782 16.5289 4.17803 16.4624 4.26306C16.3934 4.35138 16.3653 4.45373 16.3653 4.55249H16.6653ZM16.7996 4.38062L16.9012 4.66288C16.891 4.66653 16.899 4.6626 16.9425 4.65711C16.9808 4.65228 17.0338 4.64773 17.1034 4.64391C17.2422 4.63629 17.4339 4.63228 17.6804 4.63228V4.33228V4.03228C17.4293 4.03228 17.2252 4.03632 17.0705 4.04481C16.9932 4.04905 16.9249 4.05457 16.8674 4.06183C16.8152 4.06842 16.7528 4.07859 16.6979 4.09835L16.7996 4.38062ZM17.6804 4.33228V4.63228C18.1442 4.63228 18.476 4.65029 18.6864 4.68252C18.7946 4.6991 18.8493 4.71647 18.8693 4.7257C18.9097 4.74423 18.7823 4.70169 18.7823 4.54712H19.0823H19.3823C19.3823 4.32094 19.1965 4.21573 19.12 4.18055C19.0232 4.13607 18.9027 4.10868 18.7773 4.08945C18.5203 4.05007 18.1512 4.03228 17.6804 4.03228V4.33228ZM19.0823 4.54712H18.7823C18.7823 4.60112 18.7771 4.63737 18.7714 4.65984C18.7657 4.68203 18.7612 4.68448 18.7662 4.67812L19.0017 4.86401L19.2372 5.04991C19.3523 4.90412 19.3823 4.71736 19.3823 4.54712H19.0823ZM19.0017 4.86401L18.7662 4.67812C18.7737 4.66864 18.7595 4.6875 18.6843 4.73449C18.6174 4.7763 18.5225 4.82816 18.3964 4.89036L18.5291 5.15942L18.6617 5.42848C18.797 5.36178 18.9116 5.29995 19.0023 5.24329C19.0846 5.19181 19.176 5.12742 19.2372 5.04991L19.0017 4.86401ZM18.5291 5.15942L18.3949 4.8911C18.0876 5.04476 17.8129 5.28766 17.5672 5.60366L17.804 5.78784L18.0408 5.97202C18.2462 5.70794 18.4549 5.5319 18.6632 5.42775L18.5291 5.15942ZM17.804 5.78784L17.5681 5.60246C17.1253 6.16579 16.7881 6.62713 16.5602 6.98386C16.4464 7.16189 16.3561 7.31971 16.2932 7.45495C16.2348 7.5805 16.1827 7.72212 16.1827 7.85571H16.4827H16.7827C16.7827 7.8604 16.7855 7.81918 16.8373 7.70795C16.8845 7.60642 16.9593 7.47353 17.0658 7.30692C17.2783 6.97435 17.6017 6.53066 18.0398 5.97322L17.804 5.78784ZM16.4827 7.85571H16.1827C16.1827 7.92261 16.2011 7.98083 16.2142 8.01637C16.2291 8.0569 16.2486 8.09808 16.2696 8.13792C16.3117 8.21779 16.3708 8.31289 16.4432 8.42057L16.6921 8.25317L16.9411 8.08577C16.8739 7.98578 16.8282 7.91079 16.8004 7.85818C16.7865 7.83177 16.7799 7.81611 16.7773 7.80919C16.7729 7.79728 16.7827 7.81746 16.7827 7.85571H16.4827ZM16.6921 8.25317L16.443 8.42035C17.1599 9.4885 17.7148 10.2619 18.1046 10.7326L18.3357 10.5413L18.5668 10.3499C18.1975 9.90398 17.6567 9.15197 16.9412 8.08599L16.6921 8.25317ZM18.3357 10.5413L18.1052 10.7333C18.2684 10.9292 18.4549 11.0915 18.6647 11.2175L18.8191 10.9602L18.9734 10.703C18.8253 10.614 18.6894 10.4971 18.5662 10.3492L18.3357 10.5413ZM18.8191 10.9602L18.6652 11.2177C18.8104 11.3045 18.9021 11.3756 18.9539 11.4292C19.0108 11.4881 18.9864 11.4906 18.9864 11.4436H19.2864H19.5864C19.5864 11.2605 19.4841 11.1145 19.3853 11.0122C19.2813 10.9046 19.1393 10.8021 18.973 10.7027L18.8191 10.9602ZM19.2864 11.4436H18.9864C18.9864 11.4536 18.9851 11.4543 18.9869 11.4485C18.9888 11.442 18.9936 11.4311 19.0029 11.4194C19.0123 11.4077 19.0221 11.4007 19.0283 11.3972C19.0338 11.3941 19.0337 11.3954 19.0242 11.3974L19.0876 11.6907L19.151 11.9839C19.2652 11.9592 19.3834 11.9037 19.4705 11.7954C19.5575 11.6873 19.5864 11.5601 19.5864 11.4436H19.2864ZM19.0876 11.6907L19.0233 11.3977C18.764 11.4546 18.3105 11.4874 17.6428 11.4874V11.7874V12.0874C18.3143 12.0874 18.8241 12.0557 19.152 11.9837L19.0876 11.6907ZM17.6428 11.7874V11.4874C17.3104 11.4874 17.0532 11.4815 16.8686 11.4704C16.7761 11.4649 16.706 11.4582 16.6559 11.4511C16.5976 11.4428 16.5901 11.4369 16.6054 11.4438L16.4827 11.7175L16.3599 11.9913C16.4272 12.0214 16.5069 12.0359 16.5713 12.0451C16.6438 12.0554 16.7317 12.0633 16.8326 12.0694C17.0347 12.0815 17.3057 12.0874 17.6428 12.0874V11.7874ZM16.4827 11.7175L16.6168 11.4492C16.6109 11.4462 16.61 11.445 16.6121 11.4468C16.6144 11.4488 16.6187 11.453 16.623 11.4598C16.6273 11.4666 16.63 11.4733 16.6314 11.4784C16.6327 11.4833 16.6323 11.4847 16.6323 11.4812H16.3323H16.0323C16.0323 11.5832 16.0567 11.6875 16.1168 11.7819C16.1764 11.8756 16.2595 11.9414 16.3485 11.9859L16.4827 11.7175ZM16.3323 11.4812H16.6323C16.6323 11.3984 16.6444 11.3404 16.66 11.3005L16.3806 11.1912L16.1012 11.0818C16.0524 11.2067 16.0323 11.342 16.0323 11.4812H16.3323ZM16.3806 11.1912L16.6513 11.3206L16.7103 11.1971L16.4397 11.0676L16.1691 10.9382L16.11 11.0617L16.3806 11.1912ZM16.4397 11.0676L16.7182 11.179L16.772 11.0448L16.4934 10.9333L16.2149 10.8219L16.1612 10.9562L16.4397 11.0676ZM16.4934 10.9333H16.7934C16.7934 10.7418 16.7012 10.5039 16.5801 10.2573C16.4513 9.99502 16.262 9.66976 16.0158 9.28411L15.7629 9.44556L15.5101 9.607C15.7508 9.98405 15.9268 10.2881 16.0415 10.5217C16.1639 10.7711 16.1934 10.8958 16.1934 10.9333H16.4934ZM15.7629 9.44556L16.0157 9.28392C15.9147 9.12611 15.8243 8.99734 15.7459 8.90498C15.7073 8.85945 15.6641 8.81379 15.6174 8.77699C15.5822 8.74919 15.4934 8.68364 15.3708 8.68364V8.98364V9.28364C15.3205 9.28364 15.2847 9.26911 15.2694 9.26183C15.2607 9.25772 15.2546 9.25402 15.2512 9.2518C15.2477 9.24954 15.2459 9.2481 15.2458 9.24803C15.2457 9.24793 15.2467 9.24873 15.2489 9.25073C15.2511 9.25271 15.2541 9.25557 15.2579 9.25949C15.2658 9.26743 15.2759 9.27846 15.2885 9.29326C15.3408 9.35487 15.4142 9.45706 15.5102 9.60719L15.7629 9.44556ZM15.3708 8.98364V8.68364C15.2703 8.68364 15.1841 8.71875 15.1195 8.75564C15.0534 8.79331 14.9921 8.84301 14.9358 8.8965C14.8236 9.00321 14.7039 9.15188 14.5773 9.33243L14.823 9.50464L15.0686 9.67685C15.1856 9.51007 15.2789 9.39824 15.3493 9.33128C15.3844 9.29794 15.4067 9.28252 15.4168 9.27677C15.4282 9.27024 15.4105 9.28364 15.3708 9.28364V8.98364ZM14.823 9.50464L14.5772 9.3327C14.3705 9.62825 14.2105 9.87677 14.101 10.0756C14.0463 10.1749 14.0012 10.2671 13.9691 10.3502C13.9392 10.4277 13.9107 10.5216 13.9107 10.6165H14.2107H14.5107C14.5107 10.6326 14.5077 10.621 14.5288 10.5665C14.5477 10.5175 14.5792 10.4511 14.6266 10.3651C14.7211 10.1933 14.8673 9.96468 15.0688 9.67658L14.823 9.50464ZM14.2107 10.6165H13.9107C13.9107 10.8061 13.9409 10.9868 14.0063 11.1549L14.2859 11.0461L14.5655 10.9374C14.5306 10.8476 14.5107 10.7419 14.5107 10.6165H14.2107ZM14.2859 11.0461L14.0176 11.1803L14.0928 11.3307L14.3611 11.1965L14.6294 11.0624L14.5542 10.912L14.2859 11.0461ZM14.3611 11.1965L14.0914 11.3279C14.1231 11.393 14.1438 11.441 14.1558 11.4741C14.1618 11.4905 14.1644 11.4997 14.1653 11.5032C14.1666 11.5085 14.1631 11.4973 14.1631 11.4758H14.4631H14.7631C14.7631 11.3962 14.738 11.319 14.7194 11.2681C14.6975 11.2081 14.6671 11.1397 14.6308 11.0651L14.3611 11.1965ZM14.4631 11.4758H14.1631C14.1631 11.4658 14.1655 11.4486 14.175 11.4296C14.1843 11.411 14.1954 11.4009 14.1995 11.3977C14.2025 11.3953 14.1982 11.3995 14.1801 11.4062C14.1621 11.4129 14.135 11.4205 14.0961 11.4271L14.1462 11.7229L14.1964 12.0187C14.3246 11.9969 14.4596 11.9556 14.5684 11.8709C14.6908 11.7754 14.7631 11.6369 14.7631 11.4758H14.4631ZM14.1462 11.7229L14.0961 11.4271C13.9136 11.458 13.5249 11.4766 12.9055 11.4766V11.7766V12.0766C13.5179 12.0766 13.9563 12.0594 14.1964 12.0187L14.1462 11.7229ZM12.9055 11.7766V11.4766C12.6055 11.4766 12.411 11.4526 12.301 11.4187C12.1723 11.3791 12.2817 11.3739 12.2817 11.4919H11.9817H11.6817C11.6817 11.7998 11.9451 11.9369 12.1243 11.9921C12.3222 12.0531 12.5897 12.0766 12.9055 12.0766V11.7766ZM11.9817 11.4919H12.2817C12.2817 11.543 12.2662 11.576 12.2634 11.5819C12.2593 11.5905 12.258 11.5908 12.265 11.5813C12.2792 11.5621 12.3084 11.5288 12.3596 11.4792C12.4607 11.3813 12.6199 11.2467 12.8426 11.0735L12.6584 10.8367L12.4743 10.5999C12.2458 10.7775 12.0666 10.9277 11.9422 11.0481C11.8806 11.1078 11.8252 11.1671 11.783 11.224C11.7618 11.2526 11.7393 11.2867 11.7211 11.3251C11.7042 11.3608 11.6817 11.4194 11.6817 11.4919H11.9817ZM12.6584 10.8367L12.8447 11.0719C13.0495 10.9097 13.3222 10.5949 13.6544 10.1592L13.4158 9.97729L13.1772 9.79542C12.8434 10.2333 12.6111 10.4915 12.4722 10.6015L12.6584 10.8367ZM13.4158 9.97729L13.655 10.1583C14.063 9.61912 14.3731 9.18605 14.5823 8.86156C14.6866 8.6998 14.7695 8.5595 14.8274 8.44326C14.8563 8.38516 14.8814 8.32825 14.8998 8.27435C14.9169 8.22433 14.935 8.15797 14.935 8.08667H14.635H14.335C14.335 8.06191 14.3404 8.05598 14.3321 8.08026C14.3251 8.10066 14.3121 8.13193 14.2902 8.17588C14.2465 8.26374 14.177 8.38305 14.0781 8.53639C13.8809 8.84211 13.5814 9.26125 13.1765 9.79628L13.4158 9.97729ZM14.635 8.08667H14.935C14.935 7.95172 14.875 7.80351 14.814 7.67691C14.7461 7.53583 14.6481 7.36531 14.5235 7.16789C14.2737 6.77218 13.9031 6.2461 13.4144 5.59215L13.1741 5.77173L12.9338 5.95131C13.4191 6.60074 13.7788 7.11218 14.0161 7.48811C14.135 7.67652 14.2196 7.82536 14.2734 7.93717C14.3342 8.06346 14.335 8.10166 14.335 8.08667H14.635ZM13.1741 5.77173L13.4141 5.59173C13.1905 5.29366 12.9281 5.0426 12.6269 4.84049L12.4597 5.0896L12.2926 5.33871C12.5356 5.50184 12.7494 5.70552 12.9341 5.95173L13.1741 5.77173ZM12.4597 5.0896L12.6307 4.84306C12.5054 4.75621 12.4262 4.68752 12.3814 4.63735C12.3295 4.57921 12.3569 4.58345 12.3569 4.63843H12.0569H11.7569C11.7569 4.80799 11.8514 4.94471 11.9338 5.03696C12.0233 5.13719 12.1455 5.23679 12.2888 5.33614L12.4597 5.0896ZM12.0569 4.63843H12.3569C12.3569 4.64193 12.3561 4.65431 12.3487 4.67042C12.3412 4.68685 12.3313 4.69774 12.3249 4.70306C12.3197 4.70749 12.3206 4.70498 12.3343 4.69968C12.3481 4.69437 12.3708 4.68773 12.4053 4.68219L12.3577 4.38599L12.3101 4.08979C12.1833 4.11016 12.0478 4.15236 11.9392 4.24347C11.8181 4.34509 11.7569 4.48575 11.7569 4.63843H12.0569ZM12.3577 4.38599L12.4051 4.68222C12.7372 4.62908 13.3282 4.60005 14.1946 4.60005V4.30005V4.00005C13.3279 4.00005 12.6943 4.02831 12.3103 4.08975L12.3577 4.38599ZM14.1946 4.30005V4.60005H14.4309V4.30005V4.00005H14.1946V4.30005ZM14.4309 4.30005V4.60005C14.5663 4.60005 14.6328 4.62448 14.6604 4.64148L14.8176 4.38599L14.9749 4.13049C14.8163 4.03291 14.625 4.00005 14.4309 4.00005V4.30005ZM14.8176 4.38599L14.6719 4.64823C14.6631 4.64333 14.6558 4.63693 14.6508 4.63098C14.6462 4.62547 14.6461 4.62335 14.6481 4.62837C14.6531 4.64069 14.6626 4.67566 14.6626 4.74585H14.9626H15.2626C15.2626 4.52821 15.2078 4.25954 14.9633 4.12374L14.8176 4.38599ZM14.9626 4.74585H14.6626C14.6626 4.73649 14.6634 4.7295 14.6639 4.72541C14.6644 4.72125 14.665 4.71892 14.665 4.7187C14.6651 4.71861 14.6639 4.72336 14.66 4.73388C14.652 4.75542 14.637 4.78868 14.612 4.83563L14.8767 4.97681L15.1414 5.11798C15.1737 5.05752 15.2017 4.99857 15.2223 4.94312C15.2411 4.89271 15.2626 4.82226 15.2626 4.74585H14.9626ZM14.8767 4.97681L14.614 4.83188C14.5358 4.97372 14.4908 5.12698 14.4908 5.28833H14.7908H15.0908C15.0908 5.242 15.1031 5.18758 15.1394 5.12173L14.8767 4.97681ZM14.7908 5.28833H14.4908C14.4908 5.37334 14.5185 5.4548 14.5402 5.51035C14.5653 5.57449 14.6 5.64661 14.6413 5.72441C14.7242 5.88053 14.8449 6.08037 15.0008 6.32134L15.2527 6.15845L15.5046 5.99555C15.3525 5.76028 15.2423 5.57699 15.1712 5.44307C15.1355 5.37585 15.1125 5.32622 15.0991 5.2919C15.0823 5.24898 15.0908 5.25524 15.0908 5.28833H14.7908ZM15.2527 6.15845L15.0008 6.32134C15.1556 6.56086 15.2804 6.74559 15.3737 6.87217C15.4197 6.93451 15.4627 6.98931 15.5009 7.03095C15.5194 7.05106 15.5437 7.07584 15.5719 7.09792C15.586 7.10899 15.6076 7.1245 15.6353 7.13834C15.66 7.15069 15.7112 7.1728 15.7791 7.1728V6.8728V6.5728C15.8416 6.5728 15.8863 6.59305 15.9036 6.60168C15.9239 6.61181 15.937 6.62174 15.9416 6.62536C15.9508 6.63255 15.9519 6.63502 15.9431 6.62536C15.9267 6.60747 15.8985 6.57297 15.8568 6.51625C15.7746 6.40472 15.6577 6.23228 15.5046 5.99555L15.2527 6.15845Z" fill="url(#paint2_linear_78_7806)" mask="url(#path-3-outside-1_78_7806)"/>
</g>
<defs>
<filter id="filter0_i_78_7806" x="6.11279" y="0.942017" width="12.1245" height="13.6907" filterUnits="userSpaceOnUse" color-interpolation-filters="sRGB">
<feFlood flood-opacity="0" result="BackgroundImageFix"/>
<feBlend mode="normal" in="SourceGraphic" in2="BackgroundImageFix" result="shape"/>
<feColorMatrix in="SourceAlpha" type="matrix" values="0 0 0 0 0 0 0 0 0 0 0 0 0 0 0 0 0 0 127 0" result="hardAlpha"/>
<feOffset/>
<feGaussianBlur stdDeviation="2.9"/>
<feComposite in2="hardAlpha" operator="arithmetic" k2="-1" k3="1"/>
<feColorMatrix type="matrix" values="0 0 0 0 1 0 0 0 0 1 0 0 0 0 1 0 0 0 0.8 0"/>
<feBlend mode="normal" in2="shape" result="effect1_innerShadow_78_7806"/>
</filter>
<filter id="filter1_di_78_7806" x="0" y="0" width="23.5864" height="16.0928" filterUnits="userSpaceOnUse" color-interpolation-filters="sRGB">
<feFlood flood-opacity="0" result="BackgroundImageFix"/>
<feColorMatrix in="SourceAlpha" type="matrix" values="0 0 0 0 0 0 0 0 0 0 0 0 0 0 0 0 0 0 127 0" result="hardAlpha"/>
<feOffset/>
<feGaussianBlur stdDeviation="2"/>
<feComposite in2="hardAlpha" operator="out"/>
<feColorMatrix type="matrix" values="0 0 0 0 1 0 0 0 0 0 0 0 0 0 0.1 0 0 0 0.69 0"/>
<feBlend mode="normal" in2="BackgroundImageFix" result="effect1_dropShadow_78_7806"/>
<feBlend mode="normal" in="SourceGraphic" in2="effect1_dropShadow_78_7806" result="shape"/>
<feColorMatrix in="SourceAlpha" type="matrix" values="0 0 0 0 0 0 0 0 0 0 0 0 0 0 0 0 0 0 127 0" result="hardAlpha"/>
<feOffset dy="4"/>
<feGaussianBlur stdDeviation="2"/>
<feComposite in2="hardAlpha" operator="arithmetic" k2="-1" k3="1"/>
<feColorMatrix type="matrix" values="0 0 0 0 1 0 0 0 0 1 0 0 0 0 1 0 0 0 0.5 0"/>
<feBlend mode="normal" in2="shape" result="effect2_innerShadow_78_7806"/>
</filter>
<radialGradient id="paint0_radial_78_7806" cx="0" cy="0" r="1" gradientTransform="matrix(13.8693 12.5034 -11.8844 9.5418 5.97772 0.787353)" gradientUnits="userSpaceOnUse">
<stop stop-color="#2B3071"/>
<stop offset="0.5" stop-color="#D645C3"/>
<stop offset="0.75" stop-color="#FEAA44"/>
<stop offset="1" stop-color="#FDE01C"/>
</radialGradient>
<linearGradient id="paint1_linear_78_7806" x1="11.675" y1="2.78735" x2="11.675" y2="12.7874" gradientUnits="userSpaceOnUse">
<stop offset="0.100962" stop-color="#53D1FF"/>
<stop offset="0.331731" stop-color="#FF51EE"/>
<stop offset="0.673077" stop-color="#FFED47"/>
<stop offset="0.879808" stop-color="#53D1FF"/>
</linearGradient>
<linearGradient id="paint2_linear_78_7806" x1="11.675" y1="2.78735" x2="11.675" y2="12.7874" gradientUnits="userSpaceOnUse">
<stop offset="0.100962" stop-color="#53D1FF"/>
<stop offset="0.331731" stop-color="#FF51EE"/>
<stop offset="0.673077" stop-color="#FFED47"/>
<stop offset="0.879808" stop-color="#53D1FF"/>
</linearGradient>
<pattern id="pattern0_78_7806" patternUnits="userSpaceOnUse" patternTransform="matrix(28.2 0 0 28.2 6.11287 0.897396)" preserveAspectRatio="none" viewBox="0 0 56.4 56.4" width="1" height="1">
<g id="pattern0_78_7806_inner">
<rect opacity="0.8" width="8" height="8" rx="2" fill="white"/>
</g>
</pattern></defs>
</svg>
