<svg width="14" height="16" viewBox="0 0 14 16" fill="none" xmlns="http://www.w3.org/2000/svg">
<path d="M6.5 0.981546C6.8094 0.802913 7.1906 0.802913 7.5 0.981546L12.5622 3.9042C12.8716 4.08283 13.0622 4.41296 13.0622 4.77022V10.6155C13.0622 10.9728 12.8716 11.3029 12.5622 11.4815L7.5 14.4042C7.1906 14.5828 6.8094 14.5828 6.5 14.4042L1.43782 11.4815C1.12842 11.3029 0.937822 10.9728 0.937822 10.6155V4.77022C0.937822 4.41296 1.12842 4.08283 1.43782 3.9042L6.5 0.981546Z" fill="#FF1AFB"/>
<g filter="url(#filter0_d_78_7828)">
<mask id="path-2-outside-1_78_7828" maskUnits="userSpaceOnUse" x="5" y="3.69287" width="4" height="9" fill="black">
<rect fill="white" x="5" y="3.69287" width="4" height="9"/>
<path d="M6.07617 11.623C5.61784 11.623 5.38867 11.5496 5.38867 11.4028C5.38867 11.256 5.50684 11.1003 5.74316 10.9355C5.98307 10.7673 6.12988 10.5793 6.18359 10.3716C6.2373 10.1639 6.26416 9.34391 6.26416 7.91162C6.26416 6.47575 6.24984 5.70231 6.22119 5.59131C6.15674 5.33708 6.03499 5.1473 5.85596 5.02197C5.53011 4.79281 5.36719 4.61377 5.36719 4.48486V4.40967C5.36719 4.28076 5.81836 4.21631 6.7207 4.21631L7.08594 4.2002H7.45117L7.57471 4.20557H7.69824C8.10645 4.20557 8.35352 4.22168 8.43945 4.25391C8.52897 4.28255 8.57373 4.37386 8.57373 4.52783C8.57373 4.62093 8.44124 4.7749 8.17627 4.98975C8.03304 5.10791 7.93636 5.2762 7.88623 5.49463C7.8361 5.71305 7.81104 6.55632 7.81104 8.02441C7.81104 9.49251 7.83073 10.3071 7.87012 10.4683C7.90951 10.6294 8.03841 10.8031 8.25684 10.9893C8.47526 11.1755 8.58447 11.3294 8.58447 11.4512C8.58447 11.5944 8.44124 11.666 8.15479 11.666H7.77881L7.65527 11.6606H7.40283L7.0376 11.6499L6.5542 11.6392L6.31787 11.6284C6.2391 11.6248 6.15853 11.623 6.07617 11.623Z"/>
</mask>
<path d="M6.07617 11.623C5.61784 11.623 5.38867 11.5496 5.38867 11.4028C5.38867 11.256 5.50684 11.1003 5.74316 10.9355C5.98307 10.7673 6.12988 10.5793 6.18359 10.3716C6.2373 10.1639 6.26416 9.34391 6.26416 7.91162C6.26416 6.47575 6.24984 5.70231 6.22119 5.59131C6.15674 5.33708 6.03499 5.1473 5.85596 5.02197C5.53011 4.79281 5.36719 4.61377 5.36719 4.48486V4.40967C5.36719 4.28076 5.81836 4.21631 6.7207 4.21631L7.08594 4.2002H7.45117L7.57471 4.20557H7.69824C8.10645 4.20557 8.35352 4.22168 8.43945 4.25391C8.52897 4.28255 8.57373 4.37386 8.57373 4.52783C8.57373 4.62093 8.44124 4.7749 8.17627 4.98975C8.03304 5.10791 7.93636 5.2762 7.88623 5.49463C7.8361 5.71305 7.81104 6.55632 7.81104 8.02441C7.81104 9.49251 7.83073 10.3071 7.87012 10.4683C7.90951 10.6294 8.03841 10.8031 8.25684 10.9893C8.47526 11.1755 8.58447 11.3294 8.58447 11.4512C8.58447 11.5944 8.44124 11.666 8.15479 11.666H7.77881L7.65527 11.6606H7.40283L7.0376 11.6499L6.5542 11.6392L6.31787 11.6284C6.2391 11.6248 6.15853 11.623 6.07617 11.623Z" fill="#F0B1ED"/>
<path d="M5.74316 10.9355L5.85752 11.0996L5.85802 11.0993L5.74316 10.9355ZM6.22119 5.59131L6.02732 5.64046L6.02754 5.64128L6.22119 5.59131ZM5.85596 5.02197L5.7409 5.18557L5.74126 5.18582L5.85596 5.02197ZM6.7207 4.21631V4.4165L6.72952 4.41611L6.7207 4.21631ZM7.08594 4.2002V4L7.07712 4.00039L7.08594 4.2002ZM7.45117 4.2002L7.45987 4.0002H7.45117V4.2002ZM7.57471 4.20557L7.56601 4.40557H7.57471V4.20557ZM8.43945 4.25391L8.36914 4.4414L8.3785 4.44439L8.43945 4.25391ZM8.17627 4.98975L8.0503 4.83439L8.04899 4.83547L8.17627 4.98975ZM7.77881 11.666L7.77011 11.866H7.77881V11.666ZM7.65527 11.6606L7.66397 11.4606H7.65527V11.6606ZM7.40283 11.6606L7.39695 11.8606H7.40283V11.6606ZM7.0376 11.6499L7.04348 11.45L7.04204 11.45L7.0376 11.6499ZM6.5542 11.6392L6.54512 11.839L6.54976 11.8391L6.5542 11.6392ZM6.07617 11.623V11.423C5.85255 11.423 5.70587 11.4045 5.62156 11.3775C5.5285 11.3477 5.58867 11.3387 5.58867 11.4028H5.38867H5.18867C5.18867 11.6137 5.36343 11.7149 5.49954 11.7585C5.64439 11.8049 5.84146 11.823 6.07617 11.823V11.623ZM5.38867 11.4028H5.58867C5.58867 11.3636 5.62695 11.2603 5.85752 11.0996L5.74316 10.9355L5.62881 10.7715C5.38672 10.9402 5.18867 11.1484 5.18867 11.4028H5.38867ZM5.74316 10.9355L5.85802 11.0993C6.1226 10.9137 6.30787 10.6898 6.37722 10.4217L6.18359 10.3716L5.98996 10.3215C5.9519 10.4687 5.84355 10.6208 5.62831 10.7718L5.74316 10.9355ZM6.18359 10.3716L6.37722 10.4217C6.39549 10.351 6.40816 10.2451 6.41823 10.1166C6.42863 9.98394 6.43715 9.81386 6.44391 9.60738C6.45744 9.19418 6.46416 8.6286 6.46416 7.91162H6.26416H6.06416C6.06416 8.62693 6.05745 9.1875 6.04413 9.59428C6.03746 9.79779 6.02919 9.96117 6.01945 10.0854C6.00938 10.2138 5.99855 10.2883 5.98996 10.3215L6.18359 10.3716ZM6.26416 7.91162H6.46416C6.46416 7.1933 6.46058 6.63952 6.45338 6.25094C6.44979 6.05681 6.44527 5.90256 6.43975 5.78906C6.43474 5.68575 6.42825 5.59328 6.41485 5.54133L6.22119 5.59131L6.02754 5.64128C6.02663 5.63775 6.02894 5.64737 6.03208 5.68204C6.03486 5.71271 6.03761 5.75456 6.04023 5.80847C6.04545 5.91609 6.04989 6.06575 6.05345 6.25834C6.06058 6.6432 6.06416 7.19407 6.06416 7.91162H6.26416ZM6.22119 5.59131L6.41506 5.54216C6.34129 5.25118 6.19649 5.01622 5.97065 4.85813L5.85596 5.02197L5.74126 5.18582C5.87349 5.27838 5.97219 5.42297 6.02732 5.64046L6.22119 5.59131ZM5.85596 5.02197L5.97101 4.85838C5.81345 4.74757 5.70464 4.65521 5.6373 4.58121C5.56336 4.49996 5.56719 4.47111 5.56719 4.48486H5.36719H5.16719C5.16719 4.62752 5.25247 4.75264 5.34146 4.85043C5.43704 4.95547 5.57262 5.06721 5.7409 5.18557L5.85596 5.02197ZM5.36719 4.48486H5.56719V4.40967H5.36719H5.16719V4.48486H5.36719ZM5.36719 4.40967H5.56719C5.56719 4.51178 5.47958 4.53075 5.53057 4.5089C5.56249 4.49522 5.6263 4.478 5.73385 4.46264C5.9449 4.43249 6.27172 4.41631 6.7207 4.41631V4.21631V4.01631C6.26734 4.01631 5.9174 4.03236 5.67728 4.06666C5.55925 4.08352 5.45387 4.10659 5.373 4.14124C5.31119 4.16773 5.16719 4.2431 5.16719 4.40967H5.36719ZM6.7207 4.21631L6.72952 4.41611L7.09475 4.4L7.08594 4.2002L7.07712 4.00039L6.71189 4.0165L6.7207 4.21631ZM7.08594 4.2002V4.4002H7.45117V4.2002V4.0002H7.08594V4.2002ZM7.45117 4.2002L7.44248 4.40001L7.56602 4.40538L7.57471 4.20557L7.58339 4.00575L7.45986 4.00038L7.45117 4.2002ZM7.57471 4.20557V4.40557H7.69824V4.20557V4.00557H7.57471V4.20557ZM7.69824 4.20557V4.40557C7.90039 4.40557 8.05934 4.40957 8.17668 4.41723C8.23539 4.42106 8.28145 4.42566 8.31606 4.43068C8.33327 4.43318 8.34642 4.43561 8.35607 4.43777C8.36614 4.44002 8.36987 4.44141 8.36923 4.44117L8.43945 4.25391L8.50968 4.06664C8.43517 4.0387 8.32342 4.02595 8.20271 4.01808C8.07298 4.00961 7.9043 4.00557 7.69824 4.00557V4.20557ZM8.43945 4.25391L8.3785 4.44439C8.37535 4.44338 8.37002 4.44082 8.36496 4.43629C8.36016 4.43201 8.35928 4.42926 8.36058 4.4319C8.3644 4.4397 8.37373 4.46707 8.37373 4.52783H8.57373H8.77373C8.77373 4.35119 8.72088 4.13397 8.50041 4.06342L8.43945 4.25391ZM8.57373 4.52783H8.37373C8.37373 4.50561 8.38085 4.49923 8.37263 4.51455C8.36527 4.52828 8.35022 4.55078 8.32276 4.58269C8.26777 4.64659 8.17885 4.73017 8.05031 4.83439L8.17627 4.98975L8.30223 5.1451C8.43866 5.03448 8.54847 4.93365 8.62597 4.84358C8.66475 4.79851 8.69939 4.75162 8.72515 4.70359C8.75005 4.65714 8.77373 4.5966 8.77373 4.52783H8.57373ZM8.17627 4.98975L8.04899 4.83547C7.86516 4.98714 7.74919 5.19765 7.6913 5.44989L7.88623 5.49463L8.08116 5.53937C8.12353 5.35476 8.20092 5.22868 8.30355 5.14402L8.17627 4.98975ZM7.88623 5.49463L7.6913 5.44989C7.66089 5.5824 7.64226 5.86992 7.62992 6.28495C7.6173 6.70949 7.61104 7.2896 7.61104 8.02441H7.81104H8.01103C8.01103 7.29113 8.0173 6.71556 8.02975 6.29684C8.04247 5.8686 8.06144 5.62529 8.08116 5.53937L7.88623 5.49463ZM7.81104 8.02441H7.61104C7.61104 8.75902 7.61596 9.33157 7.62586 9.74128C7.63081 9.946 7.63704 10.1115 7.64463 10.237C7.65185 10.3561 7.66103 10.4552 7.67584 10.5158L7.87012 10.4683L8.0644 10.4208C8.05951 10.4008 8.05146 10.3376 8.0439 10.2128C8.03673 10.0943 8.03065 9.93421 8.02575 9.73162C8.01596 9.32671 8.01103 8.75791 8.01103 8.02441H7.81104ZM7.87012 10.4683L7.67584 10.5158C7.73017 10.738 7.89751 10.9458 8.12709 11.1415L8.25684 10.9893L8.38658 10.8371C8.17932 10.6604 8.08884 10.5208 8.0644 10.4208L7.87012 10.4683ZM8.25684 10.9893L8.12709 11.1415C8.22951 11.2288 8.29799 11.3017 8.33943 11.3601C8.38236 11.4206 8.38447 11.4489 8.38447 11.4512H8.58447H8.78447C8.78447 11.3317 8.73198 11.2221 8.66569 11.1287C8.59793 11.0331 8.50259 10.9359 8.38658 10.8371L8.25684 10.9893ZM8.58447 11.4512H8.38447C8.38447 11.452 8.38484 11.4438 8.39121 11.4342C8.39674 11.4259 8.39969 11.4274 8.38761 11.4334C8.35779 11.4483 8.2878 11.466 8.15479 11.466V11.666V11.866C8.30823 11.866 8.45309 11.8479 8.56649 11.7912C8.62603 11.7614 8.68269 11.7181 8.72403 11.6561C8.7662 11.5929 8.78447 11.522 8.78447 11.4512H8.58447ZM8.15479 11.666V11.466H7.77881V11.666V11.866H8.15479V11.666ZM7.77881 11.666L7.7875 11.4662L7.66396 11.4608L7.65527 11.6606L7.64659 11.8605L7.77012 11.8658L7.77881 11.666ZM7.65527 11.6606V11.4606H7.40283V11.6606V11.8606H7.65527V11.6606ZM7.40283 11.6606L7.40871 11.4607L7.04348 11.45L7.0376 11.6499L7.03172 11.8498L7.39695 11.8606L7.40283 11.6606ZM7.0376 11.6499L7.04204 11.45L6.55864 11.4392L6.5542 11.6392L6.54976 11.8391L7.03315 11.8499L7.0376 11.6499ZM6.5542 11.6392L6.56328 11.4394L6.32695 11.4286L6.31787 11.6284L6.30879 11.8282L6.54512 11.839L6.5542 11.6392ZM6.31787 11.6284L6.32695 11.4286C6.24502 11.4249 6.16142 11.423 6.07617 11.423V11.623V11.823C6.15563 11.823 6.23317 11.8248 6.30879 11.8282L6.31787 11.6284Z" fill="#F0B1ED" mask="url(#path-2-outside-1_78_7828)"/>
</g>
<defs>
<filter id="filter0_d_78_7828" x="1.16724" y="0" width="11.6172" height="15.866" filterUnits="userSpaceOnUse" color-interpolation-filters="sRGB">
<feFlood flood-opacity="0" result="BackgroundImageFix"/>
<feColorMatrix in="SourceAlpha" type="matrix" values="0 0 0 0 0 0 0 0 0 0 0 0 0 0 0 0 0 0 127 0" result="hardAlpha"/>
<feOffset/>
<feGaussianBlur stdDeviation="2"/>
<feComposite in2="hardAlpha" operator="out"/>
<feColorMatrix type="matrix" values="0 0 0 0 0 0 0 0 0 0 0 0 0 0 0 0 0 0 0.8 0"/>
<feBlend mode="normal" in2="BackgroundImageFix" result="effect1_dropShadow_78_7828"/>
<feBlend mode="normal" in="SourceGraphic" in2="effect1_dropShadow_78_7828" result="shape"/>
</filter>
</defs>
</svg>
