<svg width="21" height="16" viewBox="0 0 21 16" fill="none" xmlns="http://www.w3.org/2000/svg">
<path d="M10.1511 0.981546C10.4605 0.802913 10.8417 0.802913 11.1511 0.981546L16.2133 3.9042C16.5227 4.08283 16.7133 4.41296 16.7133 4.77022V10.6155C16.7133 10.9728 16.5227 11.3029 16.2133 11.4815L11.1511 14.4042C10.8417 14.5828 10.4605 14.5828 10.1511 14.4042L5.08895 11.4815C4.77954 11.3029 4.58895 10.9728 4.58895 10.6155V4.77022C4.58895 4.41296 4.77954 4.08283 5.08895 3.9042L10.1511 0.981546Z" fill="#7B34D8"/>
<g filter="url(#filter0_d_78_7805)">
<mask id="path-2-outside-1_78_7805" maskUnits="userSpaceOnUse" x="3.65112" y="3.69287" width="14" height="9" fill="black">
<rect fill="white" x="3.65112" y="3.69287" width="14" height="9"/>
<path d="M6.09058 4.23779C6.73511 4.23779 7.05737 4.35238 7.05737 4.58154C7.05737 4.6818 7.02336 4.7946 6.95532 4.91992C6.88729 5.04167 6.85327 5.18311 6.85327 5.34424C6.85327 5.50537 6.91235 5.76676 7.03052 6.12842C7.52466 7.6359 7.86841 8.62419 8.06177 9.09326C8.25513 9.56234 8.36971 9.79688 8.40552 9.79688C8.50936 9.79688 8.86743 8.85156 9.47974 6.96094C9.71606 6.23047 9.83423 5.67725 9.83423 5.30127C9.83423 5.21175 9.78052 5.07568 9.6731 4.89307C9.56925 4.71045 9.51733 4.59587 9.51733 4.54932C9.51733 4.43115 9.58179 4.35059 9.71069 4.30762C9.84318 4.26107 10.1064 4.23779 10.5002 4.23779H10.8762C11.2808 4.23779 11.5404 4.27002 11.655 4.33447C11.7732 4.39535 11.8323 4.48128 11.8323 4.59229C11.8323 4.70329 11.7159 4.8501 11.4832 5.03271C11.2504 5.21533 11.0785 5.42122 10.9675 5.65039C10.946 5.69336 10.613 6.58675 9.96851 8.33057C9.32756 10.0708 8.91935 11.0824 8.7439 11.3652C8.57202 11.6481 8.29272 11.7896 7.90601 11.7896C7.684 11.7896 7.46916 11.5532 7.26147 11.0806C7.14331 10.8156 6.78166 9.89535 6.17651 8.31982L5.64478 6.92871C5.55526 6.69596 5.455 6.43099 5.34399 6.13379C5.23299 5.83301 5.15422 5.6307 5.10767 5.52686C5.01815 5.3335 4.84448 5.16162 4.58667 5.01123C4.32886 4.85726 4.19995 4.71224 4.19995 4.57617C4.19995 4.43652 4.2286 4.35238 4.28589 4.32373C4.39689 4.26644 4.94116 4.23779 5.9187 4.23779H6.09058ZM14.175 11.623C13.7167 11.623 13.4875 11.5496 13.4875 11.4028C13.4875 11.256 13.6057 11.1003 13.842 10.9355C14.0819 10.7673 14.2288 10.5793 14.2825 10.3716C14.3362 10.1639 14.363 9.34391 14.363 7.91162C14.363 6.47575 14.3487 5.70231 14.3201 5.59131C14.2556 5.33708 14.1339 5.1473 13.9548 5.02197C13.629 4.79281 13.4661 4.61377 13.4661 4.48486V4.40967C13.4661 4.28076 13.9172 4.21631 14.8196 4.21631L15.1848 4.2002H15.55L15.6736 4.20557H15.7971C16.2053 4.20557 16.4524 4.22168 16.5383 4.25391C16.6278 4.28255 16.6726 4.37386 16.6726 4.52783C16.6726 4.62093 16.5401 4.7749 16.2751 4.98975C16.1319 5.10791 16.0352 5.2762 15.9851 5.49463C15.935 5.71305 15.9099 6.55632 15.9099 8.02441C15.9099 9.49251 15.9296 10.3071 15.969 10.4683C16.0084 10.6294 16.1373 10.8031 16.3557 10.9893C16.5741 11.1755 16.6833 11.3294 16.6833 11.4512C16.6833 11.5944 16.5401 11.666 16.2537 11.666H15.8777L15.7542 11.6606H15.5017L15.1365 11.6499L14.6531 11.6392L14.4167 11.6284C14.338 11.6248 14.2574 11.623 14.175 11.623Z"/>
</mask>
<path d="M6.09058 4.23779C6.73511 4.23779 7.05737 4.35238 7.05737 4.58154C7.05737 4.6818 7.02336 4.7946 6.95532 4.91992C6.88729 5.04167 6.85327 5.18311 6.85327 5.34424C6.85327 5.50537 6.91235 5.76676 7.03052 6.12842C7.52466 7.6359 7.86841 8.62419 8.06177 9.09326C8.25513 9.56234 8.36971 9.79688 8.40552 9.79688C8.50936 9.79688 8.86743 8.85156 9.47974 6.96094C9.71606 6.23047 9.83423 5.67725 9.83423 5.30127C9.83423 5.21175 9.78052 5.07568 9.6731 4.89307C9.56925 4.71045 9.51733 4.59587 9.51733 4.54932C9.51733 4.43115 9.58179 4.35059 9.71069 4.30762C9.84318 4.26107 10.1064 4.23779 10.5002 4.23779H10.8762C11.2808 4.23779 11.5404 4.27002 11.655 4.33447C11.7732 4.39535 11.8323 4.48128 11.8323 4.59229C11.8323 4.70329 11.7159 4.8501 11.4832 5.03271C11.2504 5.21533 11.0785 5.42122 10.9675 5.65039C10.946 5.69336 10.613 6.58675 9.96851 8.33057C9.32756 10.0708 8.91935 11.0824 8.7439 11.3652C8.57202 11.6481 8.29272 11.7896 7.90601 11.7896C7.684 11.7896 7.46916 11.5532 7.26147 11.0806C7.14331 10.8156 6.78166 9.89535 6.17651 8.31982L5.64478 6.92871C5.55526 6.69596 5.455 6.43099 5.34399 6.13379C5.23299 5.83301 5.15422 5.6307 5.10767 5.52686C5.01815 5.3335 4.84448 5.16162 4.58667 5.01123C4.32886 4.85726 4.19995 4.71224 4.19995 4.57617C4.19995 4.43652 4.2286 4.35238 4.28589 4.32373C4.39689 4.26644 4.94116 4.23779 5.9187 4.23779H6.09058ZM14.175 11.623C13.7167 11.623 13.4875 11.5496 13.4875 11.4028C13.4875 11.256 13.6057 11.1003 13.842 10.9355C14.0819 10.7673 14.2288 10.5793 14.2825 10.3716C14.3362 10.1639 14.363 9.34391 14.363 7.91162C14.363 6.47575 14.3487 5.70231 14.3201 5.59131C14.2556 5.33708 14.1339 5.1473 13.9548 5.02197C13.629 4.79281 13.4661 4.61377 13.4661 4.48486V4.40967C13.4661 4.28076 13.9172 4.21631 14.8196 4.21631L15.1848 4.2002H15.55L15.6736 4.20557H15.7971C16.2053 4.20557 16.4524 4.22168 16.5383 4.25391C16.6278 4.28255 16.6726 4.37386 16.6726 4.52783C16.6726 4.62093 16.5401 4.7749 16.2751 4.98975C16.1319 5.10791 16.0352 5.2762 15.9851 5.49463C15.935 5.71305 15.9099 6.55632 15.9099 8.02441C15.9099 9.49251 15.9296 10.3071 15.969 10.4683C16.0084 10.6294 16.1373 10.8031 16.3557 10.9893C16.5741 11.1755 16.6833 11.3294 16.6833 11.4512C16.6833 11.5944 16.5401 11.666 16.2537 11.666H15.8777L15.7542 11.6606H15.5017L15.1365 11.6499L14.6531 11.6392L14.4167 11.6284C14.338 11.6248 14.2574 11.623 14.175 11.623Z" fill="#BB99FF"/>
<path d="M6.95532 4.91992L7.12992 5.01749L7.13109 5.01534L6.95532 4.91992ZM7.03052 6.12842L6.84041 6.19053L6.84047 6.19071L7.03052 6.12842ZM8.06177 9.09326L7.87686 9.16948L8.06177 9.09326ZM9.47974 6.96094L9.67001 7.02256L9.67003 7.0225L9.47974 6.96094ZM9.6731 4.89307L9.49922 4.99194L9.50071 4.99447L9.6731 4.89307ZM9.71069 4.30762L9.77395 4.49738L9.77699 4.49631L9.71069 4.30762ZM11.655 4.33447L11.5569 4.50891L11.5634 4.51227L11.655 4.33447ZM10.9675 5.65039L11.1464 5.73984L11.1475 5.73758L10.9675 5.65039ZM9.96851 8.33057L9.78091 8.26123L9.78083 8.26144L9.96851 8.33057ZM8.7439 11.3652L8.57393 11.2598L8.57297 11.2614L8.7439 11.3652ZM7.26147 11.0806L7.44458 11.0001L7.44413 10.9991L7.26147 11.0806ZM6.17651 8.31982L5.9897 8.39123L5.98981 8.39153L6.17651 8.31982ZM5.64478 6.92871L5.83159 6.8573L5.83144 6.85691L5.64478 6.92871ZM5.34399 6.13379L5.15636 6.20303L5.15664 6.20377L5.34399 6.13379ZM5.10767 5.52686L5.29018 5.44504L5.28916 5.44283L5.10767 5.52686ZM4.58667 5.01123L4.48412 5.18295L4.4859 5.18399L4.58667 5.01123ZM4.28589 4.32373L4.37534 4.50263L4.37762 4.50145L4.28589 4.32373ZM6.09058 4.23779V4.43779C6.40649 4.43779 6.62045 4.46658 6.74867 4.51217C6.8118 4.53462 6.84018 4.55635 6.85104 4.56794C6.85765 4.57499 6.85737 4.57662 6.85737 4.58154H7.05737H7.25737C7.25737 4.47188 7.21681 4.37325 7.14286 4.29436C7.07315 4.22002 6.98068 4.17013 6.88268 4.13529C6.68863 4.06629 6.41919 4.03779 6.09058 4.03779V4.23779ZM7.05737 4.58154H6.85737C6.85737 4.63737 6.838 4.71684 6.77955 4.8245L6.95532 4.91992L7.13109 5.01534C7.20872 4.87235 7.25737 4.72624 7.25737 4.58154H7.05737ZM6.95532 4.91992L6.78073 4.82236C6.6936 4.97827 6.65327 5.15431 6.65327 5.34424H6.85327H7.05327C7.05327 5.2119 7.08097 5.10506 7.12991 5.01749L6.95532 4.91992ZM6.85327 5.34424H6.65327C6.65327 5.54033 6.72218 5.82868 6.84041 6.19053L7.03052 6.12842L7.22063 6.0663C7.10253 5.70485 7.05327 5.47041 7.05327 5.34424H6.85327ZM7.03052 6.12842L6.84047 6.19071C7.33415 7.6968 7.68017 8.69233 7.87686 9.16948L8.06177 9.09326L8.24667 9.01704C8.05665 8.55605 7.71517 7.57501 7.22057 6.06612L7.03052 6.12842ZM8.06177 9.09326L7.87686 9.16948C7.97395 9.40502 8.05287 9.58565 8.11302 9.70876C8.14268 9.76946 8.17041 9.82168 8.19553 9.86086C8.20759 9.87966 8.2236 9.90272 8.24315 9.92337C8.25289 9.93366 8.26851 9.94873 8.28981 9.96242C8.30944 9.97502 8.34999 9.99687 8.40552 9.99687V9.79688V9.59688C8.45656 9.59688 8.49203 9.6169 8.50595 9.62584C8.52155 9.63585 8.53085 9.64544 8.53365 9.64839C8.53932 9.65439 8.53899 9.65546 8.53225 9.64494C8.51977 9.62548 8.50006 9.58975 8.47243 9.53318C8.41799 9.42176 8.34294 9.25058 8.24667 9.01704L8.06177 9.09326ZM8.40552 9.79688V9.99687C8.48495 9.99687 8.53877 9.95452 8.55935 9.93659C8.58478 9.91443 8.60478 9.88906 8.61958 9.86817C8.64985 9.82543 8.68031 9.76975 8.71076 9.70743C8.77265 9.58079 8.84888 9.39661 8.93898 9.15874C9.11981 8.68137 9.36361 7.96862 9.67001 7.02256L9.47974 6.96094L9.28947 6.89932C8.98356 7.84388 8.74217 8.5491 8.56492 9.01705C8.47599 9.25183 8.40497 9.42214 8.35137 9.53182C8.32408 9.58768 8.30475 9.62061 8.29317 9.63696C8.28704 9.64561 8.2881 9.64239 8.29658 9.635C8.30022 9.63184 8.33907 9.59688 8.40552 9.59688V9.79688ZM9.47974 6.96094L9.67003 7.0225C9.90754 6.28837 10.0342 5.71022 10.0342 5.30127H9.83423H9.63423C9.63423 5.64427 9.52459 6.17256 9.28945 6.89937L9.47974 6.96094ZM9.83423 5.30127H10.0342C10.0342 5.22045 10.011 5.13712 9.97998 5.05865C9.94803 4.97772 9.90235 4.88833 9.84548 4.79166L9.6731 4.89307L9.50071 4.99447C9.55127 5.08042 9.58615 5.15037 9.60791 5.20551C9.63065 5.2631 9.63423 5.29257 9.63423 5.30127H9.83423ZM9.6731 4.89307L9.84695 4.79421C9.79634 4.7052 9.76078 4.6369 9.73845 4.58762C9.72725 4.56291 9.72077 4.54602 9.71743 4.53565C9.71301 4.52191 9.71733 4.52961 9.71733 4.54932H9.51733H9.31733C9.31733 4.5923 9.32815 4.63177 9.33671 4.65832C9.34635 4.68824 9.35934 4.72013 9.3741 4.75271C9.40369 4.81801 9.44601 4.89831 9.49924 4.99193L9.6731 4.89307ZM9.51733 4.54932H9.71733C9.71733 4.53802 9.71886 4.53193 9.71966 4.52944C9.72037 4.52727 9.72101 4.52626 9.72185 4.52521C9.72346 4.52319 9.73468 4.51044 9.77394 4.49735L9.71069 4.30762L9.64745 4.11788C9.5578 4.14776 9.47234 4.19678 9.4095 4.27533C9.34485 4.35614 9.31733 4.45176 9.31733 4.54932H9.51733ZM9.71069 4.30762L9.77699 4.49631C9.81927 4.48145 9.89823 4.46569 10.0251 4.45447C10.1487 4.44354 10.3066 4.43779 10.5002 4.43779V4.23779V4.03779C10.3 4.03779 10.1294 4.04369 9.98983 4.05603C9.85347 4.06809 9.7346 4.08723 9.6444 4.11893L9.71069 4.30762ZM10.5002 4.23779V4.43779H10.8762V4.23779V4.03779H10.5002V4.23779ZM10.8762 4.23779V4.43779C11.0742 4.43779 11.2313 4.44573 11.3498 4.46044C11.4742 4.47589 11.5352 4.49655 11.557 4.50879L11.655 4.33447L11.7531 4.16016C11.6603 4.10794 11.5342 4.08027 11.399 4.06349C11.2579 4.04597 11.0828 4.03779 10.8762 4.03779V4.23779ZM11.655 4.33447L11.5634 4.51227C11.6309 4.54702 11.6323 4.57249 11.6323 4.59229H11.8323H12.0323C12.0323 4.39008 11.9155 4.24367 11.7466 4.15668L11.655 4.33447ZM11.8323 4.59229H11.6323C11.6323 4.58082 11.636 4.6012 11.5883 4.66141C11.5438 4.71755 11.47 4.78886 11.3597 4.87537L11.4832 5.03271L11.6066 5.19006C11.7291 5.09395 11.8299 5.00055 11.9017 4.90988C11.9704 4.82328 12.0323 4.71476 12.0323 4.59229H11.8323ZM11.4832 5.03271L11.3597 4.87537C11.1069 5.07373 10.9138 5.30255 10.7875 5.5632L10.9675 5.65039L11.1475 5.73758C11.2433 5.5399 11.3939 5.35693 11.6066 5.19006L11.4832 5.03271ZM10.9675 5.65039L10.7886 5.56095C10.7807 5.57691 10.7689 5.60713 10.7585 5.63389C10.7457 5.66667 10.7282 5.71255 10.706 5.77126C10.6615 5.88879 10.5975 6.05937 10.5143 6.28281C10.3477 6.72977 10.1032 7.38928 9.78091 8.26123L9.96851 8.33057L10.1561 8.3999C10.4784 7.52804 10.7227 6.86895 10.8891 6.42252C10.9723 6.19926 11.0359 6.02944 11.08 5.91288C11.1021 5.85454 11.1192 5.80996 11.1313 5.77884C11.1457 5.74171 11.149 5.73462 11.1464 5.73983L10.9675 5.65039ZM9.96851 8.33057L9.78083 8.26144C9.46065 9.13077 9.19916 9.81654 8.99617 10.3196C8.79055 10.8291 8.65089 11.1357 8.57394 11.2598L8.7439 11.3652L8.91386 11.4707C9.01236 11.3118 9.16452 10.9713 9.36711 10.4693C9.57232 9.96072 9.83541 9.2706 10.1562 8.39969L9.96851 8.33057ZM8.7439 11.3652L8.57297 11.2614C8.44403 11.4736 8.23674 11.5896 7.90601 11.5896V11.7896V11.9896C8.34871 11.9896 8.70001 11.8226 8.91482 11.4691L8.7439 11.3652ZM7.90601 11.7896V11.5896C7.8724 11.5896 7.81283 11.5729 7.72636 11.4778C7.63966 11.3824 7.54439 11.2273 7.44458 11.0001L7.26147 11.0806L7.07837 11.161C7.18624 11.4065 7.30224 11.6059 7.43038 11.7468C7.55875 11.888 7.7176 11.9896 7.90601 11.9896V11.7896ZM7.26147 11.0806L7.44413 10.9991C7.32871 10.7403 6.96951 9.82663 6.36322 8.24811L6.17651 8.31982L5.98981 8.39153C6.5938 9.96406 6.95791 10.8909 7.07881 11.162L7.26147 11.0806ZM6.17651 8.31982L6.36333 8.24841L5.83159 6.8573L5.64478 6.92871L5.45796 7.00012L5.9897 8.39123L6.17651 8.31982ZM5.64478 6.92871L5.83144 6.85691C5.74221 6.62491 5.64219 6.36056 5.53135 6.06381L5.34399 6.13379L5.15664 6.20377C5.26781 6.50142 5.3683 6.76702 5.45811 7.00051L5.64478 6.92871ZM5.34399 6.13379L5.53162 6.06454C5.4209 5.76453 5.33991 5.55601 5.29017 5.44504L5.10767 5.52686L4.92516 5.60867C4.96852 5.70538 5.04508 5.90149 5.15636 6.20303L5.34399 6.13379ZM5.10767 5.52686L5.28916 5.44283C5.17681 5.20015 4.9669 5.00149 4.68744 4.83847L4.58667 5.01123L4.4859 5.18399C4.72207 5.32175 4.85949 5.46684 4.92617 5.61088L5.10767 5.52686ZM4.58667 5.01123L4.68922 4.83952C4.56935 4.76794 4.4917 4.7054 4.44611 4.65411C4.40047 4.60277 4.39995 4.57789 4.39995 4.57617H4.19995H3.99995C3.99995 4.71053 4.06389 4.82619 4.14715 4.91986C4.23047 5.01359 4.34617 5.10055 4.48412 5.18294L4.58667 5.01123ZM4.19995 4.57617H4.39995C4.39995 4.51724 4.40635 4.48574 4.41077 4.47278C4.41482 4.46088 4.40949 4.48554 4.37533 4.50262L4.28589 4.32373L4.19645 4.14485C4.10499 4.19057 4.0567 4.27162 4.03211 4.34387C4.00787 4.41506 3.99995 4.49546 3.99995 4.57617H4.19995ZM4.28589 4.32373L4.37762 4.50145C4.37016 4.5053 4.39154 4.49556 4.47639 4.48443C4.55093 4.47466 4.65411 4.46604 4.78786 4.459C5.05478 4.44495 5.43116 4.43779 5.9187 4.43779V4.23779V4.03779C5.4287 4.03779 5.04418 4.04496 4.76683 4.05955C4.62844 4.06684 4.51364 4.07612 4.42437 4.08783C4.3454 4.09819 4.25712 4.11351 4.19416 4.14601L4.28589 4.32373ZM5.9187 4.23779V4.43779H6.09058V4.23779V4.03779H5.9187V4.23779ZM13.842 10.9355L13.9564 11.0996L13.9569 11.0993L13.842 10.9355ZM14.3201 5.59131L14.1262 5.64046L14.1264 5.64128L14.3201 5.59131ZM13.9548 5.02197L13.8398 5.18557L13.8401 5.18582L13.9548 5.02197ZM14.8196 4.21631V4.4165L14.8284 4.41611L14.8196 4.21631ZM15.1848 4.2002V4L15.176 4.00039L15.1848 4.2002ZM15.55 4.2002L15.5587 4.0002H15.55V4.2002ZM15.6736 4.20557L15.6649 4.40557H15.6736V4.20557ZM16.5383 4.25391L16.468 4.4414L16.4774 4.44439L16.5383 4.25391ZM16.2751 4.98975L16.1492 4.83439L16.1479 4.83547L16.2751 4.98975ZM15.8777 11.666L15.869 11.866H15.8777V11.666ZM15.7542 11.6606L15.7628 11.4606H15.7542V11.6606ZM15.5017 11.6606L15.4958 11.8606H15.5017V11.6606ZM15.1365 11.6499L15.1424 11.45L15.1409 11.45L15.1365 11.6499ZM14.6531 11.6392L14.644 11.839L14.6486 11.8391L14.6531 11.6392ZM14.175 11.623V11.423C13.9514 11.423 13.8047 11.4045 13.7204 11.3775C13.6274 11.3477 13.6875 11.3387 13.6875 11.4028H13.4875H13.2875C13.2875 11.6137 13.4623 11.7149 13.5984 11.7585C13.7433 11.8049 13.9403 11.823 14.175 11.823V11.623ZM13.4875 11.4028H13.6875C13.6875 11.3636 13.7258 11.2603 13.9564 11.0996L13.842 10.9355L13.7277 10.7715C13.4856 10.9402 13.2875 11.1484 13.2875 11.4028H13.4875ZM13.842 10.9355L13.9569 11.0993C14.2215 10.9137 14.4067 10.6898 14.4761 10.4217L14.2825 10.3716L14.0888 10.3215C14.0508 10.4687 13.9424 10.6208 13.7272 10.7718L13.842 10.9355ZM14.2825 10.3716L14.4761 10.4217C14.4944 10.351 14.507 10.2451 14.5171 10.1166C14.5275 9.98394 14.536 9.81386 14.5428 9.60738C14.5563 9.19418 14.563 8.6286 14.563 7.91162H14.363H14.163C14.163 8.62693 14.1563 9.1875 14.143 9.59428C14.1363 9.79779 14.1281 9.96117 14.1183 10.0854C14.1083 10.2138 14.0974 10.2883 14.0888 10.3215L14.2825 10.3716ZM14.363 7.91162H14.563C14.563 7.1933 14.5595 6.63952 14.5523 6.25094C14.5487 6.05681 14.5441 5.90256 14.5386 5.78906C14.5336 5.68575 14.5271 5.59328 14.5137 5.54133L14.3201 5.59131L14.1264 5.64128C14.1255 5.63775 14.1278 5.64737 14.131 5.68204C14.1337 5.71271 14.1365 5.75456 14.1391 5.80847C14.1443 5.91609 14.1488 6.06575 14.1523 6.25834C14.1595 6.6432 14.163 7.19407 14.163 7.91162H14.363ZM14.3201 5.59131L14.5139 5.54216C14.4402 5.25118 14.2954 5.01622 14.0695 4.85813L13.9548 5.02197L13.8401 5.18582C13.9724 5.27838 14.0711 5.42297 14.1262 5.64046L14.3201 5.59131ZM13.9548 5.02197L14.0699 4.85838C13.9123 4.74757 13.8035 4.65521 13.7362 4.58121C13.6622 4.49996 13.6661 4.47111 13.6661 4.48486H13.4661H13.2661C13.2661 4.62752 13.3513 4.75264 13.4403 4.85043C13.5359 4.95547 13.6715 5.06721 13.8398 5.18557L13.9548 5.02197ZM13.4661 4.48486H13.6661V4.40967H13.4661H13.2661V4.48486H13.4661ZM13.4661 4.40967H13.6661C13.6661 4.51178 13.5785 4.53075 13.6294 4.5089C13.6614 4.49522 13.7252 4.478 13.8327 4.46264C14.0438 4.43249 14.3706 4.41631 14.8196 4.41631V4.21631V4.01631C14.3662 4.01631 14.0163 4.03236 13.7762 4.06666C13.6581 4.08352 13.5527 4.10659 13.4719 4.14124C13.4101 4.16773 13.2661 4.2431 13.2661 4.40967H13.4661ZM14.8196 4.21631L14.8284 4.41611L15.1936 4.4L15.1848 4.2002L15.176 4.00039L14.8108 4.0165L14.8196 4.21631ZM15.1848 4.2002V4.4002H15.55V4.2002V4.0002H15.1848V4.2002ZM15.55 4.2002L15.5414 4.40001L15.6649 4.40538L15.6736 4.20557L15.6823 4.00575L15.5587 4.00038L15.55 4.2002ZM15.6736 4.20557V4.40557H15.7971V4.20557V4.00557H15.6736V4.20557ZM15.7971 4.20557V4.40557C15.9993 4.40557 16.1582 4.40957 16.2756 4.41723C16.3343 4.42106 16.3803 4.42566 16.4149 4.43068C16.4321 4.43318 16.4453 4.43561 16.4549 4.43777C16.465 4.44002 16.4687 4.44141 16.4681 4.44117L16.5383 4.25391L16.6086 4.06664C16.534 4.0387 16.4223 4.02595 16.3016 4.01808C16.1719 4.00961 16.0032 4.00557 15.7971 4.00557V4.20557ZM16.5383 4.25391L16.4774 4.44439C16.4742 4.44338 16.4689 4.44082 16.4638 4.43629C16.459 4.43201 16.4582 4.42926 16.4595 4.4319C16.4633 4.4397 16.4726 4.46707 16.4726 4.52783H16.6726H16.8726C16.8726 4.35119 16.8198 4.13397 16.5993 4.06342L16.5383 4.25391ZM16.6726 4.52783H16.4726C16.4726 4.50561 16.4797 4.49923 16.4715 4.51455C16.4641 4.52828 16.4491 4.55078 16.4216 4.58269C16.3667 4.64659 16.2777 4.73017 16.1492 4.83439L16.2751 4.98975L16.4011 5.1451C16.5375 5.03448 16.6473 4.93365 16.7248 4.84358C16.7636 4.79851 16.7983 4.75162 16.824 4.70359C16.8489 4.65714 16.8726 4.5966 16.8726 4.52783H16.6726ZM16.2751 4.98975L16.1479 4.83547C15.964 4.98714 15.8481 5.19765 15.7902 5.44989L15.9851 5.49463L16.18 5.53937C16.2224 5.35476 16.2998 5.22868 16.4024 5.14402L16.2751 4.98975ZM15.9851 5.49463L15.7902 5.44989C15.7598 5.5824 15.7411 5.86992 15.7288 6.28495C15.7162 6.70949 15.7099 7.2896 15.7099 8.02441H15.9099H16.1099C16.1099 7.29113 16.1162 6.71556 16.1286 6.29684C16.1414 5.8686 16.1603 5.62529 16.18 5.53937L15.9851 5.49463ZM15.9099 8.02441H15.7099C15.7099 8.75902 15.7148 9.33157 15.7247 9.74128C15.7297 9.946 15.7359 10.1115 15.7435 10.237C15.7507 10.3561 15.7599 10.4552 15.7747 10.5158L15.969 10.4683L16.1633 10.4208C16.1584 10.4008 16.1503 10.3376 16.1428 10.2128C16.1356 10.0943 16.1295 9.93421 16.1246 9.73162C16.1148 9.32671 16.1099 8.75791 16.1099 8.02441H15.9099ZM15.969 10.4683L15.7747 10.5158C15.829 10.738 15.9964 10.9458 16.226 11.1415L16.3557 10.9893L16.4855 10.8371C16.2782 10.6604 16.1877 10.5208 16.1633 10.4208L15.969 10.4683ZM16.3557 10.9893L16.226 11.1415C16.3284 11.2288 16.3969 11.3017 16.4383 11.3601C16.4812 11.4206 16.4833 11.4489 16.4833 11.4512H16.6833H16.8833C16.8833 11.3317 16.8309 11.2221 16.7646 11.1287C16.6968 11.0331 16.6015 10.9359 16.4855 10.8371L16.3557 10.9893ZM16.6833 11.4512H16.4833C16.4833 11.452 16.4837 11.4438 16.4901 11.4342C16.4956 11.4259 16.4986 11.4274 16.4865 11.4334C16.4567 11.4483 16.3867 11.466 16.2537 11.466V11.666V11.866C16.4071 11.866 16.552 11.8479 16.6654 11.7912C16.7249 11.7614 16.7816 11.7181 16.8229 11.6561C16.8651 11.5929 16.8833 11.522 16.8833 11.4512H16.6833ZM16.2537 11.666V11.466H15.8777V11.666V11.866H16.2537V11.666ZM15.8777 11.666L15.8864 11.4662L15.7628 11.4608L15.7542 11.6606L15.7455 11.8605L15.869 11.8658L15.8777 11.666ZM15.7542 11.6606V11.4606H15.5017V11.6606V11.8606H15.7542V11.6606ZM15.5017 11.6606L15.5076 11.4607L15.1424 11.45L15.1365 11.6499L15.1306 11.8498L15.4958 11.8606L15.5017 11.6606ZM15.1365 11.6499L15.1409 11.45L14.6575 11.4392L14.6531 11.6392L14.6486 11.8391L15.132 11.8499L15.1365 11.6499ZM14.6531 11.6392L14.6622 11.4394L14.4258 11.4286L14.4167 11.6284L14.4077 11.8282L14.644 11.839L14.6531 11.6392ZM14.4167 11.6284L14.4258 11.4286C14.3439 11.4249 14.2603 11.423 14.175 11.423V11.623V11.823C14.2545 11.823 14.332 11.8248 14.4077 11.8282L14.4167 11.6284Z" fill="#BB99FF" mask="url(#path-2-outside-1_78_7805)"/>
</g>
<defs>
<filter id="filter0_d_78_7805" x="0" y="0" width="20.8833" height="15.9895" filterUnits="userSpaceOnUse" color-interpolation-filters="sRGB">
<feFlood flood-opacity="0" result="BackgroundImageFix"/>
<feColorMatrix in="SourceAlpha" type="matrix" values="0 0 0 0 0 0 0 0 0 0 0 0 0 0 0 0 0 0 127 0" result="hardAlpha"/>
<feOffset/>
<feGaussianBlur stdDeviation="2"/>
<feComposite in2="hardAlpha" operator="out"/>
<feColorMatrix type="matrix" values="0 0 0 0 0 0 0 0 0 0 0 0 0 0 0 0 0 0 0.8 0"/>
<feBlend mode="normal" in2="BackgroundImageFix" result="effect1_dropShadow_78_7805"/>
<feBlend mode="normal" in="SourceGraphic" in2="effect1_dropShadow_78_7805" result="shape"/>
</filter>
</defs>
</svg>
