<svg width="21" height="16" viewBox="0 0 21 16" fill="none" xmlns="http://www.w3.org/2000/svg">
<path d="M9.74829 0.981546C10.0577 0.802913 10.4389 0.802913 10.7483 0.981546L15.8105 3.9042C16.1199 4.08283 16.3105 4.41296 16.3105 4.77022V10.6155C16.3105 10.9728 16.1199 11.3029 15.8105 11.4815L10.7483 14.4042C10.4389 14.5828 10.0577 14.5828 9.74829 14.4042L4.68611 11.4815C4.37671 11.3029 4.18611 10.9728 4.18611 10.6155V4.77022C4.18611 4.41296 4.37671 4.08283 4.68611 3.9042L9.74829 0.981546Z" fill="#161616"/>
<g filter="url(#filter0_d_78_7813)">
<mask id="path-2-outside-1_78_7813" maskUnits="userSpaceOnUse" x="3.24829" y="3.69287" width="14" height="9" fill="black">
<rect fill="white" x="3.24829" y="3.69287" width="14" height="9"/>
<path d="M4.90894 11.623C4.4506 11.623 4.22144 11.5496 4.22144 11.4028C4.22144 11.256 4.3396 11.1003 4.57593 10.9355C4.81584 10.7673 4.96265 10.5793 5.01636 10.3716C5.07007 10.1639 5.09692 9.34391 5.09692 7.91162C5.09692 6.47575 5.0826 5.70231 5.05396 5.59131C4.9895 5.33708 4.86776 5.1473 4.68872 5.02197C4.36287 4.79281 4.19995 4.61377 4.19995 4.48486V4.40967C4.19995 4.28076 4.65112 4.21631 5.55347 4.21631L5.9187 4.2002H6.28394L6.40747 4.20557H6.53101C6.93921 4.20557 7.18628 4.22168 7.27222 4.25391C7.36174 4.28255 7.40649 4.37386 7.40649 4.52783C7.40649 4.62093 7.27401 4.7749 7.00903 4.98975C6.8658 5.10791 6.76912 5.2762 6.71899 5.49463C6.66886 5.71305 6.6438 6.55632 6.6438 8.02441C6.6438 9.49251 6.66349 10.3071 6.70288 10.4683C6.74227 10.6294 6.87118 10.8031 7.0896 10.9893C7.30802 11.1755 7.41724 11.3294 7.41724 11.4512C7.41724 11.5944 7.27401 11.666 6.98755 11.666H6.61157L6.48804 11.6606H6.2356L5.87036 11.6499L5.38696 11.6392L5.15063 11.6284C5.07186 11.6248 4.99129 11.623 4.90894 11.623ZM13.0471 6.77832C13.1724 6.77832 13.3085 6.68164 13.4553 6.48828C13.9351 5.85807 14.175 5.43018 14.175 5.20459C14.175 5.06852 14.1571 4.97005 14.1213 4.90918C13.996 4.69076 13.9333 4.54036 13.9333 4.45801C13.9333 4.37565 13.9781 4.31836 14.0676 4.28613C14.1571 4.25391 14.4508 4.23779 14.9485 4.23779C15.8831 4.23779 16.3503 4.30941 16.3503 4.45264C16.3503 4.59587 16.3235 4.7015 16.2698 4.76953C16.2161 4.83757 16.0585 4.93604 15.7971 5.06494C15.5393 5.19385 15.2976 5.40332 15.072 5.69336C14.1912 6.81413 13.7507 7.50342 13.7507 7.76123C13.7507 7.81852 13.8206 7.95101 13.9602 8.15869C14.6764 9.22575 15.2242 9.98844 15.6038 10.4468C15.747 10.6187 15.9081 10.7583 16.0872 10.8657C16.3987 11.0519 16.5544 11.2131 16.5544 11.3491C16.5544 11.4852 16.4882 11.5675 16.3557 11.5962C16.0621 11.6606 15.5805 11.6929 14.9109 11.6929C14.2413 11.6929 13.8546 11.6696 13.7507 11.623C13.6505 11.5729 13.6003 11.4941 13.6003 11.3867C13.6003 11.2757 13.6165 11.179 13.6487 11.0967L13.7078 10.9731L13.7615 10.8389C13.7615 10.6097 13.518 10.1138 13.031 9.35107C12.8341 9.04313 12.7034 8.88916 12.6389 8.88916C12.5172 8.88916 12.3346 9.06283 12.0911 9.41016C11.6829 9.99382 11.4788 10.3644 11.4788 10.522C11.4788 10.6795 11.5038 10.8228 11.554 10.9517L11.6292 11.1021C11.6972 11.2417 11.7312 11.3348 11.7312 11.3813C11.7312 11.5103 11.6256 11.5926 11.4143 11.6284C11.203 11.6642 10.7895 11.6821 10.1736 11.6821C9.5577 11.6821 9.24976 11.5872 9.24976 11.3975C9.24976 11.3115 9.47534 11.0931 9.92651 10.7422C10.0984 10.6061 10.3508 10.3197 10.6838 9.88281C11.4967 8.80859 11.9031 8.17839 11.9031 7.99219C11.9031 7.75228 11.4161 6.98063 10.4421 5.67725C10.238 5.40511 9.99992 5.17773 9.72778 4.99512C9.45923 4.80892 9.32495 4.65853 9.32495 4.54395C9.32495 4.40788 9.42521 4.32373 9.62573 4.2915C9.98381 4.23421 10.5961 4.20557 11.4626 4.20557H11.699C11.8637 4.20557 11.9926 4.23421 12.0857 4.2915C12.1824 4.34521 12.2307 4.46517 12.2307 4.65137C12.2307 4.69792 12.2021 4.7749 12.1448 4.88232C12.0875 4.98617 12.0588 5.09001 12.0588 5.19385C12.0588 5.29769 12.2128 5.58773 12.5208 6.06396C12.8287 6.5402 13.0042 6.77832 13.0471 6.77832Z"/>
</mask>
<path d="M4.90894 11.623C4.4506 11.623 4.22144 11.5496 4.22144 11.4028C4.22144 11.256 4.3396 11.1003 4.57593 10.9355C4.81584 10.7673 4.96265 10.5793 5.01636 10.3716C5.07007 10.1639 5.09692 9.34391 5.09692 7.91162C5.09692 6.47575 5.0826 5.70231 5.05396 5.59131C4.9895 5.33708 4.86776 5.1473 4.68872 5.02197C4.36287 4.79281 4.19995 4.61377 4.19995 4.48486V4.40967C4.19995 4.28076 4.65112 4.21631 5.55347 4.21631L5.9187 4.2002H6.28394L6.40747 4.20557H6.53101C6.93921 4.20557 7.18628 4.22168 7.27222 4.25391C7.36174 4.28255 7.40649 4.37386 7.40649 4.52783C7.40649 4.62093 7.27401 4.7749 7.00903 4.98975C6.8658 5.10791 6.76912 5.2762 6.71899 5.49463C6.66886 5.71305 6.6438 6.55632 6.6438 8.02441C6.6438 9.49251 6.66349 10.3071 6.70288 10.4683C6.74227 10.6294 6.87118 10.8031 7.0896 10.9893C7.30802 11.1755 7.41724 11.3294 7.41724 11.4512C7.41724 11.5944 7.27401 11.666 6.98755 11.666H6.61157L6.48804 11.6606H6.2356L5.87036 11.6499L5.38696 11.6392L5.15063 11.6284C5.07186 11.6248 4.99129 11.623 4.90894 11.623ZM13.0471 6.77832C13.1724 6.77832 13.3085 6.68164 13.4553 6.48828C13.9351 5.85807 14.175 5.43018 14.175 5.20459C14.175 5.06852 14.1571 4.97005 14.1213 4.90918C13.996 4.69076 13.9333 4.54036 13.9333 4.45801C13.9333 4.37565 13.9781 4.31836 14.0676 4.28613C14.1571 4.25391 14.4508 4.23779 14.9485 4.23779C15.8831 4.23779 16.3503 4.30941 16.3503 4.45264C16.3503 4.59587 16.3235 4.7015 16.2698 4.76953C16.2161 4.83757 16.0585 4.93604 15.7971 5.06494C15.5393 5.19385 15.2976 5.40332 15.072 5.69336C14.1912 6.81413 13.7507 7.50342 13.7507 7.76123C13.7507 7.81852 13.8206 7.95101 13.9602 8.15869C14.6764 9.22575 15.2242 9.98844 15.6038 10.4468C15.747 10.6187 15.9081 10.7583 16.0872 10.8657C16.3987 11.0519 16.5544 11.2131 16.5544 11.3491C16.5544 11.4852 16.4882 11.5675 16.3557 11.5962C16.0621 11.6606 15.5805 11.6929 14.9109 11.6929C14.2413 11.6929 13.8546 11.6696 13.7507 11.623C13.6505 11.5729 13.6003 11.4941 13.6003 11.3867C13.6003 11.2757 13.6165 11.179 13.6487 11.0967L13.7078 10.9731L13.7615 10.8389C13.7615 10.6097 13.518 10.1138 13.031 9.35107C12.8341 9.04313 12.7034 8.88916 12.6389 8.88916C12.5172 8.88916 12.3346 9.06283 12.0911 9.41016C11.6829 9.99382 11.4788 10.3644 11.4788 10.522C11.4788 10.6795 11.5038 10.8228 11.554 10.9517L11.6292 11.1021C11.6972 11.2417 11.7312 11.3348 11.7312 11.3813C11.7312 11.5103 11.6256 11.5926 11.4143 11.6284C11.203 11.6642 10.7895 11.6821 10.1736 11.6821C9.5577 11.6821 9.24976 11.5872 9.24976 11.3975C9.24976 11.3115 9.47534 11.0931 9.92651 10.7422C10.0984 10.6061 10.3508 10.3197 10.6838 9.88281C11.4967 8.80859 11.9031 8.17839 11.9031 7.99219C11.9031 7.75228 11.4161 6.98063 10.4421 5.67725C10.238 5.40511 9.99992 5.17773 9.72778 4.99512C9.45923 4.80892 9.32495 4.65853 9.32495 4.54395C9.32495 4.40788 9.42521 4.32373 9.62573 4.2915C9.98381 4.23421 10.5961 4.20557 11.4626 4.20557H11.699C11.8637 4.20557 11.9926 4.23421 12.0857 4.2915C12.1824 4.34521 12.2307 4.46517 12.2307 4.65137C12.2307 4.69792 12.2021 4.7749 12.1448 4.88232C12.0875 4.98617 12.0588 5.09001 12.0588 5.19385C12.0588 5.29769 12.2128 5.58773 12.5208 6.06396C12.8287 6.5402 13.0042 6.77832 13.0471 6.77832Z" fill="#817D72"/>
<path d="M4.57593 10.9355L4.69029 11.0996L4.69078 11.0993L4.57593 10.9355ZM5.05396 5.59131L4.86009 5.64046L4.8603 5.64128L5.05396 5.59131ZM4.68872 5.02197L4.57367 5.18557L4.57403 5.18582L4.68872 5.02197ZM5.55347 4.21631V4.4165L5.56228 4.41611L5.55347 4.21631ZM5.9187 4.2002V4L5.90989 4.00039L5.9187 4.2002ZM6.28394 4.2002L6.29263 4.0002H6.28394V4.2002ZM6.40747 4.20557L6.39878 4.40557H6.40747V4.20557ZM7.27222 4.25391L7.20191 4.4414L7.21126 4.44439L7.27222 4.25391ZM7.00903 4.98975L6.88307 4.83439L6.88176 4.83547L7.00903 4.98975ZM6.61157 11.666L6.60288 11.866H6.61157V11.666ZM6.48804 11.6606L6.49673 11.4606H6.48804V11.6606ZM6.2356 11.6606L6.22971 11.8606H6.2356V11.6606ZM5.87036 11.6499L5.87624 11.45L5.8748 11.45L5.87036 11.6499ZM5.38696 11.6392L5.37788 11.839L5.38252 11.8391L5.38696 11.6392ZM4.90894 11.623V11.423C4.68532 11.423 4.53863 11.4045 4.45432 11.3775C4.36126 11.3477 4.42144 11.3387 4.42144 11.4028H4.22144H4.02144C4.02144 11.6137 4.19619 11.7149 4.3323 11.7585C4.47715 11.8049 4.67422 11.823 4.90894 11.823V11.623ZM4.22144 11.4028H4.42144C4.42144 11.3636 4.45972 11.2603 4.69029 11.0996L4.57593 10.9355L4.46157 10.7715C4.21948 10.9402 4.02144 11.1484 4.02144 11.4028H4.22144ZM4.57593 10.9355L4.69078 11.0993C4.95536 10.9137 5.14063 10.6898 5.20999 10.4217L5.01636 10.3716L4.82273 10.3215C4.78466 10.4687 4.67631 10.6208 4.46107 10.7718L4.57593 10.9355ZM5.01636 10.3716L5.20999 10.4217C5.22826 10.351 5.24092 10.2451 5.25099 10.1166C5.2614 9.98394 5.26991 9.81386 5.27668 9.60738C5.29021 9.19418 5.29692 8.6286 5.29692 7.91162H5.09692H4.89692C4.89692 8.62693 4.89021 9.1875 4.87689 9.59428C4.87022 9.79779 4.86195 9.96117 4.85222 10.0854C4.84215 10.2138 4.83131 10.2883 4.82273 10.3215L5.01636 10.3716ZM5.09692 7.91162H5.29692C5.29692 7.1933 5.29334 6.63952 5.28615 6.25094C5.28255 6.05681 5.27803 5.90256 5.27252 5.78906C5.2675 5.68575 5.26102 5.59328 5.24761 5.54133L5.05396 5.59131L4.8603 5.64128C4.85939 5.63775 4.8617 5.64737 4.86484 5.68204C4.86762 5.71271 4.87037 5.75456 4.87299 5.80847C4.87822 5.91609 4.88265 6.06575 4.88622 6.25834C4.89334 6.6432 4.89692 7.19407 4.89692 7.91162H5.09692ZM5.05396 5.59131L5.24782 5.54216C5.17405 5.25118 5.02926 5.01622 4.80341 4.85813L4.68872 5.02197L4.57403 5.18582C4.70626 5.27838 4.80495 5.42297 4.86009 5.64046L5.05396 5.59131ZM4.68872 5.02197L4.80377 4.85838C4.64622 4.74757 4.5374 4.65521 4.47006 4.58121C4.39613 4.49996 4.39995 4.47111 4.39995 4.48486H4.19995H3.99995C3.99995 4.62752 4.08524 4.75264 4.17422 4.85043C4.26981 4.95547 4.40538 5.06721 4.57367 5.18557L4.68872 5.02197ZM4.19995 4.48486H4.39995V4.40967H4.19995H3.99995V4.48486H4.19995ZM4.19995 4.40967H4.39995C4.39995 4.51178 4.31235 4.53075 4.36333 4.5089C4.39526 4.49522 4.45906 4.478 4.56661 4.46264C4.77767 4.43249 5.10449 4.41631 5.55347 4.41631V4.21631V4.01631C5.1001 4.01631 4.75017 4.03236 4.51005 4.06666C4.39201 4.08352 4.28663 4.10659 4.20576 4.14124C4.14395 4.16773 3.99995 4.2431 3.99995 4.40967H4.19995ZM5.55347 4.21631L5.56228 4.41611L5.92752 4.4L5.9187 4.2002L5.90989 4.00039L5.54465 4.0165L5.55347 4.21631ZM5.9187 4.2002V4.4002H6.28394V4.2002V4.0002H5.9187V4.2002ZM6.28394 4.2002L6.27525 4.40001L6.39878 4.40538L6.40747 4.20557L6.41616 4.00575L6.29262 4.00038L6.28394 4.2002ZM6.40747 4.20557V4.40557H6.53101V4.20557V4.00557H6.40747V4.20557ZM6.53101 4.20557V4.40557C6.73315 4.40557 6.89211 4.40957 7.00945 4.41723C7.06816 4.42106 7.11421 4.42566 7.14882 4.43068C7.16603 4.43318 7.17918 4.43561 7.18883 4.43777C7.19891 4.44002 7.20264 4.44141 7.20199 4.44117L7.27222 4.25391L7.34244 4.06664C7.26793 4.0387 7.15618 4.02595 7.03548 4.01808C6.90575 4.00961 6.73706 4.00557 6.53101 4.00557V4.20557ZM7.27222 4.25391L7.21126 4.44439C7.20812 4.44338 7.20279 4.44082 7.19772 4.43629C7.19292 4.43201 7.19205 4.42926 7.19334 4.4319C7.19716 4.4397 7.20649 4.46707 7.20649 4.52783H7.40649H7.60649C7.60649 4.35119 7.55364 4.13397 7.33317 4.06342L7.27222 4.25391ZM7.40649 4.52783H7.20649C7.20649 4.50561 7.21361 4.49923 7.20539 4.51455C7.19803 4.52828 7.18298 4.55078 7.15553 4.58269C7.10054 4.64659 7.01162 4.73017 6.88307 4.83439L7.00903 4.98975L7.13499 5.1451C7.27142 5.03448 7.38123 4.93365 7.45873 4.84358C7.49752 4.79851 7.53215 4.75162 7.55791 4.70359C7.58282 4.65714 7.60649 4.5966 7.60649 4.52783H7.40649ZM7.00903 4.98975L6.88176 4.83547C6.69792 4.98714 6.58195 5.19765 6.52406 5.44989L6.71899 5.49463L6.91393 5.53937C6.9563 5.35476 7.03369 5.22868 7.13631 5.14402L7.00903 4.98975ZM6.71899 5.49463L6.52406 5.44989C6.49365 5.5824 6.47502 5.86992 6.46269 6.28495C6.45007 6.70949 6.4438 7.2896 6.4438 8.02441H6.6438H6.8438C6.8438 7.29113 6.85006 6.71556 6.86251 6.29684C6.87524 5.8686 6.89421 5.62529 6.91393 5.53937L6.71899 5.49463ZM6.6438 8.02441H6.4438C6.4438 8.75902 6.44872 9.33157 6.45863 9.74128C6.46358 9.946 6.4698 10.1115 6.4774 10.237C6.48461 10.3561 6.49379 10.4552 6.5086 10.5158L6.70288 10.4683L6.89716 10.4208C6.89227 10.4008 6.88422 10.3376 6.87667 10.2128C6.86949 10.0943 6.86341 9.93421 6.85851 9.73162C6.84872 9.32671 6.8438 8.75791 6.8438 8.02441H6.6438ZM6.70288 10.4683L6.5086 10.5158C6.56293 10.738 6.73027 10.9458 6.95985 11.1415L7.0896 10.9893L7.21935 10.8371C7.01208 10.6604 6.92161 10.5208 6.89716 10.4208L6.70288 10.4683ZM7.0896 10.9893L6.95985 11.1415C7.06227 11.2288 7.13075 11.3017 7.1722 11.3601C7.21513 11.4206 7.21724 11.4489 7.21724 11.4512H7.41724H7.61724C7.61724 11.3317 7.56474 11.2221 7.49846 11.1287C7.43069 11.0331 7.33535 10.9359 7.21935 10.8371L7.0896 10.9893ZM7.41724 11.4512H7.21724C7.21724 11.452 7.21761 11.4438 7.22397 11.4342C7.2295 11.4259 7.23245 11.4274 7.22037 11.4334C7.19055 11.4483 7.12056 11.466 6.98755 11.466V11.666V11.866C7.14099 11.866 7.28585 11.8479 7.39926 11.7912C7.45879 11.7614 7.51546 11.7181 7.55679 11.6561C7.59896 11.5929 7.61724 11.522 7.61724 11.4512H7.41724ZM6.98755 11.666V11.466H6.61157V11.666V11.866H6.98755V11.666ZM6.61157 11.666L6.62026 11.4662L6.49672 11.4608L6.48804 11.6606L6.47935 11.8605L6.60288 11.8658L6.61157 11.666ZM6.48804 11.6606V11.4606H6.2356V11.6606V11.8606H6.48804V11.6606ZM6.2356 11.6606L6.24148 11.4607L5.87624 11.45L5.87036 11.6499L5.86448 11.8498L6.22972 11.8606L6.2356 11.6606ZM5.87036 11.6499L5.8748 11.45L5.39141 11.4392L5.38696 11.6392L5.38252 11.8391L5.86592 11.8499L5.87036 11.6499ZM5.38696 11.6392L5.39604 11.4394L5.15972 11.4286L5.15063 11.6284L5.14155 11.8282L5.37788 11.839L5.38696 11.6392ZM5.15063 11.6284L5.15972 11.4286C5.07779 11.4249 4.99419 11.423 4.90894 11.423V11.623V11.823C4.9884 11.823 5.06593 11.8248 5.14155 11.8282L5.15063 11.6284ZM13.4553 6.48828L13.2962 6.36713L13.296 6.36734L13.4553 6.48828ZM14.1213 4.90918L13.9479 5.00872L13.949 5.01058L14.1213 4.90918ZM15.7971 5.06494L15.7087 4.88556L15.7077 4.88606L15.7971 5.06494ZM15.072 5.69336L15.2293 5.81695L15.2299 5.81615L15.072 5.69336ZM13.9602 8.15869L14.1263 8.04724L14.1262 8.04709L13.9602 8.15869ZM15.6038 10.4468L15.4497 10.5743L15.4501 10.5748L15.6038 10.4468ZM16.0872 10.8657L15.9843 11.0372L15.9845 11.0374L16.0872 10.8657ZM16.3557 11.5962L16.3134 11.4007L16.3128 11.4008L16.3557 11.5962ZM13.7507 11.623L13.6612 11.8021L13.6689 11.8055L13.7507 11.623ZM13.6487 11.0967L13.4683 11.0104L13.4651 11.017L13.4624 11.0238L13.6487 11.0967ZM13.7078 10.9731L13.8886 11.0596L13.8935 11.0474L13.7078 10.9731ZM13.7615 10.8389L13.9472 10.9131L13.9615 10.8774V10.8389H13.7615ZM13.031 9.35107L13.1996 9.24344L13.1995 9.24332L13.031 9.35107ZM12.0911 9.41016L11.9273 9.29535L11.9272 9.29553L12.0911 9.41016ZM11.554 10.9517L11.3676 11.0241L11.3709 11.0328L11.3751 11.0411L11.554 10.9517ZM11.6292 11.1021L11.809 11.0145L11.808 11.0126L11.6292 11.1021ZM9.92651 10.7422L10.0493 10.9001L10.0507 10.899L9.92651 10.7422ZM10.6838 9.88281L10.8429 10.0041L10.8433 10.0035L10.6838 9.88281ZM10.4421 5.67725L10.6024 5.55753L10.6021 5.55725L10.4421 5.67725ZM9.72778 4.99512L9.61381 5.1595L9.61634 5.16119L9.72778 4.99512ZM9.62573 4.2915L9.59413 4.09402L9.594 4.09404L9.62573 4.2915ZM12.0857 4.2915L11.9808 4.462L11.9886 4.46634L12.0857 4.2915ZM12.1448 4.88232L12.3199 4.97895L12.3212 4.97644L12.1448 4.88232ZM12.5208 6.06396L12.3528 6.17256L12.5208 6.06396ZM13.0471 6.77832V6.97832C13.2742 6.97832 13.4626 6.80942 13.6146 6.60922L13.4553 6.48828L13.296 6.36734C13.1544 6.55386 13.0707 6.57832 13.0471 6.57832V6.77832ZM13.4553 6.48828L13.6145 6.60944C13.857 6.29083 14.0432 6.01797 14.1696 5.79251C14.2909 5.57608 14.375 5.37326 14.375 5.20459H14.175H13.975C13.975 5.26151 13.9392 5.38543 13.8207 5.59689C13.7072 5.79933 13.5334 6.05553 13.2962 6.36713L13.4553 6.48828ZM14.175 5.20459H14.375C14.375 5.06036 14.3577 4.91661 14.2937 4.80778L14.1213 4.90918L13.949 5.01058C13.9565 5.02349 13.975 5.07669 13.975 5.20459H14.175ZM14.1213 4.90918L14.2948 4.80965C14.2343 4.70426 14.1918 4.6201 14.165 4.55565C14.1358 4.48567 14.1333 4.45788 14.1333 4.45801H13.9333H13.7333C13.7333 4.54049 13.7622 4.62908 13.7957 4.70949C13.8315 4.79543 13.883 4.89568 13.9479 5.00871L14.1213 4.90918ZM13.9333 4.45801H14.1333C14.1333 4.45562 14.1337 4.45745 14.1322 4.46198C14.1307 4.4668 14.128 4.47197 14.1245 4.4764C14.1175 4.48535 14.1154 4.48152 14.1354 4.47431L14.0676 4.28613L13.9999 4.09796C13.9304 4.12298 13.8611 4.1639 13.8093 4.23014C13.7559 4.29857 13.7333 4.37844 13.7333 4.45801H13.9333ZM14.0676 4.28613L14.1354 4.47431C14.1339 4.47483 14.1379 4.47335 14.1501 4.4709C14.1616 4.46858 14.1774 4.46602 14.1981 4.46341C14.2395 4.45818 14.2951 4.45347 14.3659 4.44958C14.5075 4.44181 14.7012 4.43779 14.9485 4.43779V4.23779V4.03779C14.6981 4.03779 14.4961 4.04183 14.344 4.05018C14.2681 4.05435 14.2023 4.05971 14.148 4.06656C14.0972 4.07296 14.0439 4.08209 13.9999 4.09796L14.0676 4.28613ZM14.9485 4.23779V4.43779C15.4134 4.43779 15.7515 4.45577 15.9696 4.4892C16.0806 4.50622 16.1463 4.52525 16.1792 4.54036C16.2255 4.56166 16.1503 4.54375 16.1503 4.45264H16.3503H16.5503C16.5503 4.28991 16.4167 4.20933 16.3463 4.17693C16.2623 4.13832 16.1528 4.1126 16.0302 4.09381C15.781 4.05562 15.4181 4.03779 14.9485 4.03779V4.23779ZM16.3503 4.45264H16.1503C16.1503 4.57786 16.1256 4.6294 16.1128 4.6456L16.2698 4.76953L16.4268 4.89346C16.5214 4.77359 16.5503 4.61387 16.5503 4.45264H16.3503ZM16.2698 4.76953L16.1128 4.6456C16.1129 4.6455 16.1063 4.65338 16.0862 4.66918C16.0672 4.68418 16.0407 4.70271 16.0053 4.72481C15.9345 4.76909 15.8363 4.82262 15.7087 4.88557L15.7971 5.06494L15.8856 5.24432C16.0193 5.17836 16.1306 5.11819 16.2173 5.06401C16.2985 5.01328 16.377 4.95648 16.4268 4.89346L16.2698 4.76953ZM15.7971 5.06494L15.7077 4.88606C15.4169 5.03146 15.1532 5.26323 14.9142 5.57057L15.072 5.69336L15.2299 5.81615C15.442 5.54341 15.6618 5.35623 15.8866 5.24383L15.7971 5.06494ZM15.072 5.69336L14.9148 5.56977C14.4728 6.13212 14.1379 6.59052 13.9125 6.94322C13.8 7.11935 13.7122 7.27301 13.652 7.40264C13.5947 7.52579 13.5507 7.65068 13.5507 7.76123H13.7507H13.9507C13.9507 7.74287 13.9618 7.68492 14.0147 7.5713C14.0645 7.46415 14.1419 7.3271 14.2496 7.15859C14.4647 6.822 14.7904 6.37537 15.2293 5.81695L15.072 5.69336ZM13.7507 7.76123H13.5507C13.5507 7.81061 13.5645 7.85576 13.5761 7.88736C13.589 7.92229 13.6064 7.95921 13.6262 7.99681C13.6659 8.07214 13.7227 8.16389 13.7942 8.27029L13.9602 8.15869L14.1262 8.04709C14.0581 7.94581 14.0102 7.86747 13.98 7.81032C13.9649 7.78167 13.9561 7.76176 13.9515 7.74924C13.9457 7.73339 13.9507 7.7405 13.9507 7.76123H13.7507ZM13.9602 8.15869L13.7941 8.27015C14.5108 9.33793 15.0633 10.1077 15.4497 10.5743L15.6038 10.4468L15.7578 10.3192C15.3851 9.86915 14.8419 9.11357 14.1263 8.04724L13.9602 8.15869ZM15.6038 10.4468L15.4501 10.5748C15.6067 10.7627 15.7847 10.9175 15.9843 11.0372L16.0872 10.8657L16.1901 10.6942C16.0316 10.5991 15.8873 10.4746 15.7574 10.3187L15.6038 10.4468ZM16.0872 10.8657L15.9845 11.0374C16.1333 11.1263 16.2333 11.2027 16.2938 11.2652C16.3577 11.3313 16.3544 11.3578 16.3544 11.3491H16.5544H16.7544C16.7544 11.2044 16.6733 11.0823 16.5814 10.9872C16.4861 10.8887 16.3525 10.7913 16.1898 10.694L16.0872 10.8657ZM16.5544 11.3491H16.3544C16.3544 11.3848 16.3461 11.3911 16.3489 11.3876C16.3518 11.384 16.3478 11.3933 16.3134 11.4007L16.3557 11.5962L16.398 11.7917C16.4961 11.7704 16.5915 11.7242 16.6606 11.6383C16.7296 11.5525 16.7544 11.4495 16.7544 11.3491H16.5544ZM16.3557 11.5962L16.3128 11.4008C16.042 11.4603 15.5792 11.4929 14.9109 11.4929V11.6929V11.8929C15.5817 11.8929 16.0821 11.861 16.3986 11.7915L16.3557 11.5962ZM14.9109 11.6929V11.4929C14.5777 11.4929 14.3182 11.4871 14.1307 11.4758C14.0368 11.4701 13.9637 11.4633 13.9098 11.4556C13.8506 11.4472 13.831 11.4399 13.8325 11.4405L13.7507 11.623L13.6689 11.8055C13.7224 11.8295 13.7901 11.8426 13.8535 11.8516C13.9223 11.8614 14.0072 11.8691 14.1066 11.8751C14.3058 11.887 14.5745 11.8929 14.9109 11.8929V11.6929ZM13.7507 11.623L13.8402 11.4442C13.8159 11.432 13.8087 11.4222 13.8067 11.419C13.805 11.4163 13.8003 11.4082 13.8003 11.3867H13.6003H13.4003C13.4003 11.4726 13.4208 11.5577 13.4692 11.6337C13.5173 11.7093 13.5853 11.7639 13.6613 11.8019L13.7507 11.623ZM13.6003 11.3867H13.8003C13.8003 11.2945 13.8138 11.2236 13.8349 11.1696L13.6487 11.0967L13.4624 11.0238C13.4191 11.1345 13.4003 11.2569 13.4003 11.3867H13.6003ZM13.6487 11.0967L13.8291 11.183L13.8882 11.0594L13.7078 10.9731L13.5273 10.8869L13.4683 11.0104L13.6487 11.0967ZM13.7078 10.9731L13.8935 11.0474L13.9472 10.9131L13.7615 10.8389L13.5758 10.7646L13.5221 10.8989L13.7078 10.9731ZM13.7615 10.8389H13.9615C13.9615 10.6729 13.8797 10.4539 13.7584 10.2069C13.632 9.94939 13.4449 9.62766 13.1996 9.24344L13.031 9.35107L12.8624 9.4587C13.1041 9.83718 13.2823 10.1448 13.3993 10.3832C13.5215 10.6321 13.5615 10.7756 13.5615 10.8389H13.7615ZM13.031 9.35107L13.1995 9.24332C13.0994 9.08678 13.0118 8.96245 12.9378 8.87521C12.9011 8.83203 12.8628 8.79196 12.8236 8.76102C12.7919 8.73607 12.726 8.68916 12.6389 8.68916V8.88916V9.08916C12.5841 9.08916 12.5586 9.0615 12.5758 9.07504C12.5854 9.08259 12.6041 9.10026 12.6328 9.13407C12.6895 9.2008 12.7657 9.30742 12.8625 9.45883L13.031 9.35107ZM12.6389 8.88916V8.68916C12.5617 8.68916 12.4929 8.71618 12.4371 8.74801C12.3804 8.78036 12.3255 8.82435 12.2728 8.87448C12.1676 8.97457 12.0523 9.1171 11.9273 9.29535L12.0911 9.41016L12.2548 9.52496C12.3734 9.35589 12.4711 9.23792 12.5485 9.16434C12.5871 9.12764 12.6159 9.1065 12.6353 9.09543C12.6556 9.08385 12.6552 9.08916 12.6389 9.08916V8.88916ZM12.0911 9.41016L11.9272 9.29553C11.7213 9.58984 11.5637 9.83504 11.4566 10.0294C11.4032 10.1265 11.3604 10.2144 11.3305 10.2918C11.302 10.3654 11.2788 10.4456 11.2788 10.522H11.4788H11.6788C11.6788 10.5228 11.6788 10.5162 11.6827 10.5C11.6865 10.4842 11.6931 10.4631 11.7036 10.436C11.7247 10.3813 11.7584 10.3106 11.807 10.2223C11.9041 10.0461 12.0526 9.81413 12.255 9.52478L12.0911 9.41016ZM11.4788 10.522H11.2788C11.2788 10.7009 11.3073 10.8691 11.3676 11.0241L11.554 10.9517L11.7404 10.8792C11.7004 10.7764 11.6788 10.6581 11.6788 10.522H11.4788ZM11.554 10.9517L11.3751 11.0411L11.4503 11.1915L11.6292 11.1021L11.808 11.0126L11.7328 10.8622L11.554 10.9517ZM11.6292 11.1021L11.4494 11.1896C11.4818 11.2563 11.5041 11.3077 11.5178 11.3453C11.5247 11.364 11.5285 11.3769 11.5305 11.385C11.5328 11.3944 11.5312 11.3918 11.5312 11.3813H11.7312H11.9312C11.9312 11.3205 11.9116 11.2574 11.8935 11.208C11.8732 11.1524 11.8445 11.0874 11.8089 11.0145L11.6292 11.1021ZM11.7312 11.3813H11.5312C11.5312 11.3854 11.5306 11.3837 11.5325 11.3799C11.5343 11.3763 11.5351 11.3773 11.529 11.3821C11.5135 11.3942 11.4714 11.4159 11.3809 11.4312L11.4143 11.6284L11.4477 11.8256C11.5684 11.8051 11.6849 11.7678 11.775 11.6975C11.8742 11.6202 11.9312 11.5102 11.9312 11.3813H11.7312ZM11.4143 11.6284L11.3809 11.4312C11.1888 11.4638 10.7918 11.4821 10.1736 11.4821V11.6821V11.8821C10.7872 11.8821 11.2173 11.8647 11.4477 11.8256L11.4143 11.6284ZM10.1736 11.6821V11.4821C9.87092 11.4821 9.66426 11.4582 9.53961 11.4198C9.40248 11.3776 9.44976 11.3504 9.44976 11.3975H9.24976H9.04976C9.04976 11.6343 9.25101 11.7495 9.42182 11.8021C9.6051 11.8586 9.86036 11.8821 10.1736 11.8821V11.6821ZM9.24976 11.3975H9.44976C9.44976 11.4137 9.44715 11.4259 9.44524 11.4328C9.44329 11.4399 9.44139 11.444 9.44108 11.4446C9.44071 11.4454 9.44334 11.4399 9.45273 11.4273C9.47159 11.4018 9.50513 11.3641 9.55807 11.3129C9.66309 11.2112 9.82561 11.074 10.0493 10.9001L9.92651 10.7422L9.80373 10.5843C9.57625 10.7612 9.40038 10.9088 9.27982 11.0255C9.21997 11.0835 9.16891 11.1384 9.13138 11.1891C9.11257 11.2144 9.09405 11.2429 9.07958 11.2734C9.06597 11.3021 9.04976 11.3455 9.04976 11.3975H9.24976ZM9.92651 10.7422L10.0507 10.899C10.2445 10.7455 10.5104 10.4402 10.8429 10.0041L10.6838 9.88281L10.5248 9.76156C10.1912 10.1991 9.95226 10.4667 9.80237 10.5854L9.92651 10.7422ZM10.6838 9.88281L10.8433 10.0035C11.2508 9.46499 11.5591 9.03425 11.7663 8.71288C11.8698 8.55252 11.9504 8.41573 12.0059 8.30422C12.0337 8.24848 12.0568 8.19584 12.0733 8.14752C12.0889 8.10179 12.1031 8.04748 12.1031 7.99219H11.9031H11.7031C11.7031 7.98344 11.7045 7.98956 11.6948 8.01813C11.6859 8.04411 11.6709 8.07965 11.6478 8.12596C11.6017 8.21855 11.53 8.34136 11.4302 8.4961C11.231 8.80495 10.9297 9.22641 10.5243 9.76213L10.6838 9.88281ZM11.9031 7.99219H12.1031C12.1031 7.88223 12.0529 7.75235 11.992 7.6258C11.9264 7.4896 11.8306 7.32269 11.707 7.12678C11.4593 6.73437 11.0905 6.21072 10.6023 5.55753L10.4421 5.67725L10.2819 5.79696C10.7678 6.44715 11.1294 6.96103 11.3687 7.34026C11.4886 7.53017 11.5754 7.68262 11.6316 7.79931C11.6596 7.85763 11.6786 7.90394 11.6901 7.93938C11.7024 7.97696 11.7031 7.99238 11.7031 7.99219H11.9031ZM10.4421 5.67725L10.6021 5.55725C10.3851 5.26782 10.1307 5.02465 9.83923 4.82904L9.72778 4.99512L9.61634 5.16119C9.86911 5.33081 10.091 5.5424 10.2821 5.79725L10.4421 5.67725ZM9.72778 4.99512L9.84174 4.83076C9.71347 4.74182 9.62709 4.66798 9.57485 4.60947C9.51786 4.54565 9.52495 4.52639 9.52495 4.54395H9.32495H9.12495C9.12495 4.67608 9.19918 4.78931 9.27647 4.87588C9.35851 4.96776 9.47354 5.06221 9.61383 5.15948L9.72778 4.99512ZM9.32495 4.54395H9.52495C9.52495 4.53494 9.52648 4.53294 9.52577 4.5345C9.52496 4.53628 9.52459 4.53545 9.52872 4.53198C9.5399 4.5226 9.57486 4.50225 9.65747 4.48897L9.62573 4.2915L9.594 4.09404C9.47609 4.11299 9.36065 4.15083 9.27157 4.22559C9.17415 4.30736 9.12495 4.41949 9.12495 4.54395H9.32495ZM9.62573 4.2915L9.65733 4.48899C9.99811 4.43447 10.5962 4.40557 11.4626 4.40557V4.20557V4.00557C10.596 4.00557 9.9695 4.03396 9.59413 4.09402L9.62573 4.2915ZM11.4626 4.20557V4.40557H11.699V4.20557V4.00557H11.4626V4.20557ZM11.699 4.20557V4.40557C11.8441 4.40557 11.9314 4.4314 11.9809 4.46184L12.0857 4.2915L12.1905 4.12117C12.0538 4.03702 11.8833 4.00557 11.699 4.00557V4.20557ZM12.0857 4.2915L11.9886 4.46634C11.9903 4.46729 11.9989 4.47149 12.009 4.49651C12.0203 4.52472 12.0307 4.57354 12.0307 4.65137H12.2307H12.4307C12.4307 4.44421 12.378 4.22511 12.1828 4.11667L12.0857 4.2915ZM12.2307 4.65137H12.0307C12.0307 4.63922 12.0332 4.64372 12.0218 4.67427C12.0117 4.70146 11.9945 4.739 11.9683 4.78821L12.1448 4.88232L12.3212 4.97644C12.3523 4.91823 12.3781 4.86356 12.3967 4.81377C12.414 4.76733 12.4307 4.71006 12.4307 4.65137H12.2307ZM12.1448 4.88232L11.9697 4.78571C11.8984 4.91488 11.8588 5.05167 11.8588 5.19385H12.0588H12.2588C12.2588 5.12835 12.2766 5.05745 12.3199 4.97894L12.1448 4.88232ZM12.0588 5.19385H11.8588C11.8588 5.25918 11.8805 5.32601 11.9014 5.37946C11.9246 5.43863 11.9573 5.507 11.9977 5.58304C12.0786 5.73546 12.1976 5.93254 12.3528 6.17256L12.5208 6.06396L12.6887 5.95537C12.536 5.71915 12.424 5.53309 12.351 5.39548C12.3143 5.3265 12.2893 5.27312 12.274 5.23382C12.2564 5.1888 12.2588 5.18044 12.2588 5.19385H12.0588ZM12.5208 6.06396L12.3528 6.17256C12.5074 6.41161 12.6309 6.5943 12.7223 6.71837C12.7675 6.77978 12.8081 6.83119 12.8427 6.86887C12.8595 6.88724 12.8796 6.90748 12.9016 6.92468C12.9126 6.9333 12.9284 6.94457 12.9481 6.95442C12.9658 6.96327 13.001 6.97832 13.0471 6.97832V6.77832V6.57832C13.0879 6.57832 13.1167 6.59151 13.127 6.59664C13.1392 6.60277 13.1465 6.60846 13.148 6.60964C13.151 6.61195 13.1479 6.60987 13.1374 6.59848C13.1174 6.57663 13.0868 6.53875 13.0443 6.48109C12.9603 6.36705 12.8421 6.19256 12.6887 5.95537L12.5208 6.06396Z" fill="#817D72" mask="url(#path-2-outside-1_78_7813)"/>
</g>
<defs>
<filter id="filter0_d_78_7813" x="0" y="0" width="20.7544" height="15.8928" filterUnits="userSpaceOnUse" color-interpolation-filters="sRGB">
<feFlood flood-opacity="0" result="BackgroundImageFix"/>
<feColorMatrix in="SourceAlpha" type="matrix" values="0 0 0 0 0 0 0 0 0 0 0 0 0 0 0 0 0 0 127 0" result="hardAlpha"/>
<feOffset/>
<feGaussianBlur stdDeviation="2"/>
<feComposite in2="hardAlpha" operator="out"/>
<feColorMatrix type="matrix" values="0 0 0 0 0 0 0 0 0 0 0 0 0 0 0 0 0 0 0.8 0"/>
<feBlend mode="normal" in2="BackgroundImageFix" result="effect1_dropShadow_78_7813"/>
<feBlend mode="normal" in="SourceGraphic" in2="effect1_dropShadow_78_7813" result="shape"/>
</filter>
</defs>
</svg>
