<svg width="23" height="16" viewBox="0 0 23 16" fill="none" xmlns="http://www.w3.org/2000/svg">
<path d="M10.5867 0.981546C10.8961 0.802913 11.2773 0.802913 11.5867 0.981546L16.6488 3.9042C16.9582 4.08283 17.1488 4.41296 17.1488 4.77022V10.6155C17.1488 10.9728 16.9582 11.3029 16.6488 11.4815L11.5867 14.4042C11.2773 14.5828 10.8961 14.5828 10.5867 14.4042L5.52449 11.4815C5.21509 11.3029 5.02449 10.9728 5.02449 10.6155V4.77022C5.02449 4.41296 5.21509 4.08283 5.52449 3.9042L10.5867 0.981546Z" fill="#43D74F"/>
<g filter="url(#filter0_d_78_7804)">
<mask id="path-2-outside-1_78_7804" maskUnits="userSpaceOnUse" x="3.08667" y="3.69287" width="16" height="9" fill="black">
<rect fill="white" x="3.08667" y="3.69287" width="16" height="9"/>
<path d="M4.90894 11.623C4.4506 11.623 4.22144 11.5496 4.22144 11.4028C4.22144 11.256 4.3396 11.1003 4.57593 10.9355C4.81584 10.7673 4.96265 10.5793 5.01636 10.3716C5.07007 10.1639 5.09692 9.34391 5.09692 7.91162C5.09692 6.47575 5.0826 5.70231 5.05396 5.59131C4.9895 5.33708 4.86776 5.1473 4.68872 5.02197C4.36287 4.79281 4.19995 4.61377 4.19995 4.48486V4.40967C4.19995 4.28076 4.65112 4.21631 5.55347 4.21631L5.9187 4.2002H6.28394L6.40747 4.20557H6.53101C6.93921 4.20557 7.18628 4.22168 7.27222 4.25391C7.36174 4.28255 7.40649 4.37386 7.40649 4.52783C7.40649 4.62093 7.27401 4.7749 7.00903 4.98975C6.8658 5.10791 6.76912 5.2762 6.71899 5.49463C6.66886 5.71305 6.6438 6.55632 6.6438 8.02441C6.6438 9.49251 6.66349 10.3071 6.70288 10.4683C6.74227 10.6294 6.87118 10.8031 7.0896 10.9893C7.30802 11.1755 7.41724 11.3294 7.41724 11.4512C7.41724 11.5944 7.27401 11.666 6.98755 11.666H6.61157L6.48804 11.6606H6.2356L5.87036 11.6499L5.38696 11.6392L5.15063 11.6284C5.07186 11.6248 4.99129 11.623 4.90894 11.623ZM10.1628 11.623C9.70451 11.623 9.47534 11.5496 9.47534 11.4028C9.47534 11.256 9.59351 11.1003 9.82983 10.9355C10.0697 10.7673 10.2166 10.5793 10.2703 10.3716C10.324 10.1639 10.3508 9.34391 10.3508 7.91162C10.3508 6.47575 10.3365 5.70231 10.3079 5.59131C10.2434 5.33708 10.1217 5.1473 9.94263 5.02197C9.61678 4.79281 9.45386 4.61377 9.45386 4.48486V4.40967C9.45386 4.28076 9.90503 4.21631 10.8074 4.21631L11.1726 4.2002H11.5378L11.6614 4.20557H11.7849C12.1931 4.20557 12.4402 4.22168 12.5261 4.25391C12.6156 4.28255 12.6604 4.37386 12.6604 4.52783C12.6604 4.62093 12.5279 4.7749 12.2629 4.98975C12.1197 5.10791 12.023 5.2762 11.9729 5.49463C11.9228 5.71305 11.8977 6.55632 11.8977 8.02441C11.8977 9.49251 11.9174 10.3071 11.9568 10.4683C11.9962 10.6294 12.1251 10.8031 12.3435 10.9893C12.5619 11.1755 12.6711 11.3294 12.6711 11.4512C12.6711 11.5944 12.5279 11.666 12.2415 11.666H11.8655L11.7419 11.6606H11.4895L11.1243 11.6499L10.6409 11.6392L10.4045 11.6284C10.3258 11.6248 10.2452 11.623 10.1628 11.623ZM15.4167 11.623C14.9584 11.623 14.7292 11.5496 14.7292 11.4028C14.7292 11.256 14.8474 11.1003 15.0837 10.9355C15.3236 10.7673 15.4705 10.5793 15.5242 10.3716C15.5779 10.1639 15.6047 9.34391 15.6047 7.91162C15.6047 6.47575 15.5904 5.70231 15.5618 5.59131C15.4973 5.33708 15.3756 5.1473 15.1965 5.02197C14.8707 4.79281 14.7078 4.61377 14.7078 4.48486V4.40967C14.7078 4.28076 15.1589 4.21631 16.0613 4.21631L16.4265 4.2002H16.7917L16.9153 4.20557H17.0388C17.447 4.20557 17.6941 4.22168 17.78 4.25391C17.8695 4.28255 17.9143 4.37386 17.9143 4.52783C17.9143 4.62093 17.7818 4.7749 17.5168 4.98975C17.3736 5.10791 17.2769 5.2762 17.2268 5.49463C17.1767 5.71305 17.1516 6.55632 17.1516 8.02441C17.1516 9.49251 17.1713 10.3071 17.2107 10.4683C17.2501 10.6294 17.379 10.8031 17.5974 10.9893C17.8158 11.1755 17.925 11.3294 17.925 11.4512C17.925 11.5944 17.7818 11.666 17.4954 11.666H17.1194L16.9958 11.6606H16.7434L16.3782 11.6499L15.8948 11.6392L15.6584 11.6284C15.5797 11.6248 15.4991 11.623 15.4167 11.623Z"/>
</mask>
<path d="M4.90894 11.623C4.4506 11.623 4.22144 11.5496 4.22144 11.4028C4.22144 11.256 4.3396 11.1003 4.57593 10.9355C4.81584 10.7673 4.96265 10.5793 5.01636 10.3716C5.07007 10.1639 5.09692 9.34391 5.09692 7.91162C5.09692 6.47575 5.0826 5.70231 5.05396 5.59131C4.9895 5.33708 4.86776 5.1473 4.68872 5.02197C4.36287 4.79281 4.19995 4.61377 4.19995 4.48486V4.40967C4.19995 4.28076 4.65112 4.21631 5.55347 4.21631L5.9187 4.2002H6.28394L6.40747 4.20557H6.53101C6.93921 4.20557 7.18628 4.22168 7.27222 4.25391C7.36174 4.28255 7.40649 4.37386 7.40649 4.52783C7.40649 4.62093 7.27401 4.7749 7.00903 4.98975C6.8658 5.10791 6.76912 5.2762 6.71899 5.49463C6.66886 5.71305 6.6438 6.55632 6.6438 8.02441C6.6438 9.49251 6.66349 10.3071 6.70288 10.4683C6.74227 10.6294 6.87118 10.8031 7.0896 10.9893C7.30802 11.1755 7.41724 11.3294 7.41724 11.4512C7.41724 11.5944 7.27401 11.666 6.98755 11.666H6.61157L6.48804 11.6606H6.2356L5.87036 11.6499L5.38696 11.6392L5.15063 11.6284C5.07186 11.6248 4.99129 11.623 4.90894 11.623ZM10.1628 11.623C9.70451 11.623 9.47534 11.5496 9.47534 11.4028C9.47534 11.256 9.59351 11.1003 9.82983 10.9355C10.0697 10.7673 10.2166 10.5793 10.2703 10.3716C10.324 10.1639 10.3508 9.34391 10.3508 7.91162C10.3508 6.47575 10.3365 5.70231 10.3079 5.59131C10.2434 5.33708 10.1217 5.1473 9.94263 5.02197C9.61678 4.79281 9.45386 4.61377 9.45386 4.48486V4.40967C9.45386 4.28076 9.90503 4.21631 10.8074 4.21631L11.1726 4.2002H11.5378L11.6614 4.20557H11.7849C12.1931 4.20557 12.4402 4.22168 12.5261 4.25391C12.6156 4.28255 12.6604 4.37386 12.6604 4.52783C12.6604 4.62093 12.5279 4.7749 12.2629 4.98975C12.1197 5.10791 12.023 5.2762 11.9729 5.49463C11.9228 5.71305 11.8977 6.55632 11.8977 8.02441C11.8977 9.49251 11.9174 10.3071 11.9568 10.4683C11.9962 10.6294 12.1251 10.8031 12.3435 10.9893C12.5619 11.1755 12.6711 11.3294 12.6711 11.4512C12.6711 11.5944 12.5279 11.666 12.2415 11.666H11.8655L11.7419 11.6606H11.4895L11.1243 11.6499L10.6409 11.6392L10.4045 11.6284C10.3258 11.6248 10.2452 11.623 10.1628 11.623ZM15.4167 11.623C14.9584 11.623 14.7292 11.5496 14.7292 11.4028C14.7292 11.256 14.8474 11.1003 15.0837 10.9355C15.3236 10.7673 15.4705 10.5793 15.5242 10.3716C15.5779 10.1639 15.6047 9.34391 15.6047 7.91162C15.6047 6.47575 15.5904 5.70231 15.5618 5.59131C15.4973 5.33708 15.3756 5.1473 15.1965 5.02197C14.8707 4.79281 14.7078 4.61377 14.7078 4.48486V4.40967C14.7078 4.28076 15.1589 4.21631 16.0613 4.21631L16.4265 4.2002H16.7917L16.9153 4.20557H17.0388C17.447 4.20557 17.6941 4.22168 17.78 4.25391C17.8695 4.28255 17.9143 4.37386 17.9143 4.52783C17.9143 4.62093 17.7818 4.7749 17.5168 4.98975C17.3736 5.10791 17.2769 5.2762 17.2268 5.49463C17.1767 5.71305 17.1516 6.55632 17.1516 8.02441C17.1516 9.49251 17.1713 10.3071 17.2107 10.4683C17.2501 10.6294 17.379 10.8031 17.5974 10.9893C17.8158 11.1755 17.925 11.3294 17.925 11.4512C17.925 11.5944 17.7818 11.666 17.4954 11.666H17.1194L16.9958 11.6606H16.7434L16.3782 11.6499L15.8948 11.6392L15.6584 11.6284C15.5797 11.6248 15.4991 11.623 15.4167 11.623Z" fill="#CBFFC9"/>
<path d="M4.57593 10.9355L4.69029 11.0996L4.69078 11.0993L4.57593 10.9355ZM5.05396 5.59131L4.86009 5.64046L4.8603 5.64128L5.05396 5.59131ZM4.68872 5.02197L4.57367 5.18557L4.57403 5.18582L4.68872 5.02197ZM5.55347 4.21631V4.4165L5.56228 4.41611L5.55347 4.21631ZM5.9187 4.2002V4L5.90989 4.00039L5.9187 4.2002ZM6.28394 4.2002L6.29263 4.0002H6.28394V4.2002ZM6.40747 4.20557L6.39878 4.40557H6.40747V4.20557ZM7.27222 4.25391L7.20191 4.4414L7.21126 4.44439L7.27222 4.25391ZM7.00903 4.98975L6.88307 4.83439L6.88176 4.83547L7.00903 4.98975ZM6.61157 11.666L6.60288 11.866H6.61157V11.666ZM6.48804 11.6606L6.49673 11.4606H6.48804V11.6606ZM6.2356 11.6606L6.22971 11.8606H6.2356V11.6606ZM5.87036 11.6499L5.87624 11.45L5.8748 11.45L5.87036 11.6499ZM5.38696 11.6392L5.37788 11.839L5.38252 11.8391L5.38696 11.6392ZM4.90894 11.623V11.423C4.68532 11.423 4.53863 11.4045 4.45432 11.3775C4.36126 11.3477 4.42144 11.3387 4.42144 11.4028H4.22144H4.02144C4.02144 11.6137 4.19619 11.7149 4.3323 11.7585C4.47715 11.8049 4.67422 11.823 4.90894 11.823V11.623ZM4.22144 11.4028H4.42144C4.42144 11.3636 4.45972 11.2603 4.69029 11.0996L4.57593 10.9355L4.46157 10.7715C4.21948 10.9402 4.02144 11.1484 4.02144 11.4028H4.22144ZM4.57593 10.9355L4.69078 11.0993C4.95536 10.9137 5.14063 10.6898 5.20999 10.4217L5.01636 10.3716L4.82273 10.3215C4.78466 10.4687 4.67631 10.6208 4.46107 10.7718L4.57593 10.9355ZM5.01636 10.3716L5.20999 10.4217C5.22826 10.351 5.24092 10.2451 5.25099 10.1166C5.2614 9.98394 5.26991 9.81386 5.27668 9.60738C5.29021 9.19418 5.29692 8.6286 5.29692 7.91162H5.09692H4.89692C4.89692 8.62693 4.89021 9.1875 4.87689 9.59428C4.87022 9.79779 4.86195 9.96117 4.85222 10.0854C4.84215 10.2138 4.83131 10.2883 4.82273 10.3215L5.01636 10.3716ZM5.09692 7.91162H5.29692C5.29692 7.1933 5.29334 6.63952 5.28615 6.25094C5.28255 6.05681 5.27803 5.90256 5.27252 5.78906C5.2675 5.68575 5.26102 5.59328 5.24761 5.54133L5.05396 5.59131L4.8603 5.64128C4.85939 5.63775 4.8617 5.64737 4.86484 5.68204C4.86762 5.71271 4.87037 5.75456 4.87299 5.80847C4.87822 5.91609 4.88265 6.06575 4.88622 6.25834C4.89334 6.6432 4.89692 7.19407 4.89692 7.91162H5.09692ZM5.05396 5.59131L5.24782 5.54216C5.17405 5.25118 5.02926 5.01622 4.80341 4.85813L4.68872 5.02197L4.57403 5.18582C4.70626 5.27838 4.80495 5.42297 4.86009 5.64046L5.05396 5.59131ZM4.68872 5.02197L4.80377 4.85838C4.64622 4.74757 4.5374 4.65521 4.47006 4.58121C4.39613 4.49996 4.39995 4.47111 4.39995 4.48486H4.19995H3.99995C3.99995 4.62752 4.08524 4.75264 4.17422 4.85043C4.26981 4.95547 4.40538 5.06721 4.57367 5.18557L4.68872 5.02197ZM4.19995 4.48486H4.39995V4.40967H4.19995H3.99995V4.48486H4.19995ZM4.19995 4.40967H4.39995C4.39995 4.51178 4.31235 4.53075 4.36333 4.5089C4.39526 4.49522 4.45906 4.478 4.56661 4.46264C4.77767 4.43249 5.10449 4.41631 5.55347 4.41631V4.21631V4.01631C5.1001 4.01631 4.75017 4.03236 4.51005 4.06666C4.39201 4.08352 4.28663 4.10659 4.20576 4.14124C4.14395 4.16773 3.99995 4.2431 3.99995 4.40967H4.19995ZM5.55347 4.21631L5.56228 4.41611L5.92752 4.4L5.9187 4.2002L5.90989 4.00039L5.54465 4.0165L5.55347 4.21631ZM5.9187 4.2002V4.4002H6.28394V4.2002V4.0002H5.9187V4.2002ZM6.28394 4.2002L6.27525 4.40001L6.39878 4.40538L6.40747 4.20557L6.41616 4.00575L6.29262 4.00038L6.28394 4.2002ZM6.40747 4.20557V4.40557H6.53101V4.20557V4.00557H6.40747V4.20557ZM6.53101 4.20557V4.40557C6.73315 4.40557 6.89211 4.40957 7.00945 4.41723C7.06816 4.42106 7.11421 4.42566 7.14882 4.43068C7.16603 4.43318 7.17918 4.43561 7.18883 4.43777C7.19891 4.44002 7.20264 4.44141 7.20199 4.44117L7.27222 4.25391L7.34244 4.06664C7.26793 4.0387 7.15618 4.02595 7.03548 4.01808C6.90575 4.00961 6.73706 4.00557 6.53101 4.00557V4.20557ZM7.27222 4.25391L7.21126 4.44439C7.20812 4.44338 7.20279 4.44082 7.19772 4.43629C7.19292 4.43201 7.19205 4.42926 7.19334 4.4319C7.19716 4.4397 7.20649 4.46707 7.20649 4.52783H7.40649H7.60649C7.60649 4.35119 7.55364 4.13397 7.33317 4.06342L7.27222 4.25391ZM7.40649 4.52783H7.20649C7.20649 4.50561 7.21361 4.49923 7.20539 4.51455C7.19803 4.52828 7.18298 4.55078 7.15553 4.58269C7.10054 4.64659 7.01162 4.73017 6.88307 4.83439L7.00903 4.98975L7.13499 5.1451C7.27142 5.03448 7.38123 4.93365 7.45873 4.84358C7.49752 4.79851 7.53215 4.75162 7.55791 4.70359C7.58282 4.65714 7.60649 4.5966 7.60649 4.52783H7.40649ZM7.00903 4.98975L6.88176 4.83547C6.69792 4.98714 6.58195 5.19765 6.52406 5.44989L6.71899 5.49463L6.91393 5.53937C6.9563 5.35476 7.03369 5.22868 7.13631 5.14402L7.00903 4.98975ZM6.71899 5.49463L6.52406 5.44989C6.49365 5.5824 6.47502 5.86992 6.46269 6.28495C6.45007 6.70949 6.4438 7.2896 6.4438 8.02441H6.6438H6.8438C6.8438 7.29113 6.85006 6.71556 6.86251 6.29684C6.87524 5.8686 6.89421 5.62529 6.91393 5.53937L6.71899 5.49463ZM6.6438 8.02441H6.4438C6.4438 8.75902 6.44872 9.33157 6.45863 9.74128C6.46358 9.946 6.4698 10.1115 6.4774 10.237C6.48461 10.3561 6.49379 10.4552 6.5086 10.5158L6.70288 10.4683L6.89716 10.4208C6.89227 10.4008 6.88422 10.3376 6.87667 10.2128C6.86949 10.0943 6.86341 9.93421 6.85851 9.73162C6.84872 9.32671 6.8438 8.75791 6.8438 8.02441H6.6438ZM6.70288 10.4683L6.5086 10.5158C6.56293 10.738 6.73027 10.9458 6.95985 11.1415L7.0896 10.9893L7.21935 10.8371C7.01208 10.6604 6.92161 10.5208 6.89716 10.4208L6.70288 10.4683ZM7.0896 10.9893L6.95985 11.1415C7.06227 11.2288 7.13075 11.3017 7.1722 11.3601C7.21513 11.4206 7.21724 11.4489 7.21724 11.4512H7.41724H7.61724C7.61724 11.3317 7.56474 11.2221 7.49846 11.1287C7.43069 11.0331 7.33535 10.9359 7.21935 10.8371L7.0896 10.9893ZM7.41724 11.4512H7.21724C7.21724 11.452 7.21761 11.4438 7.22397 11.4342C7.2295 11.4259 7.23245 11.4274 7.22037 11.4334C7.19055 11.4483 7.12056 11.466 6.98755 11.466V11.666V11.866C7.14099 11.866 7.28585 11.8479 7.39926 11.7912C7.45879 11.7614 7.51546 11.7181 7.55679 11.6561C7.59896 11.5929 7.61724 11.522 7.61724 11.4512H7.41724ZM6.98755 11.666V11.466H6.61157V11.666V11.866H6.98755V11.666ZM6.61157 11.666L6.62026 11.4662L6.49672 11.4608L6.48804 11.6606L6.47935 11.8605L6.60288 11.8658L6.61157 11.666ZM6.48804 11.6606V11.4606H6.2356V11.6606V11.8606H6.48804V11.6606ZM6.2356 11.6606L6.24148 11.4607L5.87624 11.45L5.87036 11.6499L5.86448 11.8498L6.22972 11.8606L6.2356 11.6606ZM5.87036 11.6499L5.8748 11.45L5.39141 11.4392L5.38696 11.6392L5.38252 11.8391L5.86592 11.8499L5.87036 11.6499ZM5.38696 11.6392L5.39604 11.4394L5.15972 11.4286L5.15063 11.6284L5.14155 11.8282L5.37788 11.839L5.38696 11.6392ZM5.15063 11.6284L5.15972 11.4286C5.07779 11.4249 4.99419 11.423 4.90894 11.423V11.623V11.823C4.9884 11.823 5.06593 11.8248 5.14155 11.8282L5.15063 11.6284ZM9.82983 10.9355L9.94419 11.0996L9.94469 11.0993L9.82983 10.9355ZM10.3079 5.59131L10.114 5.64046L10.1142 5.64128L10.3079 5.59131ZM9.94263 5.02197L9.82757 5.18557L9.82793 5.18582L9.94263 5.02197ZM10.8074 4.21631V4.4165L10.8162 4.41611L10.8074 4.21631ZM11.1726 4.2002V4L11.1638 4.00039L11.1726 4.2002ZM11.5378 4.2002L11.5465 4.0002H11.5378V4.2002ZM11.6614 4.20557L11.6527 4.40557H11.6614V4.20557ZM12.5261 4.25391L12.4558 4.4414L12.4652 4.44439L12.5261 4.25391ZM12.2629 4.98975L12.137 4.83439L12.1357 4.83547L12.2629 4.98975ZM11.8655 11.666L11.8568 11.866H11.8655V11.666ZM11.7419 11.6606L11.7506 11.4606H11.7419V11.6606ZM11.4895 11.6606L11.4836 11.8606H11.4895V11.6606ZM11.1243 11.6499L11.1301 11.45L11.1287 11.45L11.1243 11.6499ZM10.6409 11.6392L10.6318 11.839L10.6364 11.8391L10.6409 11.6392ZM10.1628 11.623V11.423C9.93922 11.423 9.79254 11.4045 9.70823 11.3775C9.61517 11.3477 9.67534 11.3387 9.67534 11.4028H9.47534H9.27534C9.27534 11.6137 9.4501 11.7149 9.58621 11.7585C9.73106 11.8049 9.92813 11.823 10.1628 11.823V11.623ZM9.47534 11.4028H9.67534C9.67534 11.3636 9.71362 11.2603 9.94419 11.0996L9.82983 10.9355L9.71548 10.7715C9.47339 10.9402 9.27534 11.1484 9.27534 11.4028H9.47534ZM9.82983 10.9355L9.94469 11.0993C10.2093 10.9137 10.3945 10.6898 10.4639 10.4217L10.2703 10.3716L10.0766 10.3215C10.0386 10.4687 9.93022 10.6208 9.71498 10.7718L9.82983 10.9355ZM10.2703 10.3716L10.4639 10.4217C10.4822 10.351 10.4948 10.2451 10.5049 10.1166C10.5153 9.98394 10.5238 9.81386 10.5306 9.60738C10.5441 9.19418 10.5508 8.6286 10.5508 7.91162H10.3508H10.1508C10.1508 8.62693 10.1441 9.1875 10.1308 9.59428C10.1241 9.79779 10.1159 9.96117 10.1061 10.0854C10.0961 10.2138 10.0852 10.2883 10.0766 10.3215L10.2703 10.3716ZM10.3508 7.91162H10.5508C10.5508 7.1933 10.5472 6.63952 10.5401 6.25094C10.5365 6.05681 10.5319 5.90256 10.5264 5.78906C10.5214 5.68575 10.5149 5.59328 10.5015 5.54133L10.3079 5.59131L10.1142 5.64128C10.1133 5.63775 10.1156 5.64737 10.1187 5.68204C10.1215 5.71271 10.1243 5.75456 10.1269 5.80847C10.1321 5.91609 10.1366 6.06575 10.1401 6.25834C10.1472 6.6432 10.1508 7.19407 10.1508 7.91162H10.3508ZM10.3079 5.59131L10.5017 5.54216C10.428 5.25118 10.2832 5.01622 10.0573 4.85813L9.94263 5.02197L9.82793 5.18582C9.96016 5.27838 10.0589 5.42297 10.114 5.64046L10.3079 5.59131ZM9.94263 5.02197L10.0577 4.85838C9.90012 4.74757 9.79131 4.65521 9.72397 4.58121C9.65003 4.49996 9.65386 4.47111 9.65386 4.48486H9.45386H9.25386C9.25386 4.62752 9.33914 4.75264 9.42813 4.85043C9.52371 4.95547 9.65929 5.06721 9.82757 5.18557L9.94263 5.02197ZM9.45386 4.48486H9.65386V4.40967H9.45386H9.25386V4.48486H9.45386ZM9.45386 4.40967H9.65386C9.65386 4.51178 9.56625 4.53075 9.61724 4.5089C9.64916 4.49522 9.71297 4.478 9.82052 4.46264C10.0316 4.43249 10.3584 4.41631 10.8074 4.41631V4.21631V4.01631C10.354 4.01631 10.0041 4.03236 9.76395 4.06666C9.64592 4.08352 9.54053 4.10659 9.45967 4.14124C9.39786 4.16773 9.25386 4.2431 9.25386 4.40967H9.45386ZM10.8074 4.21631L10.8162 4.41611L11.1814 4.4L11.1726 4.2002L11.1638 4.00039L10.7986 4.0165L10.8074 4.21631ZM11.1726 4.2002V4.4002H11.5378V4.2002V4.0002H11.1726V4.2002ZM11.5378 4.2002L11.5292 4.40001L11.6527 4.40538L11.6614 4.20557L11.6701 4.00575L11.5465 4.00038L11.5378 4.2002ZM11.6614 4.20557V4.40557H11.7849V4.20557V4.00557H11.6614V4.20557ZM11.7849 4.20557V4.40557C11.9871 4.40557 12.146 4.40957 12.2634 4.41723C12.3221 4.42106 12.3681 4.42566 12.4027 4.43068C12.4199 4.43318 12.4331 4.43561 12.4427 4.43777C12.4528 4.44002 12.4565 4.44141 12.4559 4.44117L12.5261 4.25391L12.5963 4.06664C12.5218 4.0387 12.4101 4.02595 12.2894 4.01808C12.1597 4.00961 11.991 4.00557 11.7849 4.00557V4.20557ZM12.5261 4.25391L12.4652 4.44439C12.462 4.44338 12.4567 4.44082 12.4516 4.43629C12.4468 4.43201 12.446 4.42926 12.4472 4.4319C12.4511 4.4397 12.4604 4.46707 12.4604 4.52783H12.6604H12.8604C12.8604 4.35119 12.8075 4.13397 12.5871 4.06342L12.5261 4.25391ZM12.6604 4.52783H12.4604C12.4604 4.50561 12.4675 4.49923 12.4593 4.51455C12.4519 4.52828 12.4369 4.55078 12.4094 4.58269C12.3544 4.64659 12.2655 4.73017 12.137 4.83439L12.2629 4.98975L12.3889 5.1451C12.5253 5.03448 12.6351 4.93365 12.7126 4.84358C12.7514 4.79851 12.7861 4.75162 12.8118 4.70359C12.8367 4.65714 12.8604 4.5966 12.8604 4.52783H12.6604ZM12.2629 4.98975L12.1357 4.83547C11.9518 4.98714 11.8359 5.19765 11.778 5.44989L11.9729 5.49463L12.1678 5.53937C12.2102 5.35476 12.2876 5.22868 12.3902 5.14402L12.2629 4.98975ZM11.9729 5.49463L11.778 5.44989C11.7476 5.5824 11.7289 5.86992 11.7166 6.28495C11.704 6.70949 11.6977 7.2896 11.6977 8.02441H11.8977H12.0977C12.0977 7.29113 12.104 6.71556 12.1164 6.29684C12.1291 5.8686 12.1481 5.62529 12.1678 5.53937L11.9729 5.49463ZM11.8977 8.02441H11.6977C11.6977 8.75902 11.7026 9.33157 11.7125 9.74128C11.7175 9.946 11.7237 10.1115 11.7313 10.237C11.7385 10.3561 11.7477 10.4552 11.7625 10.5158L11.9568 10.4683L12.1511 10.4208C12.1462 10.4008 12.1381 10.3376 12.1306 10.2128C12.1234 10.0943 12.1173 9.93421 12.1124 9.73162C12.1026 9.32671 12.0977 8.75791 12.0977 8.02441H11.8977ZM11.9568 10.4683L11.7625 10.5158C11.8168 10.738 11.9842 10.9458 12.2138 11.1415L12.3435 10.9893L12.4733 10.8371C12.266 10.6604 12.1755 10.5208 12.1511 10.4208L11.9568 10.4683ZM12.3435 10.9893L12.2138 11.1415C12.3162 11.2288 12.3847 11.3017 12.4261 11.3601C12.469 11.4206 12.4711 11.4489 12.4711 11.4512H12.6711H12.8711C12.8711 11.3317 12.8186 11.2221 12.7524 11.1287C12.6846 11.0331 12.5893 10.9359 12.4733 10.8371L12.3435 10.9893ZM12.6711 11.4512H12.4711C12.4711 11.452 12.4715 11.4438 12.4779 11.4342C12.4834 11.4259 12.4864 11.4274 12.4743 11.4334C12.4445 11.4483 12.3745 11.466 12.2415 11.466V11.666V11.866C12.3949 11.866 12.5398 11.8479 12.6532 11.7912C12.7127 11.7614 12.7694 11.7181 12.8107 11.6561C12.8529 11.5929 12.8711 11.522 12.8711 11.4512H12.6711ZM12.2415 11.666V11.466H11.8655V11.666V11.866H12.2415V11.666ZM11.8655 11.666L11.8742 11.4662L11.7506 11.4608L11.7419 11.6606L11.7333 11.8605L11.8568 11.8658L11.8655 11.666ZM11.7419 11.6606V11.4606H11.4895V11.6606V11.8606H11.7419V11.6606ZM11.4895 11.6606L11.4954 11.4607L11.1301 11.45L11.1243 11.6499L11.1184 11.8498L11.4836 11.8606L11.4895 11.6606ZM11.1243 11.6499L11.1287 11.45L10.6453 11.4392L10.6409 11.6392L10.6364 11.8391L11.1198 11.8499L11.1243 11.6499ZM10.6409 11.6392L10.65 11.4394L10.4136 11.4286L10.4045 11.6284L10.3955 11.8282L10.6318 11.839L10.6409 11.6392ZM10.4045 11.6284L10.4136 11.4286C10.3317 11.4249 10.2481 11.423 10.1628 11.423V11.623V11.823C10.2423 11.823 10.3198 11.8248 10.3955 11.8282L10.4045 11.6284ZM15.0837 10.9355L15.1981 11.0996L15.1986 11.0993L15.0837 10.9355ZM15.5618 5.59131L15.3679 5.64046L15.3681 5.64128L15.5618 5.59131ZM15.1965 5.02197L15.0815 5.18557L15.0818 5.18582L15.1965 5.02197ZM16.0613 4.21631V4.4165L16.0701 4.41611L16.0613 4.21631ZM16.4265 4.2002V4L16.4177 4.00039L16.4265 4.2002ZM16.7917 4.2002L16.8004 4.0002H16.7917V4.2002ZM16.9153 4.20557L16.9066 4.40557H16.9153V4.20557ZM17.78 4.25391L17.7097 4.4414L17.7191 4.44439L17.78 4.25391ZM17.5168 4.98975L17.3909 4.83439L17.3896 4.83547L17.5168 4.98975ZM17.1194 11.666L17.1107 11.866H17.1194V11.666ZM16.9958 11.6606L17.0045 11.4606H16.9958V11.6606ZM16.7434 11.6606L16.7375 11.8606H16.7434V11.6606ZM16.3782 11.6499L16.3841 11.45L16.3826 11.45L16.3782 11.6499ZM15.8948 11.6392L15.8857 11.839L15.8903 11.8391L15.8948 11.6392ZM15.4167 11.623V11.423C15.1931 11.423 15.0464 11.4045 14.9621 11.3775C14.8691 11.3477 14.9292 11.3387 14.9292 11.4028H14.7292H14.5292C14.5292 11.6137 14.704 11.7149 14.8401 11.7585C14.985 11.8049 15.182 11.823 15.4167 11.823V11.623ZM14.7292 11.4028H14.9292C14.9292 11.3636 14.9675 11.2603 15.1981 11.0996L15.0837 10.9355L14.9694 10.7715C14.7273 10.9402 14.5292 11.1484 14.5292 11.4028H14.7292ZM15.0837 10.9355L15.1986 11.0993C15.4632 10.9137 15.6484 10.6898 15.7178 10.4217L15.5242 10.3716L15.3305 10.3215C15.2925 10.4687 15.1841 10.6208 14.9689 10.7718L15.0837 10.9355ZM15.5242 10.3716L15.7178 10.4217C15.7361 10.351 15.7487 10.2451 15.7588 10.1166C15.7692 9.98394 15.7777 9.81386 15.7845 9.60738C15.798 9.19418 15.8047 8.6286 15.8047 7.91162H15.6047H15.4047C15.4047 8.62693 15.398 9.1875 15.3847 9.59428C15.378 9.79779 15.3698 9.96117 15.36 10.0854C15.35 10.2138 15.3391 10.2883 15.3305 10.3215L15.5242 10.3716ZM15.6047 7.91162H15.8047C15.8047 7.1933 15.8012 6.63952 15.794 6.25094C15.7904 6.05681 15.7858 5.90256 15.7803 5.78906C15.7753 5.68575 15.7688 5.59328 15.7554 5.54133L15.5618 5.59131L15.3681 5.64128C15.3672 5.63775 15.3695 5.64737 15.3727 5.68204C15.3754 5.71271 15.3782 5.75456 15.3808 5.80847C15.386 5.91609 15.3905 6.06575 15.394 6.25834C15.4012 6.6432 15.4047 7.19407 15.4047 7.91162H15.6047ZM15.5618 5.59131L15.7556 5.54216C15.6819 5.25118 15.5371 5.01622 15.3112 4.85813L15.1965 5.02197L15.0818 5.18582C15.2141 5.27838 15.3128 5.42297 15.3679 5.64046L15.5618 5.59131ZM15.1965 5.02197L15.3116 4.85838C15.154 4.74757 15.0452 4.65521 14.9779 4.58121C14.9039 4.49996 14.9078 4.47111 14.9078 4.48486H14.7078H14.5078C14.5078 4.62752 14.593 4.75264 14.682 4.85043C14.7776 4.95547 14.9132 5.06721 15.0815 5.18557L15.1965 5.02197ZM14.7078 4.48486H14.9078V4.40967H14.7078H14.5078V4.48486H14.7078ZM14.7078 4.40967H14.9078C14.9078 4.51178 14.8202 4.53075 14.8711 4.5089C14.9031 4.49522 14.9669 4.478 15.0744 4.46264C15.2855 4.43249 15.6123 4.41631 16.0613 4.41631V4.21631V4.01631C15.6079 4.01631 15.258 4.03236 15.0179 4.06666C14.8998 4.08352 14.7944 4.10659 14.7136 4.14124C14.6518 4.16773 14.5078 4.2431 14.5078 4.40967H14.7078ZM16.0613 4.21631L16.0701 4.41611L16.4353 4.4L16.4265 4.2002L16.4177 4.00039L16.0525 4.0165L16.0613 4.21631ZM16.4265 4.2002V4.4002H16.7917V4.2002V4.0002H16.4265V4.2002ZM16.7917 4.2002L16.7831 4.40001L16.9066 4.40538L16.9153 4.20557L16.924 4.00575L16.8004 4.00038L16.7917 4.2002ZM16.9153 4.20557V4.40557H17.0388V4.20557V4.00557H16.9153V4.20557ZM17.0388 4.20557V4.40557C17.241 4.40557 17.3999 4.40957 17.5173 4.41723C17.576 4.42106 17.622 4.42566 17.6566 4.43068C17.6738 4.43318 17.687 4.43561 17.6966 4.43777C17.7067 4.44002 17.7104 4.44141 17.7098 4.44117L17.78 4.25391L17.8503 4.06664C17.7757 4.0387 17.664 4.02595 17.5433 4.01808C17.4136 4.00961 17.2449 4.00557 17.0388 4.00557V4.20557ZM17.78 4.25391L17.7191 4.44439C17.7159 4.44338 17.7106 4.44082 17.7055 4.43629C17.7007 4.43201 17.6999 4.42926 17.7012 4.4319C17.705 4.4397 17.7143 4.46707 17.7143 4.52783H17.9143H18.1143C18.1143 4.35119 18.0615 4.13397 17.841 4.06342L17.78 4.25391ZM17.9143 4.52783H17.7143C17.7143 4.50561 17.7214 4.49923 17.7132 4.51455C17.7058 4.52828 17.6908 4.55078 17.6633 4.58269C17.6084 4.64659 17.5194 4.73017 17.3909 4.83439L17.5168 4.98975L17.6428 5.1451C17.7792 5.03448 17.889 4.93365 17.9665 4.84358C18.0053 4.79851 18.04 4.75162 18.0657 4.70359C18.0906 4.65714 18.1143 4.5966 18.1143 4.52783H17.9143ZM17.5168 4.98975L17.3896 4.83547C17.2057 4.98714 17.0898 5.19765 17.0319 5.44989L17.2268 5.49463L17.4217 5.53937C17.4641 5.35476 17.5415 5.22868 17.6441 5.14402L17.5168 4.98975ZM17.2268 5.49463L17.0319 5.44989C17.0015 5.5824 16.9828 5.86992 16.9705 6.28495C16.9579 6.70949 16.9516 7.2896 16.9516 8.02441H17.1516H17.3516C17.3516 7.29113 17.3579 6.71556 17.3703 6.29684C17.3831 5.8686 17.402 5.62529 17.4217 5.53937L17.2268 5.49463ZM17.1516 8.02441H16.9516C16.9516 8.75902 16.9565 9.33157 16.9664 9.74128C16.9714 9.946 16.9776 10.1115 16.9852 10.237C16.9924 10.3561 17.0016 10.4552 17.0164 10.5158L17.2107 10.4683L17.405 10.4208C17.4001 10.4008 17.392 10.3376 17.3845 10.2128C17.3773 10.0943 17.3712 9.93421 17.3663 9.73162C17.3565 9.32671 17.3516 8.75791 17.3516 8.02441H17.1516ZM17.2107 10.4683L17.0164 10.5158C17.0707 10.738 17.2381 10.9458 17.4677 11.1415L17.5974 10.9893L17.7272 10.8371C17.5199 10.6604 17.4294 10.5208 17.405 10.4208L17.2107 10.4683ZM17.5974 10.9893L17.4677 11.1415C17.5701 11.2288 17.6386 11.3017 17.68 11.3601C17.7229 11.4206 17.725 11.4489 17.725 11.4512H17.925H18.125C18.125 11.3317 18.0726 11.2221 18.0063 11.1287C17.9385 11.0331 17.8432 10.9359 17.7272 10.8371L17.5974 10.9893ZM17.925 11.4512H17.725C17.725 11.452 17.7254 11.4438 17.7318 11.4342C17.7373 11.4259 17.7403 11.4274 17.7282 11.4334C17.6984 11.4483 17.6284 11.466 17.4954 11.466V11.666V11.866C17.6488 11.866 17.7937 11.8479 17.9071 11.7912C17.9666 11.7614 18.0233 11.7181 18.0646 11.6561C18.1068 11.5929 18.125 11.522 18.125 11.4512H17.925ZM17.4954 11.666V11.466H17.1194V11.666V11.866H17.4954V11.666ZM17.1194 11.666L17.1281 11.4662L17.0045 11.4608L16.9958 11.6606L16.9872 11.8605L17.1107 11.8658L17.1194 11.666ZM16.9958 11.6606V11.4606H16.7434V11.6606V11.8606H16.9958V11.6606ZM16.7434 11.6606L16.7493 11.4607L16.3841 11.45L16.3782 11.6499L16.3723 11.8498L16.7375 11.8606L16.7434 11.6606ZM16.3782 11.6499L16.3826 11.45L15.8992 11.4392L15.8948 11.6392L15.8903 11.8391L16.3737 11.8499L16.3782 11.6499ZM15.8948 11.6392L15.9039 11.4394L15.6675 11.4286L15.6584 11.6284L15.6494 11.8282L15.8857 11.839L15.8948 11.6392ZM15.6584 11.6284L15.6675 11.4286C15.5856 11.4249 15.502 11.423 15.4167 11.423V11.623V11.823C15.4962 11.823 15.5737 11.8248 15.6494 11.8282L15.6584 11.6284Z" fill="#CBFFC9" mask="url(#path-2-outside-1_78_7804)"/>
</g>
<defs>
<filter id="filter0_d_78_7804" x="0" y="0" width="22.125" height="15.866" filterUnits="userSpaceOnUse" color-interpolation-filters="sRGB">
<feFlood flood-opacity="0" result="BackgroundImageFix"/>
<feColorMatrix in="SourceAlpha" type="matrix" values="0 0 0 0 0 0 0 0 0 0 0 0 0 0 0 0 0 0 127 0" result="hardAlpha"/>
<feOffset/>
<feGaussianBlur stdDeviation="2"/>
<feComposite in2="hardAlpha" operator="out"/>
<feColorMatrix type="matrix" values="0 0 0 0 0 0 0 0 0 0 0 0 0 0 0 0 0 0 0.8 0"/>
<feBlend mode="normal" in2="BackgroundImageFix" result="effect1_dropShadow_78_7804"/>
<feBlend mode="normal" in="SourceGraphic" in2="effect1_dropShadow_78_7804" result="shape"/>
</filter>
</defs>
</svg>
