<svg width="21" height="16" viewBox="0 0 21 16" fill="none" xmlns="http://www.w3.org/2000/svg">
<path d="M9.78052 0.981546C10.0899 0.802913 10.4711 0.802913 10.7805 0.981546L15.8427 3.9042C16.1521 4.08283 16.3427 4.41296 16.3427 4.77022V10.6155C16.3427 10.9728 16.1521 11.3029 15.8427 11.4815L10.7805 14.4042C10.4711 14.5828 10.0899 14.5828 9.78052 14.4042L4.71834 11.4815C4.40894 11.3029 4.21834 10.9728 4.21834 10.6155V4.77022C4.21834 4.41296 4.40894 4.08283 4.71834 3.9042L9.78052 0.981546Z" fill="#FFC94B"/>
<g filter="url(#filter0_d_78_7810)">
<mask id="path-2-outside-1_78_7810" maskUnits="userSpaceOnUse" x="3.28052" y="3.69287" width="14" height="9" fill="black">
<rect fill="white" x="3.28052" y="3.69287" width="14" height="9"/>
<path d="M4.90894 11.623C4.4506 11.623 4.22144 11.5496 4.22144 11.4028C4.22144 11.256 4.3396 11.1003 4.57593 10.9355C4.81584 10.7673 4.96265 10.5793 5.01636 10.3716C5.07007 10.1639 5.09692 9.34391 5.09692 7.91162C5.09692 6.47575 5.0826 5.70231 5.05396 5.59131C4.9895 5.33708 4.86776 5.1473 4.68872 5.02197C4.36287 4.79281 4.19995 4.61377 4.19995 4.48486V4.40967C4.19995 4.28076 4.65112 4.21631 5.55347 4.21631L5.9187 4.2002H6.28394L6.40747 4.20557H6.53101C6.93921 4.20557 7.18628 4.22168 7.27222 4.25391C7.36174 4.28255 7.40649 4.37386 7.40649 4.52783C7.40649 4.62093 7.27401 4.7749 7.00903 4.98975C6.8658 5.10791 6.76912 5.2762 6.71899 5.49463C6.66886 5.71305 6.6438 6.55632 6.6438 8.02441C6.6438 9.49251 6.66349 10.3071 6.70288 10.4683C6.74227 10.6294 6.87118 10.8031 7.0896 10.9893C7.30802 11.1755 7.41724 11.3294 7.41724 11.4512C7.41724 11.5944 7.27401 11.666 6.98755 11.666H6.61157L6.48804 11.6606H6.2356L5.87036 11.6499L5.38696 11.6392L5.15063 11.6284C5.07186 11.6248 4.99129 11.623 4.90894 11.623ZM10.9739 4.23779C11.6184 4.23779 11.9407 4.35238 11.9407 4.58154C11.9407 4.6818 11.9067 4.7946 11.8386 4.91992C11.7706 5.04167 11.7366 5.18311 11.7366 5.34424C11.7366 5.50537 11.7957 5.76676 11.9138 6.12842C12.408 7.6359 12.7517 8.62419 12.9451 9.09326C13.1384 9.56234 13.253 9.79688 13.2888 9.79688C13.3927 9.79688 13.7507 8.85156 14.363 6.96094C14.5994 6.23047 14.7175 5.67725 14.7175 5.30127C14.7175 5.21175 14.6638 5.07568 14.5564 4.89307C14.4526 4.71045 14.4006 4.59587 14.4006 4.54932C14.4006 4.43115 14.4651 4.35059 14.594 4.30762C14.7265 4.26107 14.9897 4.23779 15.3835 4.23779H15.7595C16.1641 4.23779 16.4237 4.27002 16.5383 4.33447C16.6565 4.39535 16.7156 4.48128 16.7156 4.59229C16.7156 4.70329 16.5992 4.8501 16.3665 5.03271C16.1337 5.21533 15.9618 5.42122 15.8508 5.65039C15.8293 5.69336 15.4963 6.58675 14.8518 8.33057C14.2109 10.0708 13.8027 11.0824 13.6272 11.3652C13.4553 11.6481 13.176 11.7896 12.7893 11.7896C12.5673 11.7896 12.3525 11.5532 12.1448 11.0806C12.0266 10.8156 11.665 9.89535 11.0598 8.31982L10.5281 6.92871C10.4386 6.69596 10.3383 6.43099 10.2273 6.13379C10.1163 5.83301 10.0375 5.6307 9.99097 5.52686C9.90145 5.3335 9.72778 5.16162 9.46997 5.01123C9.21216 4.85726 9.08325 4.71224 9.08325 4.57617C9.08325 4.43652 9.1119 4.35238 9.16919 4.32373C9.28019 4.26644 9.82446 4.23779 10.802 4.23779H10.9739Z"/>
</mask>
<path d="M4.90894 11.623C4.4506 11.623 4.22144 11.5496 4.22144 11.4028C4.22144 11.256 4.3396 11.1003 4.57593 10.9355C4.81584 10.7673 4.96265 10.5793 5.01636 10.3716C5.07007 10.1639 5.09692 9.34391 5.09692 7.91162C5.09692 6.47575 5.0826 5.70231 5.05396 5.59131C4.9895 5.33708 4.86776 5.1473 4.68872 5.02197C4.36287 4.79281 4.19995 4.61377 4.19995 4.48486V4.40967C4.19995 4.28076 4.65112 4.21631 5.55347 4.21631L5.9187 4.2002H6.28394L6.40747 4.20557H6.53101C6.93921 4.20557 7.18628 4.22168 7.27222 4.25391C7.36174 4.28255 7.40649 4.37386 7.40649 4.52783C7.40649 4.62093 7.27401 4.7749 7.00903 4.98975C6.8658 5.10791 6.76912 5.2762 6.71899 5.49463C6.66886 5.71305 6.6438 6.55632 6.6438 8.02441C6.6438 9.49251 6.66349 10.3071 6.70288 10.4683C6.74227 10.6294 6.87118 10.8031 7.0896 10.9893C7.30802 11.1755 7.41724 11.3294 7.41724 11.4512C7.41724 11.5944 7.27401 11.666 6.98755 11.666H6.61157L6.48804 11.6606H6.2356L5.87036 11.6499L5.38696 11.6392L5.15063 11.6284C5.07186 11.6248 4.99129 11.623 4.90894 11.623ZM10.9739 4.23779C11.6184 4.23779 11.9407 4.35238 11.9407 4.58154C11.9407 4.6818 11.9067 4.7946 11.8386 4.91992C11.7706 5.04167 11.7366 5.18311 11.7366 5.34424C11.7366 5.50537 11.7957 5.76676 11.9138 6.12842C12.408 7.6359 12.7517 8.62419 12.9451 9.09326C13.1384 9.56234 13.253 9.79688 13.2888 9.79688C13.3927 9.79688 13.7507 8.85156 14.363 6.96094C14.5994 6.23047 14.7175 5.67725 14.7175 5.30127C14.7175 5.21175 14.6638 5.07568 14.5564 4.89307C14.4526 4.71045 14.4006 4.59587 14.4006 4.54932C14.4006 4.43115 14.4651 4.35059 14.594 4.30762C14.7265 4.26107 14.9897 4.23779 15.3835 4.23779H15.7595C16.1641 4.23779 16.4237 4.27002 16.5383 4.33447C16.6565 4.39535 16.7156 4.48128 16.7156 4.59229C16.7156 4.70329 16.5992 4.8501 16.3665 5.03271C16.1337 5.21533 15.9618 5.42122 15.8508 5.65039C15.8293 5.69336 15.4963 6.58675 14.8518 8.33057C14.2109 10.0708 13.8027 11.0824 13.6272 11.3652C13.4553 11.6481 13.176 11.7896 12.7893 11.7896C12.5673 11.7896 12.3525 11.5532 12.1448 11.0806C12.0266 10.8156 11.665 9.89535 11.0598 8.31982L10.5281 6.92871C10.4386 6.69596 10.3383 6.43099 10.2273 6.13379C10.1163 5.83301 10.0375 5.6307 9.99097 5.52686C9.90145 5.3335 9.72778 5.16162 9.46997 5.01123C9.21216 4.85726 9.08325 4.71224 9.08325 4.57617C9.08325 4.43652 9.1119 4.35238 9.16919 4.32373C9.28019 4.26644 9.82446 4.23779 10.802 4.23779H10.9739Z" fill="#FFE4A7"/>
<path d="M4.57593 10.9355L4.69029 11.0996L4.69078 11.0993L4.57593 10.9355ZM5.05396 5.59131L4.86009 5.64046L4.8603 5.64128L5.05396 5.59131ZM4.68872 5.02197L4.57367 5.18557L4.57403 5.18582L4.68872 5.02197ZM5.55347 4.21631V4.4165L5.56228 4.41611L5.55347 4.21631ZM5.9187 4.2002V4L5.90989 4.00039L5.9187 4.2002ZM6.28394 4.2002L6.29263 4.0002H6.28394V4.2002ZM6.40747 4.20557L6.39878 4.40557H6.40747V4.20557ZM7.27222 4.25391L7.20191 4.4414L7.21126 4.44439L7.27222 4.25391ZM7.00903 4.98975L6.88307 4.83439L6.88176 4.83547L7.00903 4.98975ZM6.61157 11.666L6.60288 11.866H6.61157V11.666ZM6.48804 11.6606L6.49673 11.4606H6.48804V11.6606ZM6.2356 11.6606L6.22971 11.8606H6.2356V11.6606ZM5.87036 11.6499L5.87624 11.45L5.8748 11.45L5.87036 11.6499ZM5.38696 11.6392L5.37788 11.839L5.38252 11.8391L5.38696 11.6392ZM4.90894 11.623V11.423C4.68532 11.423 4.53863 11.4045 4.45432 11.3775C4.36126 11.3477 4.42144 11.3387 4.42144 11.4028H4.22144H4.02144C4.02144 11.6137 4.19619 11.7149 4.3323 11.7585C4.47715 11.8049 4.67422 11.823 4.90894 11.823V11.623ZM4.22144 11.4028H4.42144C4.42144 11.3636 4.45972 11.2603 4.69029 11.0996L4.57593 10.9355L4.46157 10.7715C4.21948 10.9402 4.02144 11.1484 4.02144 11.4028H4.22144ZM4.57593 10.9355L4.69078 11.0993C4.95536 10.9137 5.14063 10.6898 5.20999 10.4217L5.01636 10.3716L4.82273 10.3215C4.78466 10.4687 4.67631 10.6208 4.46107 10.7718L4.57593 10.9355ZM5.01636 10.3716L5.20999 10.4217C5.22826 10.351 5.24092 10.2451 5.25099 10.1166C5.2614 9.98394 5.26991 9.81386 5.27668 9.60738C5.29021 9.19418 5.29692 8.6286 5.29692 7.91162H5.09692H4.89692C4.89692 8.62693 4.89021 9.1875 4.87689 9.59428C4.87022 9.79779 4.86195 9.96117 4.85222 10.0854C4.84215 10.2138 4.83131 10.2883 4.82273 10.3215L5.01636 10.3716ZM5.09692 7.91162H5.29692C5.29692 7.1933 5.29334 6.63952 5.28615 6.25094C5.28255 6.05681 5.27803 5.90256 5.27252 5.78906C5.2675 5.68575 5.26102 5.59328 5.24761 5.54133L5.05396 5.59131L4.8603 5.64128C4.85939 5.63775 4.8617 5.64737 4.86484 5.68204C4.86762 5.71271 4.87037 5.75456 4.87299 5.80847C4.87822 5.91609 4.88265 6.06575 4.88622 6.25834C4.89334 6.6432 4.89692 7.19407 4.89692 7.91162H5.09692ZM5.05396 5.59131L5.24782 5.54216C5.17405 5.25118 5.02926 5.01622 4.80341 4.85813L4.68872 5.02197L4.57403 5.18582C4.70626 5.27838 4.80495 5.42297 4.86009 5.64046L5.05396 5.59131ZM4.68872 5.02197L4.80377 4.85838C4.64622 4.74757 4.5374 4.65521 4.47006 4.58121C4.39613 4.49996 4.39995 4.47111 4.39995 4.48486H4.19995H3.99995C3.99995 4.62752 4.08524 4.75264 4.17422 4.85043C4.26981 4.95547 4.40538 5.06721 4.57367 5.18557L4.68872 5.02197ZM4.19995 4.48486H4.39995V4.40967H4.19995H3.99995V4.48486H4.19995ZM4.19995 4.40967H4.39995C4.39995 4.51178 4.31235 4.53075 4.36333 4.5089C4.39526 4.49522 4.45906 4.478 4.56661 4.46264C4.77767 4.43249 5.10449 4.41631 5.55347 4.41631V4.21631V4.01631C5.1001 4.01631 4.75017 4.03236 4.51005 4.06666C4.39201 4.08352 4.28663 4.10659 4.20576 4.14124C4.14395 4.16773 3.99995 4.2431 3.99995 4.40967H4.19995ZM5.55347 4.21631L5.56228 4.41611L5.92752 4.4L5.9187 4.2002L5.90989 4.00039L5.54465 4.0165L5.55347 4.21631ZM5.9187 4.2002V4.4002H6.28394V4.2002V4.0002H5.9187V4.2002ZM6.28394 4.2002L6.27525 4.40001L6.39878 4.40538L6.40747 4.20557L6.41616 4.00575L6.29262 4.00038L6.28394 4.2002ZM6.40747 4.20557V4.40557H6.53101V4.20557V4.00557H6.40747V4.20557ZM6.53101 4.20557V4.40557C6.73315 4.40557 6.89211 4.40957 7.00945 4.41723C7.06816 4.42106 7.11421 4.42566 7.14882 4.43068C7.16603 4.43318 7.17918 4.43561 7.18883 4.43777C7.19891 4.44002 7.20264 4.44141 7.20199 4.44117L7.27222 4.25391L7.34244 4.06664C7.26793 4.0387 7.15618 4.02595 7.03548 4.01808C6.90575 4.00961 6.73706 4.00557 6.53101 4.00557V4.20557ZM7.27222 4.25391L7.21126 4.44439C7.20812 4.44338 7.20279 4.44082 7.19772 4.43629C7.19292 4.43201 7.19205 4.42926 7.19334 4.4319C7.19716 4.4397 7.20649 4.46707 7.20649 4.52783H7.40649H7.60649C7.60649 4.35119 7.55364 4.13397 7.33317 4.06342L7.27222 4.25391ZM7.40649 4.52783H7.20649C7.20649 4.50561 7.21361 4.49923 7.20539 4.51455C7.19803 4.52828 7.18298 4.55078 7.15553 4.58269C7.10054 4.64659 7.01162 4.73017 6.88307 4.83439L7.00903 4.98975L7.13499 5.1451C7.27142 5.03448 7.38123 4.93365 7.45873 4.84358C7.49752 4.79851 7.53215 4.75162 7.55791 4.70359C7.58282 4.65714 7.60649 4.5966 7.60649 4.52783H7.40649ZM7.00903 4.98975L6.88176 4.83547C6.69792 4.98714 6.58195 5.19765 6.52406 5.44989L6.71899 5.49463L6.91393 5.53937C6.9563 5.35476 7.03369 5.22868 7.13631 5.14402L7.00903 4.98975ZM6.71899 5.49463L6.52406 5.44989C6.49365 5.5824 6.47502 5.86992 6.46269 6.28495C6.45007 6.70949 6.4438 7.2896 6.4438 8.02441H6.6438H6.8438C6.8438 7.29113 6.85006 6.71556 6.86251 6.29684C6.87524 5.8686 6.89421 5.62529 6.91393 5.53937L6.71899 5.49463ZM6.6438 8.02441H6.4438C6.4438 8.75902 6.44872 9.33157 6.45863 9.74128C6.46358 9.946 6.4698 10.1115 6.4774 10.237C6.48461 10.3561 6.49379 10.4552 6.5086 10.5158L6.70288 10.4683L6.89716 10.4208C6.89227 10.4008 6.88422 10.3376 6.87667 10.2128C6.86949 10.0943 6.86341 9.93421 6.85851 9.73162C6.84872 9.32671 6.8438 8.75791 6.8438 8.02441H6.6438ZM6.70288 10.4683L6.5086 10.5158C6.56293 10.738 6.73027 10.9458 6.95985 11.1415L7.0896 10.9893L7.21935 10.8371C7.01208 10.6604 6.92161 10.5208 6.89716 10.4208L6.70288 10.4683ZM7.0896 10.9893L6.95985 11.1415C7.06227 11.2288 7.13075 11.3017 7.1722 11.3601C7.21513 11.4206 7.21724 11.4489 7.21724 11.4512H7.41724H7.61724C7.61724 11.3317 7.56474 11.2221 7.49846 11.1287C7.43069 11.0331 7.33535 10.9359 7.21935 10.8371L7.0896 10.9893ZM7.41724 11.4512H7.21724C7.21724 11.452 7.21761 11.4438 7.22397 11.4342C7.2295 11.4259 7.23245 11.4274 7.22037 11.4334C7.19055 11.4483 7.12056 11.466 6.98755 11.466V11.666V11.866C7.14099 11.866 7.28585 11.8479 7.39926 11.7912C7.45879 11.7614 7.51546 11.7181 7.55679 11.6561C7.59896 11.5929 7.61724 11.522 7.61724 11.4512H7.41724ZM6.98755 11.666V11.466H6.61157V11.666V11.866H6.98755V11.666ZM6.61157 11.666L6.62026 11.4662L6.49672 11.4608L6.48804 11.6606L6.47935 11.8605L6.60288 11.8658L6.61157 11.666ZM6.48804 11.6606V11.4606H6.2356V11.6606V11.8606H6.48804V11.6606ZM6.2356 11.6606L6.24148 11.4607L5.87624 11.45L5.87036 11.6499L5.86448 11.8498L6.22972 11.8606L6.2356 11.6606ZM5.87036 11.6499L5.8748 11.45L5.39141 11.4392L5.38696 11.6392L5.38252 11.8391L5.86592 11.8499L5.87036 11.6499ZM5.38696 11.6392L5.39604 11.4394L5.15972 11.4286L5.15063 11.6284L5.14155 11.8282L5.37788 11.839L5.38696 11.6392ZM5.15063 11.6284L5.15972 11.4286C5.07779 11.4249 4.99419 11.423 4.90894 11.423V11.623V11.823C4.9884 11.823 5.06593 11.8248 5.14155 11.8282L5.15063 11.6284ZM11.8386 4.91992L12.0132 5.01749L12.0144 5.01534L11.8386 4.91992ZM11.9138 6.12842L11.7237 6.19053L11.7238 6.19071L11.9138 6.12842ZM12.9451 9.09326L12.7602 9.16948L12.9451 9.09326ZM14.363 6.96094L14.5533 7.02256L14.5533 7.0225L14.363 6.96094ZM14.5564 4.89307L14.3825 4.99194L14.384 4.99447L14.5564 4.89307ZM14.594 4.30762L14.6572 4.49738L14.6603 4.49631L14.594 4.30762ZM16.5383 4.33447L16.4402 4.50891L16.4467 4.51227L16.5383 4.33447ZM15.8508 5.65039L16.0297 5.73984L16.0308 5.73758L15.8508 5.65039ZM14.8518 8.33057L14.6642 8.26123L14.6641 8.26144L14.8518 8.33057ZM13.6272 11.3652L13.4572 11.2598L13.4563 11.2614L13.6272 11.3652ZM12.1448 11.0806L12.3279 11.0001L12.3274 10.9991L12.1448 11.0806ZM11.0598 8.31982L10.873 8.39123L10.8731 8.39153L11.0598 8.31982ZM10.5281 6.92871L10.7149 6.8573L10.7147 6.85691L10.5281 6.92871ZM10.2273 6.13379L10.0397 6.20303L10.0399 6.20377L10.2273 6.13379ZM9.99097 5.52686L10.1735 5.44504L10.1725 5.44283L9.99097 5.52686ZM9.46997 5.01123L9.36742 5.18295L9.3692 5.18399L9.46997 5.01123ZM9.16919 4.32373L9.25864 4.50263L9.26092 4.50145L9.16919 4.32373ZM10.9739 4.23779V4.43779C11.2898 4.43779 11.5038 4.46658 11.632 4.51217C11.6951 4.53462 11.7235 4.55635 11.7343 4.56794C11.741 4.57499 11.7407 4.57662 11.7407 4.58154H11.9407H12.1407C12.1407 4.47188 12.1001 4.37325 12.0262 4.29436C11.9565 4.22002 11.864 4.17013 11.766 4.13529C11.5719 4.06629 11.3025 4.03779 10.9739 4.03779V4.23779ZM11.9407 4.58154H11.7407C11.7407 4.63737 11.7213 4.71684 11.6629 4.8245L11.8386 4.91992L12.0144 5.01534C12.092 4.87235 12.1407 4.72624 12.1407 4.58154H11.9407ZM11.8386 4.91992L11.664 4.82236C11.5769 4.97827 11.5366 5.15431 11.5366 5.34424H11.7366H11.9366C11.9366 5.2119 11.9643 5.10506 12.0132 5.01749L11.8386 4.91992ZM11.7366 5.34424H11.5366C11.5366 5.54033 11.6055 5.82868 11.7237 6.19053L11.9138 6.12842L12.1039 6.0663C11.9858 5.70485 11.9366 5.47041 11.9366 5.34424H11.7366ZM11.9138 6.12842L11.7238 6.19071C12.2175 7.6968 12.5635 8.69233 12.7602 9.16948L12.9451 9.09326L13.13 9.01704C12.9399 8.55605 12.5985 7.57501 12.1039 6.06612L11.9138 6.12842ZM12.9451 9.09326L12.7602 9.16948C12.8573 9.40502 12.9362 9.58565 12.9963 9.70876C13.026 9.76946 13.0537 9.82168 13.0788 9.86086C13.0909 9.87966 13.1069 9.90272 13.1264 9.92337C13.1362 9.93366 13.1518 9.94873 13.1731 9.96242C13.1927 9.97502 13.2333 9.99687 13.2888 9.99687V9.79688V9.59688C13.3399 9.59688 13.3753 9.6169 13.3892 9.62584C13.4048 9.63585 13.4141 9.64544 13.4169 9.64839C13.4226 9.65439 13.4223 9.65546 13.4156 9.64494C13.4031 9.62548 13.3834 9.58975 13.3557 9.53318C13.3013 9.42176 13.2262 9.25058 13.13 9.01704L12.9451 9.09326ZM13.2888 9.79688V9.99687C13.3682 9.99687 13.4221 9.95452 13.4427 9.93659C13.4681 9.91443 13.4881 9.88906 13.5029 9.86817C13.5331 9.82543 13.5636 9.76975 13.5941 9.70743C13.6559 9.58079 13.7322 9.39661 13.8223 9.15874C14.0031 8.68137 14.2469 7.96862 14.5533 7.02256L14.363 6.96094L14.1728 6.89932C13.8669 7.84388 13.6255 8.5491 13.4482 9.01705C13.3593 9.25183 13.2883 9.42214 13.2347 9.53182C13.2074 9.58768 13.1881 9.62061 13.1765 9.63696C13.1703 9.64561 13.1714 9.64239 13.1799 9.635C13.1835 9.63184 13.2224 9.59688 13.2888 9.59688V9.79688ZM14.363 6.96094L14.5533 7.0225C14.7908 6.28837 14.9175 5.71022 14.9175 5.30127H14.7175H14.5175C14.5175 5.64427 14.4079 6.17256 14.1727 6.89937L14.363 6.96094ZM14.7175 5.30127H14.9175C14.9175 5.22045 14.8943 5.13712 14.8633 5.05865C14.8313 4.97772 14.7856 4.88833 14.7288 4.79166L14.5564 4.89307L14.384 4.99447C14.4346 5.08042 14.4694 5.15037 14.4912 5.20551C14.5139 5.2631 14.5175 5.29257 14.5175 5.30127H14.7175ZM14.5564 4.89307L14.7303 4.79421C14.6796 4.7052 14.6441 4.6369 14.6217 4.58762C14.6105 4.56291 14.6041 4.54602 14.6007 4.53565C14.5963 4.52191 14.6006 4.52961 14.6006 4.54932H14.4006H14.2006C14.2006 4.5923 14.2115 4.63177 14.22 4.65832C14.2296 4.68824 14.2426 4.72013 14.2574 4.75271C14.287 4.81801 14.3293 4.89831 14.3825 4.99193L14.5564 4.89307ZM14.4006 4.54932H14.6006C14.6006 4.53802 14.6022 4.53193 14.603 4.52944C14.6037 4.52727 14.6043 4.52626 14.6051 4.52521C14.6068 4.52319 14.618 4.51044 14.6572 4.49735L14.594 4.30762L14.5307 4.11788C14.4411 4.14776 14.3556 4.19678 14.2928 4.27533C14.2282 4.35614 14.2006 4.45176 14.2006 4.54932H14.4006ZM14.594 4.30762L14.6603 4.49631C14.7026 4.48145 14.7815 4.46569 14.9084 4.45447C15.032 4.44354 15.1899 4.43779 15.3835 4.43779V4.23779V4.03779C15.1833 4.03779 15.0127 4.04369 14.8731 4.05603C14.7368 4.06809 14.6179 4.08723 14.5277 4.11893L14.594 4.30762ZM15.3835 4.23779V4.43779H15.7595V4.23779V4.03779H15.3835V4.23779ZM15.7595 4.23779V4.43779C15.9575 4.43779 16.1146 4.44573 16.2331 4.46044C16.3575 4.47589 16.4185 4.49655 16.4403 4.50879L16.5383 4.33447L16.6364 4.16016C16.5436 4.10794 16.4175 4.08027 16.2823 4.06349C16.1412 4.04597 15.9661 4.03779 15.7595 4.03779V4.23779ZM16.5383 4.33447L16.4467 4.51227C16.5142 4.54702 16.5156 4.57249 16.5156 4.59229H16.7156H16.9156C16.9156 4.39008 16.7988 4.24367 16.6299 4.15668L16.5383 4.33447ZM16.7156 4.59229H16.5156C16.5156 4.58082 16.5193 4.6012 16.4716 4.66141C16.4271 4.71755 16.3533 4.78886 16.243 4.87537L16.3665 5.03271L16.4899 5.19006C16.6124 5.09395 16.7132 5.00055 16.785 4.90988C16.8537 4.82328 16.9156 4.71476 16.9156 4.59229H16.7156ZM16.3665 5.03271L16.243 4.87537C15.9902 5.07373 15.7971 5.30255 15.6708 5.5632L15.8508 5.65039L16.0308 5.73758C16.1266 5.5399 16.2772 5.35693 16.4899 5.19006L16.3665 5.03271ZM15.8508 5.65039L15.6719 5.56095C15.664 5.57691 15.6522 5.60713 15.6418 5.63389C15.629 5.66667 15.6115 5.71255 15.5893 5.77126C15.5448 5.88879 15.4808 6.05937 15.3976 6.28281C15.231 6.72977 14.9865 7.38928 14.6642 8.26123L14.8518 8.33057L15.0394 8.3999C15.3617 7.52804 15.606 6.86895 15.7724 6.42252C15.8556 6.19926 15.9192 6.02944 15.9634 5.91288C15.9854 5.85454 16.0025 5.80996 16.0146 5.77884C16.029 5.74171 16.0323 5.73462 16.0297 5.73983L15.8508 5.65039ZM14.8518 8.33057L14.6641 8.26144C14.3439 9.13077 14.0825 9.81654 13.8795 10.3196C13.6739 10.8291 13.5342 11.1357 13.4572 11.2598L13.6272 11.3652L13.7972 11.4707C13.8957 11.3118 14.0478 10.9713 14.2504 10.4693C14.4556 9.96072 14.7187 9.2706 15.0395 8.39969L14.8518 8.33057ZM13.6272 11.3652L13.4563 11.2614C13.3273 11.4736 13.12 11.5896 12.7893 11.5896V11.7896V11.9896C13.232 11.9896 13.5833 11.8226 13.7981 11.4691L13.6272 11.3652ZM12.7893 11.7896V11.5896C12.7557 11.5896 12.6961 11.5729 12.6097 11.4778C12.523 11.3824 12.4277 11.2273 12.3279 11.0001L12.1448 11.0806L11.9617 11.161C12.0695 11.4065 12.1855 11.6059 12.3137 11.7468C12.4421 11.888 12.6009 11.9896 12.7893 11.9896V11.7896ZM12.1448 11.0806L12.3274 10.9991C12.212 10.7403 11.8528 9.82663 11.2465 8.24811L11.0598 8.31982L10.8731 8.39153C11.4771 9.96406 11.8412 10.8909 11.9621 11.162L12.1448 11.0806ZM11.0598 8.31982L11.2466 8.24841L10.7149 6.8573L10.5281 6.92871L10.3413 7.00012L10.873 8.39123L11.0598 8.31982ZM10.5281 6.92871L10.7147 6.85691C10.6255 6.62491 10.5255 6.36056 10.4147 6.06381L10.2273 6.13379L10.0399 6.20377C10.1511 6.50142 10.2516 6.76702 10.3414 7.00051L10.5281 6.92871ZM10.2273 6.13379L10.4149 6.06454C10.3042 5.76453 10.2232 5.55601 10.1735 5.44504L9.99097 5.52686L9.80847 5.60867C9.85182 5.70538 9.92838 5.90149 10.0397 6.20303L10.2273 6.13379ZM9.99097 5.52686L10.1725 5.44283C10.0601 5.20015 9.8502 5.00149 9.57074 4.83847L9.46997 5.01123L9.3692 5.18399C9.60537 5.32175 9.74279 5.46684 9.80947 5.61088L9.99097 5.52686ZM9.46997 5.01123L9.57252 4.83952C9.45266 4.76794 9.375 4.7054 9.32941 4.65411C9.28377 4.60277 9.28325 4.57789 9.28325 4.57617H9.08325H8.88325C8.88325 4.71053 8.94719 4.82619 9.03045 4.91986C9.11377 5.01359 9.22947 5.10055 9.36742 5.18294L9.46997 5.01123ZM9.08325 4.57617H9.28325C9.28325 4.51724 9.28965 4.48574 9.29407 4.47278C9.29812 4.46088 9.29279 4.48554 9.25863 4.50262L9.16919 4.32373L9.07975 4.14485C8.9883 4.19057 8.94 4.27162 8.91541 4.34387C8.89117 4.41506 8.88325 4.49546 8.88325 4.57617H9.08325ZM9.16919 4.32373L9.26092 4.50145C9.25346 4.5053 9.27484 4.49556 9.35969 4.48443C9.43424 4.47466 9.53742 4.46604 9.67116 4.459C9.93808 4.44495 10.3145 4.43779 10.802 4.43779V4.23779V4.03779C10.312 4.03779 9.92748 4.04496 9.65013 4.05955C9.51174 4.06684 9.39694 4.07612 9.30767 4.08783C9.2287 4.09819 9.14042 4.11351 9.07746 4.14601L9.16919 4.32373ZM10.802 4.23779V4.43779H10.9739V4.23779V4.03779H10.802V4.23779Z" fill="#FFE4A7" mask="url(#path-2-outside-1_78_7810)"/>
</g>
<defs>
<filter id="filter0_d_78_7810" x="0" y="0" width="20.9155" height="15.9895" filterUnits="userSpaceOnUse" color-interpolation-filters="sRGB">
<feFlood flood-opacity="0" result="BackgroundImageFix"/>
<feColorMatrix in="SourceAlpha" type="matrix" values="0 0 0 0 0 0 0 0 0 0 0 0 0 0 0 0 0 0 127 0" result="hardAlpha"/>
<feOffset/>
<feGaussianBlur stdDeviation="2"/>
<feComposite in2="hardAlpha" operator="out"/>
<feColorMatrix type="matrix" values="0 0 0 0 0 0 0 0 0 0 0 0 0 0 0 0 0 0 0.8 0"/>
<feBlend mode="normal" in2="BackgroundImageFix" result="effect1_dropShadow_78_7810"/>
<feBlend mode="normal" in="SourceGraphic" in2="effect1_dropShadow_78_7810" result="shape"/>
</filter>
</defs>
</svg>
