<svg width="119" height="74" viewBox="0 0 119 74" fill="none" xmlns="http://www.w3.org/2000/svg">
<path d="M112.053 51.3653C110.918 52.5953 109.555 55.4886 108.42 57.0583C105.694 60.8302 100.881 66.0976 95.7222 65.2854C92.3027 64.7465 93.5613 60.9473 94.1228 58.6319C95.0135 54.9459 96.4658 50.889 97.7902 47.324C98.5415 45.3053 100.95 40.6705 100.954 38.8627C100.966 34.7081 95.393 33.3532 93.3832 37.0353C88.1126 46.6993 88.9219 55.1528 79.0739 62.7591C76.8937 64.442 72.1962 66.9019 69.7681 64.645C69.1756 64.0945 68.2888 62.1578 68.6373 61.4042C74.9225 53.9853 81.0722 46.1214 85.7851 37.5663C89.7933 30.292 99.68 9.39822 87.2606 5.61462C80.104 3.43583 75.3911 9.46069 72.5292 15.0482C69.2492 21.4519 66.8675 28.7184 65.059 35.6804C63.7539 35.3875 62.6735 34.5832 61.3452 34.2552C51.3268 31.7953 42.5437 41.6506 39.5967 51.9823C38.4814 53.919 37.8889 56.3711 36.336 58.4562C30.9298 65.7305 15.7841 69.5454 9.99072 60.8692C7.00107 56.3945 7.57035 51.5723 10.5677 47.3006C13.3599 43.314 18.5492 41.7755 23.1924 41.51C26.3331 41.3304 30.2676 42.5408 30.8214 38.0934C31.2164 34.9229 28.7922 34.2279 27.1695 32.2599C25.7561 30.5497 24.3387 28.078 24.0753 25.8446L24.4665 25.6181C31.228 26.4342 44.7008 22.4007 46.4163 14.8335C47.3922 10.5345 45.0416 7.06324 40.9366 5.91528C33.9543 3.96686 24.5904 6.88753 20.013 12.5883C19.7574 12.9085 18.7776 14.6578 18.464 14.4313C17.5074 12.7796 16.9807 10.8312 18.1038 9.10537C18.917 7.85979 19.9278 8.2034 21.1051 7.64504C23.5061 6.50878 23.9979 3.47488 22.3327 1.46789C19.436 -2.02677 13.5574 1.43275 11.532 4.42761C7.27603 10.7219 10.1301 19.2106 16.1443 23.1426C15.788 27.0941 16.64 30.4716 18.464 33.9155C3.35309 35.9381 -5.79011 53.8565 4.15859 66.5505C12.8758 77.6787 30.4303 75.3086 40.0575 66.2186C42.6173 71.4352 47.915 73.2821 53.6542 72.0131C56.7291 71.3337 59.6374 69.6 62.0655 67.6321C67.5336 77.1477 79.8097 73.7936 86.2382 67.2416C91.4856 76.3785 102.248 74.3754 109.156 68.3115C111.735 66.0468 118.354 58.1946 118.927 54.9732C119.663 50.8421 114.671 48.5149 112.057 51.3614L112.053 51.3653ZM76.2702 26.6138C77.4087 23.5252 80.6927 15.0951 83.4887 13.623C83.9999 13.3536 84.8867 13.01 85.2701 13.6582C85.9439 14.7983 84.3949 20.218 83.9534 21.69C81.3433 30.3779 76.2818 38.4605 70.864 45.6177C72.2775 39.1828 73.9931 32.7909 76.274 26.6177L76.2702 26.6138ZM26.5887 17.27C27.9247 15.8877 29.6867 14.8218 31.5146 14.2439C32.1652 14.0369 34.2486 13.4669 34.8063 13.4669H37.9973C35.5924 15.876 30.6433 17.5238 27.2702 17.5667C27.0379 17.5667 26.4144 17.6878 26.5887 17.27ZM60.5707 58.1438C58.3091 60.8692 52.2446 65.6602 48.616 64.0281C46.2033 62.9426 46.3621 58.6631 46.7378 56.4804C46.7881 56.1915 46.8501 55.8908 46.9198 55.5824C47.0747 55.1333 47.187 54.7272 47.2373 54.3758C48.7515 49.2881 52.7209 42.6228 57.6546 41.959C59.8542 41.6623 61.9571 43.3725 62.6929 45.3678L60.5707 58.1438Z" fill="url(#paint0_radial_176_5576)"/>
<path d="M99.9132 26.9497C99.9132 26.9475 99.913 26.9456 99.913 26.9443C99.913 26.9455 99.9132 26.9497 99.9133 26.9554C99.9133 26.9533 99.9133 26.9513 99.9132 26.9497ZM106.273 18.4158C107.532 17.2604 109.479 17.3659 110.624 18.6335C111.769 19.9012 111.691 21.8659 110.433 23.0213L108.978 24.3569C110.525 24.5899 111.682 25.9715 111.613 27.579C111.54 29.2946 110.1 30.6167 108.4 30.53L101.304 30.1688L101.304 30.1677C101.29 30.1671 101.278 30.1672 101.268 30.1663C101.26 30.1656 101.252 30.1649 101.246 30.1642C101.183 30.1594 101.106 30.1525 101.023 30.1404L101.015 30.1395C100.998 30.1369 100.982 30.1337 100.973 30.1321C100.962 30.1302 100.957 30.1296 100.954 30.1291L100.947 30.1282L100.94 30.1268C100.871 30.1148 100.796 30.1 100.716 30.0801L100.709 30.0784L100.702 30.0764C100.689 30.073 100.677 30.0697 100.668 30.0673C100.659 30.0646 100.652 30.0628 100.646 30.0611L100.642 30.0598L100.638 30.0588C100.582 30.0432 100.512 30.0223 100.437 29.9957C100.435 29.9948 100.432 29.9937 100.43 29.9929C100.426 29.9915 100.422 29.9907 100.418 29.9894C100.392 29.9802 100.37 29.9711 100.357 29.966C100.284 29.938 100.212 29.9077 100.141 29.8743C100.123 29.8655 100.106 29.8562 100.09 29.8478C100.086 29.846 100.083 29.8443 100.079 29.8425C100.075 29.8402 100.07 29.8382 100.066 29.8359C99.9996 29.8023 99.9331 29.7657 99.868 29.7262C99.8585 29.7204 99.8493 29.715 99.8456 29.7127C99.8424 29.7107 99.8407 29.7095 99.8407 29.7095L99.8365 29.7071L99.8324 29.7042C99.7629 29.6607 99.6909 29.6126 99.6188 29.5589L99.5963 29.542L99.5901 29.5363C99.5895 29.5357 99.5885 29.5354 99.5878 29.5348C99.5854 29.533 99.5828 29.5307 99.5798 29.5282C99.5163 29.4789 99.4514 29.4252 99.3878 29.3677C99.3704 29.3522 99.3571 29.3393 99.3488 29.3308C99.3468 29.3287 99.345 29.3265 99.3432 29.3246C99.2885 29.2728 99.2302 29.2154 99.1716 29.1505C99.1114 29.0838 99.0576 29.0171 99.0099 28.955L99.0007 28.9449L98.9771 28.913C98.9751 28.9103 98.9735 28.9073 98.9716 28.9046L98.9693 28.9021L98.9685 28.9007C98.9236 28.8389 98.8818 28.7767 98.8433 28.7156C98.8351 28.7035 98.8238 28.6846 98.8109 28.6628L98.8098 28.6633C98.7653 28.5889 98.7263 28.515 98.6909 28.4439C98.686 28.4341 98.681 28.4253 98.6789 28.4209L98.676 28.4143L98.672 28.4071L98.6686 28.3999C98.6333 28.3269 98.604 28.2556 98.5778 28.1878L98.5773 28.1878C98.5761 28.1849 98.5754 28.1817 98.5742 28.1787C98.5721 28.1733 98.5695 28.1681 98.5675 28.1627L98.568 28.1628C98.5613 28.146 98.5541 28.1282 98.5472 28.1086C98.5214 28.0363 98.4984 27.963 98.4779 27.8891L98.4773 27.8891C98.4739 27.8771 98.467 27.8508 98.4594 27.82L98.4589 27.8199C98.4579 27.8164 98.4576 27.8126 98.4567 27.809C98.456 27.8062 98.4548 27.8034 98.4541 27.8005L98.4547 27.8006C98.4353 27.7227 98.4211 27.6505 98.4108 27.5928L98.4102 27.5887L98.4093 27.5849C98.4093 27.5849 98.4092 27.5839 98.4086 27.5808C98.4084 27.5793 98.408 27.5775 98.4076 27.5751C98.4072 27.5729 98.4064 27.5696 98.4058 27.5664C98.4042 27.5574 98.4021 27.542 98.3993 27.5234L98.3987 27.5234C98.3982 27.52 98.3981 27.5165 98.3976 27.5131C98.3972 27.5105 98.3965 27.5079 98.3961 27.5052L98.3966 27.5052C98.3905 27.4652 98.3848 27.4267 98.381 27.3911L98.3716 27.2833L98.3711 27.2765L98.3706 27.2692C98.37 27.259 98.3695 27.2485 98.3688 27.2383L98.367 27.208L98.3667 27.2037L98.3666 27.1996C98.3628 27.1225 98.3626 27.0477 98.3645 26.9752C98.3644 26.9712 98.3641 26.9656 98.3641 26.9595L98.3649 26.9129L98.6561 20.0792L98.6551 20.0781L98.669 19.7564C98.7421 18.0409 100.182 16.7187 101.883 16.8054C103.477 16.8867 104.733 18.1766 104.819 19.7513L106.273 18.4158Z" fill="url(#paint1_radial_176_5576)"/>
<defs>
<radialGradient id="paint0_radial_176_5576" cx="0" cy="0" r="1" gradientTransform="matrix(164.5 190.5 -208.298 24.0038 -81.5 -72.0178)" gradientUnits="userSpaceOnUse">
<stop stop-color="#2B3071"/>
<stop offset="0.389025" stop-color="#D645C3"/>
<stop offset="0.772011" stop-color="#FEAA44"/>
<stop offset="1" stop-color="#FDE01C"/>
</radialGradient>
<radialGradient id="paint1_radial_176_5576" cx="0" cy="0" r="1" gradientTransform="matrix(164.5 190.5 -208.298 24.0038 -81.5 -72.0178)" gradientUnits="userSpaceOnUse">
<stop stop-color="#2B3071"/>
<stop offset="0.389025" stop-color="#D645C3"/>
<stop offset="0.772011" stop-color="#FEAA44"/>
<stop offset="1" stop-color="#FDE01C"/>
</radialGradient>
</defs>
</svg>
